<?xml version="1.0" encoding="utf-8" ?>
<svg baseProfile="full" height="200mm" version="1.1" viewBox="0,0,200,200" width="200mm" xmlns="http://www.w3.org/2000/svg" xmlns:ev="http://www.w3.org/2001/xml-events" xmlns:xlink="http://www.w3.org/1999/xlink"><defs /><rect fill="#1a1a1a" height="200" width="200" x="0" y="0" /><text alignment-baseline="middle" fill="#e1ed5e" style="dominant-baseline: central; font-size:9.0px; font-family:Arial;" text-anchor="middle" x="100.0" y="100.0">2024</text><line stroke="#e1ed5e" stroke-width="0.3" x1="100.0" x2="100.0" y1="15.0" y2="10.0" /><path d="M 100.0 14.0 a86.0,86.0 0 0,1 42.35913384403234,11.155469271406648" fill="none" id="id121" stroke="none" /><text fill="#e1ed5e" style="font-size:6.75px; font-family:Arial;" text-anchor="middle"><textPath startOffset="22.145653131862478" xlink:href="#id121">January</textPath></text><path d="M 100.0 79.0 l 0.0 -14.734454062003735 a35.734454062003735,35.734454062003735 0 0,0 0.6134294220327984,0.005265553815646744 l -0.2529364971839436 14.732282906382522" fill="#ff7f0b" stroke="none" /><path d="M 100.72087961077811 79.0123766808444 l 0.5114065869441076 -14.889044785345735 a35.897825053248575,35.897825053248575 0 0,0 0.6156891349827642,0.026440340603457846 l -0.7669214825277081 14.878071876316447" fill="#ff820b" stroke="none" /><path d="M 101.08105385017728 79.02784411241856 l 0.7613995926010277 -14.7709486869236 a35.79055963955871,35.79055963955871 0 0,0 0.6133064298397687,0.0368949918449457 l -1.0148503745732589 14.755701717253963" fill="#ff800b" stroke="none" /><path d="M 101.80034050326958 79.07731436759882 l 1.907507109455193 -22.168124041102672 a43.25004060388062,43.25004060388062 0 0,0 0.7391646883975559,0.06999966449787748 l -2.2877713612377617 22.13211262109961" fill="#ffea15" stroke="none" /><path d="M 102.51750503828377 79.15144685158666 l 1.764256627735183 -14.61057575314826 a35.716709050837125,35.716709050837125 0 0,0 0.6080721721308648,0.0787271167113373 l -2.01480662175684 14.578137040236525" fill="#ff7f0b" stroke="none" /><path d="M 103.23170211078529 79.25015418208739 l 2.258608312814704 -14.50188558455116 a35.67671615240032,35.67671615240032 0 0,0 0.6043338358380329,0.099442902711153 l -2.507219651705807 14.460976683344336" fill="#ff7e0b" stroke="none" /><path d="M 104.29559338865022 79.4440306129975 l 4.4727887410808735 -21.403913293822857 a42.86626038928071,42.86626038928071 0 0,0 0.7190051413378654,0.1567038240640671 l -4.839556299037873 21.32397801162507" fill="#ffe415" stroke="none" /><path d="M 104.64783097203109 79.52079915486377 l 3.2144594323187246 -14.16350136636542 a35.52368825047749,35.52368825047749 0 0,0 0.5935295232219424,0.1400713513832731 l -3.457121109280552 14.106233871335919" fill="#ff7c0b" stroke="none" /><path d="M 105.3480935250658 79.69241777938227 l 3.7242536742410226 -14.141597813429538 a35.62377701371615,35.62377701371615 0 0,0 0.590029153063126,0.16081506941045534 l -3.9664642282388414 14.075582249874941" fill="#ff7e0b" stroke="none" /><path d="M 106.04205211174951 79.88797359093562 l 4.665212329129986 -15.52897456559457 a37.21460012256699,37.21460012256699 0 0,0 0.6102474355305963,0.18905621545174434 l -4.931100397532212 15.44660176233618" fill="#ff950d" stroke="none" /><path d="M 106.72888874123014 80.10723608172694 l 7.150215367616666 -21.138341224349524 a43.31490644211479,43.31490644211479 0 0,0 0.7023083632357209,0.24429930534042546 l -7.512029502897406 21.01248348644051" fill="#ffea16" stroke="none" /><path d="M 108.4095320186766 80.7573450057729 l 9.186789221976921 -21.021171583695978 a43.9409404985981,43.9409404985981 0 0,0 0.6885892659050865,0.30799722013747577 l -9.54629189073764 20.860370612648648" fill="#fff316" stroke="none" /><path d="M 109.06512990194946 81.05736502329252 l 7.076909662605183 -14.788019361204684 a37.394150389698126,37.394150389698126 0 0,0 0.5766529686312676,0.28206986340631507 l -7.329722880498518 14.66435574770115" fill="#ff970e" stroke="none" /><path d="M 109.3889696526874 81.21577127319529 l 6.679019852431689 -13.36251380288954 a35.93874430203523,35.93874430203523 0 0,0 0.5494739276752257,0.2805653026277107 l -6.907421001820494 13.245890548588996" fill="#ff820c" stroke="none" /><path d="M 110.02825361518725 81.54914285379988 l 7.039800764746306 -12.952440497848242 a35.741930323320005,35.741930323320005 0 0,0 0.5365643457593497,0.2976231977347905 l -7.261109298661756 12.829684384680306" fill="#ff7f0b" stroke="none" /><line stroke="#e1ed5e" stroke-width="0.3" x1="143.13028292997686" x2="145.6673583964461" y1="26.7553504044142" y2="22.446841604673864" /><path d="M 143.63769802327073 25.89364864446614 a86.0,86.0 0 0,1 29.32050498858742,28.57503671076993" fill="none" id="id122" stroke="none" /><text fill="#e1ed5e" style="font-size:6.75px; font-family:Arial;" text-anchor="middle"><textPath startOffset="20.669276256404974" xlink:href="#id122">February</textPath></text><path d="M 111.27062007382361 82.28071324371311 l 7.791627419673613 -12.249732458642477 a35.51776164411473,35.51776164411473 0 0,0 0.5116492003531278,0.33164483009862944 l -8.00076225228375 12.114173786839952" fill="#ff7c0b" stroke="none" /><path d="M 111.5731344415666 82.4767994020092 l 6.749220193679202 -10.219179594861904 a33.24677936499262,33.24677936499262 0 0,0 0.4735350055661583,0.31861548494075337 l -6.923651487342361 10.101814435864032" fill="#ff5a08" stroke="none" /><path d="M 112.16784306229584 82.88440491214696 l 9.190340745854359 -12.927365196947349 a36.861246292777764,36.861246292777764 0 0,0 0.5125801856558707,0.3710685253581109 l -9.410901941884196 12.767695900216163" fill="#ff900d" stroke="none" /><path d="M 112.7482090630111 83.31218511350987 l 4.7816483175168765 -6.25933114060267 a28.87676246691052,28.87676246691052 0 0,0 0.39133521091492823,0.30430462697731026 l -4.888393473067031 6.17632546200457" fill="#ff1602" stroke="none" /><path d="M 114.13192950727249 84.46653392183569 l 30.95384937627562 -34.023702780823214 a66.99731668398664,66.99731668398664 0 0,0 0.8440712093539552,0.7812597101265566 l -31.53335035694354 33.48732532456428" fill="#36ff6d" stroke="none" /><path d="M 115.41159269507618 85.73525988315684 l 46.23477808522854 -42.794220350529464 a84.0,84.0 0 0,0 0.9704091966324899,1.066649697769313 l -46.96258498270291 41.99423307720248" fill="#4dd2ff" stroke="none" /><path d="M 116.7966241395341 87.39550010848427 l 24.256522246230205 -18.202546504659598 a51.32674678787944,51.32674678787944 0 0,0 0.522794641869513,0.7092713373141262 l -24.565418907683544 17.783468858076596" fill="#acff20" stroke="none" /><path d="M 117.21940702142032 87.97951657250589 l 12.375357981561157 -8.638960989865305 a36.09241969189182,36.09241969189182 0 0,0 0.350285978875058,0.5110777116020192 l -12.521833697251541 8.425248543193238" fill="#ff840c" stroke="none" /><path d="M 117.62189284568427 88.57770195909679 l 12.46326026428022 -8.078534726467803 a35.85246039354869,35.85246039354869 0 0,0 0.33032460942072167,0.5193251514686681 l -12.600102565326832 7.863395900320462" fill="#ff810b" stroke="none" /><line stroke="#e1ed5e" stroke-width="0.3" x1="172.87174338648825" x2="177.1583165268699" y1="56.24261187166439" y2="53.66864786411523" /><path d="M 173.72905801456457 55.72781907015455 a86.0,86.0 0 0,1 12.242430191666344,42.057860355516425" fill="none" id="id123" stroke="none" /><text fill="#e1ed5e" style="font-size:6.75px; font-family:Arial;" text-anchor="middle"><textPath startOffset="22.145653131862474" xlink:href="#id123">March</textPath></text><path d="M 118.18653347947321 89.5 l 37.11380761484331 -21.42766681708177 a63.855333634163536,63.855333634163536 0 0,0 0.5399322247074176,0.9540085057514709 l -37.4761732045721 20.787401541231183" fill="#32ff45" stroke="none" /><path d="M 118.70294669586156 90.45014215332178 l 12.9711895629124 -6.623181814207883 a35.56428151406933,35.56428151406933 0 0,0 0.2729644752857101,0.5461118022243704 l -13.082973951409846 6.399538155819762" fill="#ff7d0b" stroke="none" /><path d="M 119.31412917781788 91.75594674310238 l 24.91391401753518 -10.634268421183522 a48.0885728034335,48.0885728034335 0 0,0 0.31755439147438014,0.7620149379213801 l -25.092794253546046 10.205020973820863" fill="#d5ff1c" stroke="none" /><path d="M 119.4528033332814 92.08871423366111 l 5.993306633859521 -2.4374256323578996 a27.46998980839536,27.46998980839536 0 0,0 0.17389984970453032,0.4383412210450959 l -6.034265158530175 2.334183394099238" fill="#ff0000" stroke="none" /><line stroke="#e1ed5e" stroke-width="0.3" x1="184.99686870605535" x2="189.99668451229388" y1="99.2704041080226" y2="99.22748670261217" /><path d="M 185.99683186730306 99.26182062694052 a86.0,86.0 0 0,1 -10.086455211305974,41.156179273409016" fill="none" id="id124" stroke="none" /><text fill="#e1ed5e" style="font-size:6.75px; font-family:Arial;" text-anchor="middle"><textPath startOffset="21.40746469413373" xlink:href="#id124">April</textPath></text><line stroke="#e1ed5e" stroke-width="0.3" x1="174.33088141563837" x2="178.70328620479359" y1="141.23008692659167" y2="143.65538615756765" /><path d="M 175.20536237346943 141.71514677278685 a86.0,86.0 0 0,1 -30.301960400862466,31.631185727798858" fill="none" id="id125" stroke="none" /><text fill="#e1ed5e" style="font-size:6.75px; font-family:Arial;" text-anchor="middle"><textPath startOffset="22.145653131862474" xlink:href="#id125">May</textPath></text><line stroke="#e1ed5e" stroke-width="0.3" x1="143.1302829299769" x2="145.66735839644613" y1="173.24464959558577" y2="177.55315839532614" /><path d="M 143.63769802327073 174.10635135553383 a86.0,86.0 0 0,1 -40.68552437913181,11.842963189579606" fill="none" id="id126" stroke="none" /><text fill="#e1ed5e" style="font-size:6.75px; font-family:Arial;" text-anchor="middle"><textPath startOffset="21.407464694133747" xlink:href="#id126">June</textPath></text><line stroke="#e1ed5e" stroke-width="0.3" x1="101.45913802915013" x2="101.54496967792366" y1="184.9874750549273" y2="189.98673829345242" /><path d="M 101.47630435890484 185.9873277026323 a86.0,86.0 0 0,1 -42.54439059252881,-10.42667462771756" fill="none" id="id127" stroke="none" /><text fill="#e1ed5e" style="font-size:6.75px; font-family:Arial;" text-anchor="middle"><textPath startOffset="22.145653131862474" xlink:href="#id127">July</textPath></text><line stroke="#e1ed5e" stroke-width="0.3" x1="58.13341422392154" x2="55.67067388415222" y1="173.97424548756322" y2="178.32567169271397" /><path d="M 57.64086615596768 174.84453072859336 a86.0,86.0 0 0,1 -31.369924170532247,-30.572349798747897" fill="none" id="id128" stroke="none" /><text fill="#e1ed5e" style="font-size:6.75px; font-family:Arial;" text-anchor="middle"><textPath startOffset="22.145653131862474" xlink:href="#id128">August</textPath></text><line stroke="#e1ed5e" stroke-width="0.3" x1="26.387840678322732" x2="22.057713659400548" y1="142.50000000000003" y2="145.00000000000006" /><path d="M 25.521815274538298 143.00000000000003 a86.0,86.0 0 0,1 -11.493303480769221,-40.785679425670985" fill="none" id="id129" stroke="none" /><text fill="#e1ed5e" style="font-size:6.75px; font-family:Arial;" text-anchor="middle"><textPath startOffset="21.40746469413373" xlink:href="#id129">September</textPath></text><line stroke="#e1ed5e" stroke-width="0.3" x1="15.003131293944662" x2="10.003315487706104" y1="100.72959589197737" y2="100.7725132973878" /><path d="M 14.003168132696942 100.73817937305945 a86.0,86.0 0 0,1 10.791469493833604,-42.45332614584628" fill="none" id="id130" stroke="none" /><text fill="#e1ed5e" style="font-size:6.75px; font-family:Arial;" text-anchor="middle"><textPath startOffset="22.145653131862435" xlink:href="#id130">October</textPath></text><line stroke="#e1ed5e" stroke-width="0.3" x1="26.387840678322718" x2="22.05771365940052" y1="57.49999999999999" y2="54.99999999999999" /><path d="M 25.521815274538284 56.99999999999999 a86.0,86.0 0 0,1 29.574782752854787,-30.34633250058573" fill="none" id="id131" stroke="none" /><text fill="#e1ed5e" style="font-size:6.75px; font-family:Arial;" text-anchor="middle"><textPath startOffset="21.40746469413373" xlink:href="#id131">November</textPath></text><line stroke="#e1ed5e" stroke-width="0.3" x1="56.869717070023135" x2="54.33264160355391" y1="26.7553504044142" y2="22.446841604673864" /><path d="M 56.362301976729285 25.89364864446614 a86.0,86.0 0 0,1 42.16139366436587,-11.88097634709845" fill="none" id="id132" stroke="none" /><text fill="#e1ed5e" style="font-size:6.75px; font-family:Arial;" text-anchor="middle"><textPath startOffset="22.145653131862474" xlink:href="#id132">December</textPath></text></svg>