<?xml version="1.0" encoding="utf-8" ?>
<svg baseProfile="full" height="200mm" version="1.1" viewBox="0,0,200,200" width="200mm" xmlns="http://www.w3.org/2000/svg" xmlns:ev="http://www.w3.org/2001/xml-events" xmlns:xlink="http://www.w3.org/1999/xlink"><defs /><rect fill="#1a1a1a" height="200" width="200" x="0" y="0" /><text alignment-baseline="middle" fill="#e1ed5e" style="dominant-baseline: central; font-size:9.0px; font-family:Arial;" text-anchor="middle" x="100.0" y="100.0">2024</text><line stroke="#e1ed5e" stroke-width="0.3" x1="100.0" x2="100.0" y1="15.0" y2="10.0" /><path d="M 100.0 14.0 a86.0,86.0 0 0,1 42.35913384403234,11.155469271406648" fill="none" id="id121" stroke="none" /><text fill="#e1ed5e" style="font-size:6.75px; font-family:Arial;" text-anchor="middle"><textPath startOffset="22.145653131862478" xlink:href="#id121">January</textPath></text><path d="M 100.0 79.0 l 0.0 -13.991067241233317 a34.99106724123332,34.99106724123332 0 0,0 0.6006681987321498,0.005156014061553473 l -0.24017527388329504 13.989005625366199" fill="#ff970d" stroke="none" /><path d="M 100.72087961077811 79.0123766808444 l 0.48560495797369374 -14.13785850991876 a35.146195793275695,35.146195793275695 0 0,0 0.6027978256008172,0.02588673231070671 l -0.7282285441753472 14.127439209182223" fill="#ff990e" stroke="none" /><path d="M 101.08105385017728 79.02784411241856 l 0.7229852461924174 -14.025720629071701 a35.04434216440839,35.04434216440839 0 0,0 0.6005192596983261,0.036125747442581096 l -0.9636488580232059 14.011242903804428" fill="#ff980e" stroke="none" /><path d="M 101.80034050326958 79.07731436759882 l 1.8112690242348157 -21.04969161164092 a42.12747529695251,42.12747529695251 0 0,0 0.719979489407778,0.06818280620676932 l -2.1723480770276065 21.015497049928967" fill="#fff617" stroke="none" /><path d="M 102.51750503828377 79.15144685158666 l 1.675245856111329 -13.873438875660101 a34.97421750636132,34.97421750636132 0 0,0 0.595431353359024,0.0770905096433141 l -1.9131550313611447 13.84263676981639" fill="#ff970d" stroke="none" /><path d="M 103.23170211078529 79.25015418208739 l 2.1446563709264264 -13.770232374020893 a34.93624234088545,34.93624234088545 0 0,0 0.5917908266401339,0.0973789553208135 l -2.3807247006196306 13.73138742020441" fill="#ff960d" stroke="none" /><path d="M 104.29559338865022 79.4440306129975 l 4.247126345432014 -20.324037039936268 a41.763057669687385,41.763057669687385 0 0,0 0.7005008813412581,0.15267090672282446 l -4.595389643392407 20.248134675079726" fill="#fff116" stroke="none" /><path d="M 104.64783097203109 79.52079915486377 l 3.0522826208921647 -13.448920411590093 a34.79093504571336,34.79093504571336 0 0,0 0.5812866880411907,0.13718207561612758 l -3.28270146267324 13.394542192327739" fill="#ff940d" stroke="none" /><path d="M 105.3480935250658 79.69241777938227 l 3.536356580328602 -13.428121942867858 a34.885974102516634,34.885974102516634 0 0,0 0.577809078065044,0.1574844336294683 l -3.766347059328339 13.365437015094248" fill="#ff960d" stroke="none" /><path d="M 106.04205211174951 79.88797359093562 l 4.429841724492921 -14.745502372898207 a36.3965365564209,36.3965365564209 0 0,0 0.5968327759158895,0.18490031961233822 l -4.682315133280441 14.667285465479221" fill="#ffaa0f" stroke="none" /><path d="M 106.72888874123014 80.10723608172694 l 6.789470690712535 -20.071863687210808 a42.189068505670946,42.189068505670946 0 0,0 0.6840540147132506,0.23794949534679916 l -7.133030477470804 19.95235575929542" fill="#fff717" stroke="none" /><path d="M 108.4095320186766 80.7573450057729 l 8.723294748135206 -19.9606055222244 a42.7835177158488,42.7835177158488 0 0,0 0.670451536141642,0.2998844443168959 l -9.064659687132481 19.807917326997654" fill="#fffe18" stroke="none" /><path d="M 109.06512990194946 81.05736502329252 l 6.719863425749356 -14.041930048892404 a36.56702810297172,36.56702810297172 0 0,0 0.5638979650520642,0.2758307519943464 l -6.959921640063487 13.924505546800836" fill="#ffad10" stroke="none" /><path d="M 109.3889696526874 81.21577127319529 l 6.342048064195211 -12.688344497964515 a35.18505057261301,35.18505057261301 0 0,0 0.5379505686427187,0.27468139339852876 l -6.558925854551509 12.577605152893153" fill="#ff9a0e" stroke="none" /><path d="M 110.02825361518725 81.54914285379988 l 6.684626756443064 -12.298960326652548 a34.99816630811078,34.99816630811078 0 0,0 0.5253988253576801,0.29142987178501084 l -6.894769769956845 12.18239753943439" fill="#ff970d" stroke="none" /><line stroke="#e1ed5e" stroke-width="0.3" x1="143.13028292997686" x2="145.6673583964461" y1="26.7553504044142" y2="22.446841604673864" /><path d="M 143.63769802327073 25.89364864446614 a86.0,86.0 0 0,1 29.32050498858742,28.57503671076993" fill="none" id="id122" stroke="none" /><text fill="#e1ed5e" style="font-size:6.75px; font-family:Arial;" text-anchor="middle"><textPath startOffset="20.669276256404974" xlink:href="#id122">February</textPath></text><path d="M 111.27062007382361 82.28071324371311 l 7.398522041505901 -11.631705511095019 a34.78530745016182,34.78530745016182 0 0,0 0.5010978709538721,0.3248055858595772 l -7.59710554471678 11.502986083531546" fill="#ff940d" stroke="none" /><path d="M 111.5731344415666 82.4767994020092 l 6.408706638080496 -9.703598671541748 a32.628901407756615,32.628901407756615 0 0,0 0.4647345488750949,0.3126941449271025 l -6.574337475052592 9.592154852557526" fill="#ff760a" stroke="none" /><path d="M 112.16784306229584 82.88440491214696 l 8.726667089531029 -12.275150131885765 a36.06101023344181,36.06101023344181 0 0,0 0.5014523701554134,0.36301284508844084 l -8.93610047006041 12.123536515424249" fill="#ffa60f" stroke="none" /><path d="M 112.7482090630111 83.31218511350987 l 4.540403251643179 -5.943533605303348 a28.47936183139325,28.47936183139325 0 0,0 0.3859496743023636,0.30011680113325306 l -4.641762870580768 5.864715752549305" fill="#ff3a05" stroke="none" /><path d="M 114.13192950727249 84.46653392183569 l 29.392157060998446 -32.30712935810665 a64.67664712474891,64.67664712474891 0 0,0 0.814834062878134,0.7541982438337889 l -29.942420895190544 31.79781336814049" fill="#34ff5c" stroke="none" /><path d="M 115.41159269507618 85.73525988315684 l 43.90212805658339 -40.63515430845839 a80.82150627967229,80.82150627967229 0 0,0 0.9336896783271967,1.0262885148389653 l -44.59321543575247 39.875528218061746" fill="#49f1ff" stroke="none" /><path d="M 116.7966241395341 87.39550010848427 l 23.03272536310906 -17.28418650848446 a49.79669322878034,49.79669322878034 0 0,0 0.5072101006209474,0.6881279140126375 l -23.326037483313833 16.886252285202946" fill="#aaff21" stroke="none" /><path d="M 117.21940702142032 87.97951657250589 l 11.750992939796086 -8.203105700080497 a35.3309726884755,35.3309726884755 0 0,0 0.3428959448670836,0.5002954311305424 l -11.890078621478496 8.000175533879908" fill="#ff9c0e" stroke="none" /><path d="M 117.62189284568427 88.57770195909679 l 11.834460351822688 -7.670954220157846 a35.103119884146935,35.103119884146935 0 0,0 0.3234206031579939,0.5084709068987 l -11.964398646606572 7.466669638580474" fill="#ff990e" stroke="none" /><line stroke="#e1ed5e" stroke-width="0.3" x1="172.87174338648825" x2="177.1583165268699" y1="56.24261187166439" y2="53.66864786411523" /><path d="M 173.72905801456457 55.72781907015455 a86.0,86.0 0 0,1 12.242430191666344,42.057860355516425" fill="none" id="id123" stroke="none" /><text fill="#e1ed5e" style="font-size:6.75px; font-family:Arial;" text-anchor="middle"><textPath startOffset="22.145653131862474" xlink:href="#id123">March</textPath></text><path d="M 118.18653347947321 89.5 l 35.2413313538714 -20.346592143758457 a61.69318428751691,61.69318428751691 0 0,0 0.5216500540500236,0.921705661963614 l -35.5854147729428 19.738629711695726" fill="#30ff37" stroke="none" /><path d="M 118.70294669586156 90.45014215332178 l 12.316763458612442 -6.2890271823817185 a34.829480286552595,34.829480286552595 0 0,0 0.26732469787507823,0.5348284694659934 l -12.422908069699258 6.076666856751975" fill="#ff950d" stroke="none" /><path d="M 119.31412917781788 91.75594674310238 l 23.656950219860256 -10.097745319643662 a46.72189250901519,46.72189250901519 0 0,0 0.308529475492614,0.740358424970445 l -23.826805539889357 9.69015438523194" fill="#cfff1d" stroke="none" /><path d="M 119.4528033332814 92.08871423366111 l 5.690930641800458 -2.3144519487671786 a27.143564062735535,27.143564062735535 0 0,0 0.17183339869723566,0.4331324146010049 l -5.7298227154638175 2.2164185169526083" fill="#ff2703" stroke="none" /><path d="M 119.71291397450082 92.76114493625339 l 13.221541369869252 -4.855133128446418 a35.08479584126451,35.08479584126451 0 0,0 0.20275642177803943,0.5671457976486421 l -13.302937961691235 4.627452374416859" fill="#ff980e" stroke="none" /><path d="M 119.94978838288452 93.4421083053983 l 13.129831451464032 -4.3160363896865706 a34.82102181681777,34.82102181681777 0 0,0 0.18179107732443547,0.5694579604953819 l -13.201987244565723 4.090009395499802" fill="#ff950d" stroke="none" /><path d="M 120.16314734710363 94.1308016681162 l 11.310339548981618 -3.2922750040537645 a32.779764658751674,32.779764658751674 0 0,0 0.15263118179871724,0.5416342187100419 l -11.365189222854918 3.0976328614407094" fill="#ff780b" stroke="none" /><path d="M 120.43855184770803 95.1765574152323 l 13.680034453852718 -3.228450882306621 a35.05582575866903,35.05582575866903 0 0,0 0.13319400641279844,0.5868773681982817 l -13.733439321823184 2.9931391801693135" fill="#ff980e" stroke="none" /><path d="M 120.592083275326 95.88100663000786 l 13.555856101741933 -2.711550874240455 a34.82438941851423,34.82438941851423 0 0,0 0.11222359766480379,0.5872012841608034 l -13.600405991688893 2.478447025046337" fill="#ff950d" stroke="none" /><path d="M 120.77682067341334 96.94652285012252 l 62.330462020240034 -9.160431449632455 a84.0,84.0 0 0,0 0.19742193377914985,1.4284467671996575 l -62.478528470574396 8.089096374232712" fill="#4dd2ff" stroke="none" /><path d="M 120.86939407059847 97.66154086499901 l 11.519293904036035 -1.2907609088950291 a32.591384549375164,32.591384549375164 0 0,0 0.05752784052168244,0.5565296719973274 l -11.539754137039383 1.0928267146147703" fill="#ff760a" stroke="none" /><path d="M 120.99303781780057 99.45929381324524 l 60.40299760268734 -1.5557669540619103 a81.42302979994966,81.42302979994966 0 0,0 0.02399485663623061,1.3975801048825938 l -60.420803890922244 0.5186399332102503" fill="#4aebff" stroke="none" /><line stroke="#e1ed5e" stroke-width="0.3" x1="184.99686870605535" x2="189.99668451229388" y1="99.2704041080226" y2="99.22748670261217" /><path d="M 185.99683186730306 99.26182062694052 a86.0,86.0 0 0,1 -10.086455211305974,41.156179273409016" fill="none" id="id124" stroke="none" /><text fill="#e1ed5e" style="font-size:6.75px; font-family:Arial;" text-anchor="middle"><textPath startOffset="21.40746469413373" xlink:href="#id124">April</textPath></text><path d="M 120.82617615685814 102.69636545807757 l 15.244109003739974 1.9736551082286986 a36.37134261553438,36.37134261553438 0 0,0 -0.08548215230122784,0.6185062711651346 l -15.207982334883535 -2.2350496875939183" fill="#ffaa0f" stroke="none" /><path d="M 120.77682067341334 103.0534771498775 l 10.187985138652522 1.4972829728455352 a31.297421885412767,31.297421885412767 0 0,0 -0.08268258410103953,0.5308815024124424 l -10.160781062413216 -1.671952657189428" fill="#ff6309" stroke="none" /><path d="M 120.43855184770803 104.8234425847677 l 59.05790267747731 13.937504225552813 a81.68022653797269,81.68022653797269 0 0,0 -0.333770584472987,1.3618978841410507 l -58.80994456648803 -14.949257934301963" fill="#4ae8ff" stroke="none" /><path d="M 119.16976305983485 108.57439118712176 l 12.83012617499068 5.738752245456711 a35.055085022898844,35.055085022898844 0 0,0 -0.250419397107699,0.5472115761860518 l -12.729722313027924 -5.958152803857451" fill="#ff980e" stroke="none" /><path d="M 118.8641267826498 109.22738970284198 l 12.666511088584256 6.195825300391573 a35.10066503077781,35.10066503077781 0 0,0 -0.2694061064755562,0.5389926809472875 l -12.558285068896968 -6.412349837502606" fill="#ff990e" stroke="none" /><path d="M 118.5362547648365 109.86951160357373 l 13.09975766330437 6.974883108924872 a35.84091119913016,35.84091119913016 0 0,0 -0.2938180731882826,0.5405921612471637 l -12.978094240500749 -7.198730103646639" fill="#ffa30f" stroke="none" /><line stroke="#e1ed5e" stroke-width="0.3" x1="174.33088141563837" x2="178.70328620479359" y1="141.23008692659167" y2="143.65538615756765" /><path d="M 175.20536237346943 141.71514677278685 a86.0,86.0 0 0,1 -30.301960400862466,31.631185727798858" fill="none" id="id125" stroke="none" /><text fill="#e1ed5e" style="font-size:6.75px; font-family:Arial;" text-anchor="middle"><textPath startOffset="22.145653131862474" xlink:href="#id125">May</textPath></text><path d="M 118.00360718960297 110.81064883170644 l 3.075044287640636 1.8464757415294903 a24.58683286967879,24.58683286967879 0 0,0 -0.22038236184068585,0.3599780256892845 l -3.0428939613445456 -1.8989908833433318" fill="#ff0000" stroke="none" /><path d="M 117.81537515405839 111.11811171558189 l 12.00811828223896 7.4939539247053535 a35.154654715175795,35.154654715175795 0 0,0 -0.32389541639938124,0.509217392178544 l -11.877705174213691 -7.69898499156257" fill="#ff990e" stroke="none" /><path d="M 117.423217284605 111.72311816256416 l 12.719150078588177 8.558011810506832 a36.3302428183778,36.3302428183778 0 0,0 -0.3525941119227094,0.5144453466979306 l -12.570366229850146 -8.775091892274807" fill="#ffa90f" stroke="none" /><path d="M 117.21940702142032 112.02048342749411 l 11.149146150886333 7.782969899644351 a34.59698791470352,34.59698791470352 0 0,0 -0.34413278151061844,0.48406585412361725 l -11.013898270845754 -7.973212980477472" fill="#ff920d" stroke="none" /><path d="M 117.01052211995028 112.31430620078461 l 6.699723698059176 4.850083289436082 a29.27100994708644,29.27100994708644 0 0,0 -0.29814332916302233,0.40448868609392463 l -6.615478349312325 -4.964378284798884" fill="#ff4606" stroke="none" /><path d="M 116.79662413953412 112.60449989151573 l 11.237141747570684 8.432560659902355 a35.04925029807387,35.04925029807387 0 0,0 -0.36525995823559637,0.4781370103325768 l -11.090729811980783 -8.624218583475809" fill="#ff980e" stroke="none" /><path d="M 116.35404254752997 113.17365903436017 l 13.941000626608403 11.229883273140848 a38.90144622089133,38.90144622089133 0 0,0 -0.4233832985715326,0.5164587830958709 l -13.746170508798244 -11.46754433793521" fill="#ffcc13" stroke="none" /><path d="M 116.1254893667686 113.45245675266167 l 10.749643130125698 8.967734623457257 a34.99911038965736,34.99911038965736 0 0,0 -0.38883251077722353,0.4580437199901277 l -10.594116055841358 -9.150945125896941" fill="#ff970d" stroke="none" /><line stroke="#e1ed5e" stroke-width="0.3" x1="143.1302829299769" x2="145.66735839644613" y1="173.24464959558577" y2="177.55315839532614" /><path d="M 143.63769802327073 174.10635135553383 a86.0,86.0 0 0,1 -40.68552437913181,11.842963189579606" fill="none" id="id126" stroke="none" /><text fill="#e1ed5e" style="font-size:6.75px; font-family:Arial;" text-anchor="middle"><textPath startOffset="21.407464694133747" xlink:href="#id126">June</textPath></text><line stroke="#e1ed5e" stroke-width="0.3" x1="101.45913802915013" x2="101.54496967792366" y1="184.9874750549273" y2="189.98673829345242" /><path d="M 101.47630435890484 185.9873277026323 a86.0,86.0 0 0,1 -42.54439059252881,-10.42667462771756" fill="none" id="id127" stroke="none" /><text fill="#e1ed5e" style="font-size:6.75px; font-family:Arial;" text-anchor="middle"><textPath startOffset="22.145653131862474" xlink:href="#id127">July</textPath></text><line stroke="#e1ed5e" stroke-width="0.3" x1="58.13341422392154" x2="55.67067388415222" y1="173.97424548756322" y2="178.32567169271397" /><path d="M 57.64086615596768 174.84453072859336 a86.0,86.0 0 0,1 -31.369924170532247,-30.572349798747897" fill="none" id="id128" stroke="none" /><text fill="#e1ed5e" style="font-size:6.75px; font-family:Arial;" text-anchor="middle"><textPath startOffset="22.145653131862474" xlink:href="#id128">August</textPath></text><line stroke="#e1ed5e" stroke-width="0.3" x1="26.387840678322732" x2="22.057713659400548" y1="142.50000000000003" y2="145.00000000000006" /><path d="M 25.521815274538298 143.00000000000003 a86.0,86.0 0 0,1 -11.493303480769221,-40.785679425670985" fill="none" id="id129" stroke="none" /><text fill="#e1ed5e" style="font-size:6.75px; font-family:Arial;" text-anchor="middle"><textPath startOffset="21.40746469413373" xlink:href="#id129">September</textPath></text><line stroke="#e1ed5e" stroke-width="0.3" x1="15.003131293944662" x2="10.003315487706104" y1="100.72959589197737" y2="100.7725132973878" /><path d="M 14.003168132696942 100.73817937305945 a86.0,86.0 0 0,1 10.791469493833604,-42.45332614584628" fill="none" id="id130" stroke="none" /><text fill="#e1ed5e" style="font-size:6.75px; font-family:Arial;" text-anchor="middle"><textPath startOffset="22.145653131862435" xlink:href="#id130">October</textPath></text><line stroke="#e1ed5e" stroke-width="0.3" x1="26.387840678322718" x2="22.05771365940052" y1="57.49999999999999" y2="54.99999999999999" /><path d="M 25.521815274538284 56.99999999999999 a86.0,86.0 0 0,1 29.574782752854787,-30.34633250058573" fill="none" id="id131" stroke="none" /><text fill="#e1ed5e" style="font-size:6.75px; font-family:Arial;" text-anchor="middle"><textPath startOffset="21.40746469413373" xlink:href="#id131">November</textPath></text><line stroke="#e1ed5e" stroke-width="0.3" x1="56.869717070023135" x2="54.33264160355391" y1="26.7553504044142" y2="22.446841604673864" /><path d="M 56.362301976729285 25.89364864446614 a86.0,86.0 0 0,1 42.16139366436587,-11.88097634709845" fill="none" id="id132" stroke="none" /><text fill="#e1ed5e" style="font-size:6.75px; font-family:Arial;" text-anchor="middle"><textPath startOffset="22.145653131862474" xlink:href="#id132">December</textPath></text></svg>