<?xml version="1.0" encoding="utf-8" ?>
<svg baseProfile="full" height="200mm" version="1.1" viewBox="0,0,200,200" width="200mm" xmlns="http://www.w3.org/2000/svg" xmlns:ev="http://www.w3.org/2001/xml-events" xmlns:xlink="http://www.w3.org/1999/xlink"><defs /><rect fill="#1a1a1a" height="200" width="200" x="0" y="0" /><text alignment-baseline="middle" fill="#e1ed5e" style="dominant-baseline: central; font-size:9.0px; font-family:Arial;" text-anchor="middle" x="100.0" y="100.0">2021</text><line stroke="#e1ed5e" stroke-width="0.3" x1="100.0" x2="100.0" y1="15.0" y2="10.0" /><path d="M 100.0 14.0 a86.0,86.0 0 0,1 42.46469731375804,11.215312516191453" fill="none" id="id85" stroke="none" /><text fill="#e1ed5e" style="font-size:6.75px; font-family:Arial;" text-anchor="middle"><textPath startOffset="22.20632615414155" xlink:href="#id85">January</textPath></text><path d="M 100.0 79.0 l 0.0 -6.843271836839477 a27.843271836839477,27.843271836839477 0 0,0 0.4792761546712393,0.0041252811761375375 l -0.11779567539871094 6.842257932271899" fill="#ff5207" stroke="none" /><path d="M 100.72285384407766 79.0124445844662 l 0.2376937649681597 -6.9012720967977055 a27.90536421052093,27.90536421052093 0 0,0 0.4799180052449656,0.020666278840189015 l -0.3564526026024568 6.896158091433322" fill="#ff5307" stroke="none" /><path d="M 101.44485096284872 79.0497635885617 l 0.4785919510986452 -6.939549322346245 a27.95603299682604,27.95603299682604 0 0,0 0.47979183612220067,0.037241080635087756 l -0.5979739765831871 6.930282979522693" fill="#ff5407" stroke="none" /><path d="M 102.52436894288641 79.15227682838746 l 0.5569360854464633 -4.599505696815211 a25.633101602415817,25.633101602415817 0 0,0 0.43757568510133327,0.056809882432404125 l -0.6360264990556428 4.58923749121867" fill="#ff3304" stroke="none" /><path d="M 103.2404852339499 79.25152402106235 l 1.2772002799619213 -8.177775060181629 a29.276910383111773,29.276910383111773 0 0,0 0.49724851753073734,0.08205026598227774 l -1.4177780036315337 8.154578531259727" fill="#ff6609" stroke="none" /><path d="M 103.59715602781102 79.31037775812273 l 0.8844465824121016 -5.087036965244216 a26.163350737931864,26.163350737931864 0 0,0 0.4430388176525995,0.08096251209315725 l -0.9718805211676019 5.07105897180032" fill="#ff3b05" stroke="none" /><path d="M 104.307194497241 79.44645832069477 l 1.5408872586513827 -7.35297431172156 a28.512693576388653,28.512693576388653 0 0,0 0.47949834240393424,0.10479976557265631 l -1.667228325208845 7.325361048053034" fill="#ff5b08" stroke="none" /><path d="M 105.36241919743992 79.69619591428918 l 2.2756864183885064 -8.616463856748084 a29.91191326649244,29.91191326649244 0 0,0 0.49668320444681907,0.13576228209206062 l -2.423667512059036 8.576015033829728" fill="#ff6e0a" stroke="none" /><path d="M 105.71112130821622 79.79150937346287 l 2.524623016754564 -8.933240569803173 a30.283130315508032,30.283130315508032 0 0,0 0.5004067836875012,0.1460824622158873 l -2.6780200181654923 8.888459778668583" fill="#ff740a" stroke="none" /><path d="M 106.40334571778207 80.00007090966166 l 2.1085501313174846 -6.585752974833918 a27.915065140822087,27.915065140822087 0 0,0 0.456367684812672,0.1504572504928796 l -2.2216006383725744 6.548482000081802" fill="#ff5307" stroke="none" /><path d="M 107.08798089147638 80.2323363322302 l 2.354247164045226 -6.565757843056673 a27.975073889434807,27.975073889434807 0 0,0 0.45188759529116185,0.1664340149820283 l -2.466917085108964 6.524260560268321" fill="#ff5407" stroke="none" /><path d="M 107.76421540070413 80.48803036053334 l 2.7932566664519745 -7.019632565333775 a28.55496685346619,28.55496685346619 0 0,0 0.45513371472495534,0.18566046996331145 l -2.9136742507653173 6.970511209186884" fill="#ff5c08" stroke="none" /><path d="M 108.09893153111575 80.62456947434976 l 3.2379634372649595 -7.7463225096162684 a29.39582751395313,29.39582751395313 0 0,0 0.46517671124195065,0.19916439117188725 l -3.3708239062972254 7.68943859048159" fill="#ff6709" stroke="none" /><path d="M 108.43124777332544 80.76684994638697 l 0.4392285074270443 -1.0019570078222109 a22.094001612092335,22.094001612092335 0 0,0 0.3469998479186589,0.15568871695831663 l -0.4564104738124834 0.994247960347363" fill="#ff0000" stroke="none" /><path d="M 109.08828744355905 81.06846463323043 l 0.6084595932884881 -1.2674636867647602 a22.405947109222858,22.405947109222858 0 0,0 0.34625588698987486,0.16990625997312467 l -0.6301867472887948 1.2568022666568035" fill="#ff0500" stroke="none" /><path d="M 109.41281617654863 81.2277094730956 l 5.32374799454824 -10.617326650304202 a32.877285797214626,32.877285797214626 0 0,0 0.5037105667524269,0.2580201165151493 l -5.505719048889422 10.524114008476552" fill="#ff960d" stroke="none" /><path d="M 110.05341064243156 81.56283822128135 l 4.892445326734782 -8.972358654269435 a31.219551902893425,31.219551902893425 0 0,0 0.4695954474328258,0.26132935807616425 l -5.0461648632396425 8.88681389863309" fill="#ff800b" stroke="none" /><path d="M 110.36928655335952 81.73862282372117 l 8.115115295253233 -14.291550385170508 a37.43482609178206,37.43482609178206 0 0,0 0.55760647243341,0.323001659840829 l -8.359918500151972 14.14974456793963" fill="#ffd113" stroke="none" /><line stroke="#e1ed5e" stroke-width="0.3" x1="143.23703022742887" x2="145.7803849466894" y1="26.81831364943548" y2="22.513508569990506" /><path d="M 143.74570117128098 25.957352633546492 a86.0,86.0 0 0,1 28.547481713284135,27.462654790039103" fill="none" id="id86" stroke="none" /><text fill="#e1ed5e" style="font-size:6.75px; font-family:Arial;" text-anchor="middle"><textPath startOffset="19.985693538727396" xlink:href="#id86">February</textPath></text><path d="M 110.99172775467656 82.1063720568725 l 3.688103837555116 -6.0039294420073555 a28.04622442597392,28.04622442597392 0 0,0 0.4091821910660774,0.2562298505071313 l -3.7909051809934566 5.939555250177279" fill="#ff5507" stroke="none" /><path d="M 111.2981086023043 82.29822771554956 l 4.0436671484000986 -6.335580367893842 a28.516037693166,28.516037693166 0 0,0 0.4114904626194127,0.2676448432395461 l -4.152124636803792 6.265036600494768" fill="#ff5b08" stroke="none" /><path d="M 111.90073688211348 82.69761687909136 l 3.496770811254362 -5.083926219162721 a27.17038993162755,27.17038993162755 0 0,0 0.38306220876784824,0.26835955713493853 l -3.5837641596058614 5.022981819263847" fill="#ff4906" stroke="none" /><path d="M 112.48926042617603 83.11751280151076 l 7.2448612005978905 -9.793316201300053 a33.18183303261766,33.18183303261766 0 0,0 0.4562562815959757,0.34364277211339145 l -7.412363635952249 9.667156839680814" fill="#ff9a0e" stroke="none" /><path d="M 113.34407831869373 83.78471172551755 l 2.5206651117539445 -3.063029941398147 a24.966850769504074,24.966850769504074 0 0,0 0.32949402460164356,0.275941769863006 l -2.5730166733147053 3.0191870141413215" fill="#ff2a04" stroke="none" /><path d="M 114.42810811169701 84.74124197986012 l 2.692550392728194 -2.8475649462568224 a24.91898631543048,24.91898631543048 0 0,0 0.3091339755886898,0.2973866395897917 l -2.7411676119293023 2.8007952199047286" fill="#ff2904" stroke="none" /><path d="M 115.4437574822437 85.77008943001954 l 5.133117340714506 -4.729665095270031 a27.979872889025962,27.979872889025962 0 0,0 0.32330924244176784,0.3570061406269913 l -5.213770223772309 4.64060616737349" fill="#ff5407" stroke="none" /><path d="M 116.15771136456269 86.58626213691792 l 22.04253500091868 -18.299174905959028 a49.64844064701612,49.64844064701612 0 0,0 0.5402258835189571,0.6622530561667542 l -22.354259376514044 17.917037680184173" fill="#9cff22" stroke="none" /><path d="M 116.82858285166822 87.43820079747576 l 5.594332752014483 -4.175924100224784 a27.981038678527725,27.981038678527725 0 0,0 0.28479019553827084,0.3884535066605424 l -5.6653855600663805 4.079008149892748" fill="#ff5407" stroke="none" /><path d="M 117.2510076193507 88.02491185347247 l 3.3432529841216083 -2.320777433086796 a25.069809382485005,25.069809382485005 0 0,0 0.24302856383916124,0.3566144292842872 l -3.382706013629503 2.262884980532102" fill="#ff2b04" stroke="none" /><path d="M 117.45458315368197 88.32363383020206 l 10.131682479695893 -6.77766025733479 a33.18965415560393,33.18965415560393 0 0,0 0.31356852646565,0.4775863785072302 l -10.246847641519468 6.602255814849886" fill="#ff9a0e" stroke="none" /><line stroke="#e1ed5e" stroke-width="0.3" x1="172.23445277983987" x2="176.4835382374775" y1="55.19839476539836" y2="52.563006222186495" /><path d="M 173.08426987136738 54.67131705675599 a86.0,86.0 0 0,1 12.851231095245387,41.99856678651699" fill="none" id="id87" stroke="none" /><text fill="#e1ed5e" style="font-size:6.75px; font-family:Arial;" text-anchor="middle"><textPath startOffset="22.20632615414155" xlink:href="#id87">March</textPath></text><path d="M 118.21658344932153 89.55222093294921 l 5.990276776382159 -3.435610661254758 a27.905565615747257,27.905565615747257 0 0,0 0.23539322448772612,0.41873828048183703 l -6.048527642162318 3.331988870838127" fill="#ff5307" stroke="none" /><path d="M 118.56541770881063 90.18545643968196 l 6.202456820546457 -3.2789072457742616 a28.0158180803905,28.0158180803905 0 0,0 0.2217126041553885,0.4282781815236749 l -6.257978857861962 3.171656341990242" fill="#ff5407" stroke="none" /><path d="M 118.89224826269711 90.83032412892265 l 9.416665494279684 -4.570539682108526 a31.46725475073987,31.46725475073987 0 0,0 0.23232095292363272,0.48932717608692106 l -9.493944641045074 4.407770090381065" fill="#ff840c" stroke="none" /><path d="M 119.196687751892 91.48605970444005 l 6.367413657518673 -2.824017373096247 a27.965560337080195,27.965560337080195 0 0,0 0.1913767059473084,0.4417238231392607 l -6.415081073308662 2.713994405370383" fill="#ff5407" stroke="none" /><path d="M 119.7369772167798 92.82701384747503 l 13.040365515193828 -4.7392445275169015 a34.874853925770005,34.874853925770005 0 0,0 0.20019315228378537,0.5659729998060722 l -13.120011748287423 4.514073901284215" fill="#ffb010" stroke="none" /><path d="M 119.85752413597 93.16781622104841 l 15.76890537000378 -5.425452777650604 a37.676148068743295,37.676148068743295 0 0,0 0.20571662370560023,0.6150665207736531 l -15.85995928748115 5.1532131539546375" fill="#ffd413" stroke="none" /><path d="M 120.08093135843002 93.85539295169968 l 6.65708953419293 -2.037017035855563 a27.961772724717953,27.961772724717953 0 0,0 0.1368716829716121,0.46146327242188834 l -6.6911671142762446 1.922124376687145" fill="#ff5407" stroke="none" /><path d="M 120.18372546131832 94.20196356495316 l 10.023527244750444 -2.8793879645324827 a31.428900875765812,31.428900875765812 0 0,0 0.14489206625393083,0.521253853380735 l -10.071606081570737 2.7064228077327956" fill="#ff830c" stroke="none" /><path d="M 120.28053869075195 94.5502522615342 l 6.52986205615784 -1.7546920974671785 a27.76151187452656,27.76151187452656 0 0,0 0.1200403386206267,0.4625643922411846 l -6.559098726648769 1.6420312796771432" fill="#ff5107" stroke="none" /><path d="M 120.45610955862082 95.25157060432595 l 9.261321663519656 -2.14980917577832 a30.50756322342582,30.50756322342582 0 0,0 0.11433887926542016,0.512558776145681 l -9.296954929787114 1.9900722300826752" fill="#ff770a" stroke="none" /><path d="M 120.6074358757038 95.95851677861258 l 6.756301099677496 -1.3250303287456178 a27.88500616714314,27.88500616714314 0 0,0 0.08832147614174453,0.47181685720369493 l -6.7781082997291 1.2085353940793602" fill="#ff5307" stroke="none" /><path d="M 120.83666639777658 97.38593545837742 l 19.477408305946515 -2.4435387812665117 a40.630087011832316,40.630087011832316 0 0,0 0.0810853620999695,0.6946898644764031 l -19.516584021050075 2.1079051784652556" fill="#fff917" stroke="none" /><path d="M 120.87857604477298 97.74499172005257 l 62.63572813431897 -6.7650248398422885 a84.0,84.0 0 0,0 0.1428914972710853,1.43889787718226 l -62.74289675727228 5.6858514319555935" fill="#4dd2ff" stroke="none" /><path d="M 120.96714384426684 98.82574320788733 l 7.094999079252732 -0.39735268287977776 a28.10611715982708,28.10611715982708 0 0,0 0.022894964341488067,0.4832765115412513 l -7.100787651827717 0.2751650647155267" fill="#ff5607" stroke="none" /><line stroke="#e1ed5e" stroke-width="0.3" x1="184.98032266829074" x2="189.97916517819016" y1="98.17113171792111" y2="98.06355123074" /><path d="M 185.9800911702706 98.14961562048488 a86.0,86.0 0 0,1 -9.607161424134198,41.387399972396054" fill="none" id="id88" stroke="none" /><text fill="#e1ed5e" style="font-size:6.75px; font-family:Arial;" text-anchor="middle"><textPath startOffset="21.466115282336823" xlink:href="#id88">April</textPath></text><path d="M 120.99513854157772 99.54816195383933 l 6.894102795622085 -0.1483685345079221 a27.89569913631941,27.89569913631941 0 0,0 0.006199477586454816,0.48015637113493015 l -6.895635280326256 0.02967590531252925" fill="#ff5307" stroke="none" /><path d="M 120.9904718944345 100.63252640178507 l 10.407257533961303 0.31361206139212694 a31.411981651119298,31.411981651119298 0 0,0 -0.020938130763467185,0.540320118512516 l -10.400317270346633 -0.49270942691864916" fill="#ff830c" stroke="none" /><path d="M 120.81339534386255 102.79330883721812 l 29.94538585882764 4.018888296283447 a51.213864323718646,51.213864323718646 0 0,0 -0.12478123663000423,0.8727196783630328 l -29.871770571181035 -4.533753446626889" fill="#8bff24" stroke="none" /><path d="M 120.76222939487914 103.15116336523771 l 29.328705394599602 4.451330357235447 a50.66457992408559,50.66457992408559 0 0,0 -0.13828594463194632,0.861106709227372 l -29.247737695606368 -4.9555162961560235" fill="#91ff24" stroke="none" /><path d="M 120.32669344350535 105.2749913415812 l 29.435289036466457 7.63876796960855 a51.41031102691717,51.41031102691717 0 0,0 -0.22966191301441152,0.8546574146553274 l -29.29943904711027 -8.144316317439426" fill="#89ff24" stroke="none" /><path d="M 118.97047184881838 109.00673069616215 l 3.113619223264948 1.4782726575189398 a24.446725216412403,24.446725216412403 0 0,0 -0.18375409342122104,0.3785878586123574 l -3.087711873229013 -1.5316494720965725" fill="#ff2203" stroke="none" /><line stroke="#e1ed5e" stroke-width="0.3" x1="174.80103733775053" x2="179.2010983576182" y1="140.37084112569926" y2="142.7455964860345" /><path d="M 175.68104954172406 140.8457921977663 a86.0,86.0 0 0,1 -30.038265399797805,32.042727171017184" fill="none" id="id89" stroke="none" /><text fill="#e1ed5e" style="font-size:6.75px; font-family:Arial;" text-anchor="middle"><textPath startOffset="22.206326154141568" xlink:href="#id89">May</textPath></text><path d="M 118.48025628344425 109.97397251340804 l 6.126021931617657 3.306273107112006 a27.961292018402375,27.961292018402375 0 0,0 -0.23224328334402808,0.42158901889115885 l -6.06820223882212 -3.41123264440097" fill="#ff5407" stroke="none" /><path d="M 117.94076556474637 110.91462005526583 l 26.31213007376752 16.00750545251139 a51.79883796234921,51.79883796234921 0 0,0 -0.4699766788541433,0.7577520501452104 l -26.032688755245413 -16.45805383402187" fill="#85ff25" stroke="none" /><path d="M 115.07121518719521 114.62390073753431 l 2.6335383262099077 2.5553747718834923 a24.66953189663138,24.66953189663138 0 0,0 -0.2983361381257635,0.30221293283122025 l -2.589161563028609 -2.600328198695377" fill="#ff2503" stroke="none" /><path d="M 114.81725581225074 114.88116024355365 l 2.7633700313860032 2.775288000041794 a24.916431719504153,24.916431719504153 0 0,0 -0.3065314914932938,0.3000055807530185 l -2.715188587516915 -2.8224436837173843" fill="#ff2904" stroke="none" /><path d="M 113.75828350139079 115.86535959552629 l 5.277438171750794 6.085675900596121 a29.055234622514032,29.055234622514032 0 0,0 -0.3806713395622607,0.3244163740633012 l -5.171901355611486 -6.175616664882369" fill="#ff6309" stroke="none" /><line stroke="#e1ed5e" stroke-width="0.3" x1="143.8653032363475" x2="146.44561519142675" y1="172.8068346515853" y2="177.08958963109032" /><path d="M 144.38136562736335 173.6633856474863 a86.0,86.0 0 0,1 -40.68145358897372,12.25698825130547" fill="none" id="id90" stroke="none" /><text fill="#e1ed5e" style="font-size:6.75px; font-family:Arial;" text-anchor="middle"><textPath startOffset="21.466115282336833" xlink:href="#id90">June</textPath></text><path d="M 109.89434966115114 118.52300852407294 l 1.6384156547265878 3.0672442533170274 a24.477411848941607,24.477411848941607 0 0,0 -0.373349414181988,0.19531876791698188 l -1.5853753380181042 -3.0949924401787263" fill="#ff2303" stroke="none" /><path d="M 109.2508944713604 118.85261126421891 l 2.843775489697549 5.795395677246075 a27.45551470385182,27.45551470385182 0 0,0 -0.42606687788184044,0.20453799342481263 l -2.743595943815476 -5.843487947170448" fill="#ff4d07" stroke="none" /><path d="M 108.59647513512805 119.15986991738527 l 1.7223500862359227 3.838783115841123 a25.207463087184934,25.207463087184934 0 0,0 -0.3974128510711792,0.17421411502248255 l -1.6560165605069896 -3.8678617841580603" fill="#ff2d04" stroke="none" /><path d="M 107.93186726928326 119.44442032107085 l 2.5996896276825985 6.372958107953356 a27.882803295606298,27.882803295606298 0 0,0 -0.44596409370783563,0.17745831653631633 l -2.4896044579328964 -6.416763268895742" fill="#ff5307" stroke="none" /><path d="M 107.2578585660854 119.70592522655815 l 2.391570766528313 6.493391166293875 a27.919807769715582,27.919807769715582 0 0,0 -0.4524078311910554,0.1622173523654583 l -2.279443374707523 -6.533596059699293" fill="#ff5307" stroke="none" /><path d="M 105.88484417918355 120.15858648285463 l 1.945294598735694 6.6636240840422705 a27.94176180874124,27.94176180874124 0 0,0 -0.46286038292886444,0.13080896760309696 l -1.8303030477022237 -6.696121844983887" fill="#ff5307" stroke="none" /><path d="M 104.13013068566511 120.58985236759428 l 1.3761810681935727 6.860646110674048 a27.99730943923172,27.99730943923172 0 0,0 -0.47333102646593217,0.09071501775953357 l -1.2578824271559361 -6.8833183267820495" fill="#ff5407" stroke="none" /><path d="M 103.41894727170886 120.7198165907248 l 1.1242914433752451 6.8135337137308225 a27.905669621245526,27.905669621245526 0 0,0 -0.4746144947951522,0.07412502314692977 l -1.0068410849715759 -6.831877044224858" fill="#ff5307" stroke="none" /><path d="M 103.06178313531738 120.77559828337769 l 0.20031118446246138 1.3592029598883675 a22.37388400412482,22.37388400412482 0 0,0 -0.3814975317133054,0.05287208168203825 l -0.17688506156232553 -1.3624496070630083" fill="#ff0400" stroke="none" /><path d="M 102.34483914955558 120.86867818915974 l 1.7084521937890613 15.204940194087577 a36.300621399284495,36.300621399284495 0 0,0 -0.6215485799116105,0.06442605166665448 l -1.4464710172718482 -15.232095614209989" fill="#ffc312" stroke="none" /><path d="M 101.62511606390274 120.93702456842531 l 0.537944185013583 6.930551526900074 a27.95139758704729,27.95139758704729 0 0,0 -0.4800149932458668,0.03310464433682754 l -0.4185664309887859 -6.938784515753187" fill="#ff5407" stroke="none" /><path d="M 100.90346689309514 120.98055641714683 l 0.3487888168044018 8.099669732849879 a29.107176044713242,29.107176044713242 0 0,0 -0.5007538250084755,0.017246974227216244 l -0.20931464012127404 -8.10447350550319" fill="#ff6309" stroke="none" /><line stroke="#e1ed5e" stroke-width="0.3" x1="102.19456741930631" x2="102.32365962044197" y1="184.97166512339345" y2="189.96999836594603" /><path d="M 102.22038585953345 185.97133177190398 a86.0,86.0 0 0,1 -42.740103519485714,-10.115201625700543" fill="none" id="id91" stroke="none" /><text fill="#e1ed5e" style="font-size:6.75px; font-family:Arial;" text-anchor="middle"><textPath startOffset="22.20632615414155" xlink:href="#id91">July</textPath></text><path d="M 100.18074693466247 120.99922214144158 l 0.07147472801166349 8.30395101205413 a29.30425860913177,29.30425860913177 0 0,0 -0.5044433253482321,0.0 l 0.07147472801165777 -8.30395101205413" fill="#ff6609" stroke="none" /><path d="M 99.81925306533755 120.99922214144158 l -0.0715343507794995 8.310877999496181 a29.311185853165064,29.311185853165064 0 0,0 -0.5044878144943631,-0.008685215235528265 l 0.21458185516653053 -8.308415306981493" fill="#ff6609" stroke="none" /><line stroke="#e1ed5e" stroke-width="0.3" x1="58.666819895761336" x2="56.23545636021788" y1="174.27360380694188" y2="178.64263932499728" /><path d="M 58.180547188652646 175.14741091055294 a86.0,86.0 0 0,1 -31.652253787137756,-30.449443065178592" fill="none" id="id92" stroke="none" /><text fill="#e1ed5e" style="font-size:6.75px; font-family:Arial;" text-anchor="middle"><textPath startOffset="22.20632615414155" xlink:href="#id92">August</textPath></text><path d="M 89.4739219176387 118.17145234162733 l -1.2717172475538054 2.195399765718391 a23.537133202857547,23.537133202857547 0 0,0 -0.3488339084101862,-0.20609722178350656 l 1.3093190269923738 -2.173183971641135" fill="#ff1502" stroke="none" /><path d="M 89.1626897886671 117.98757091392108 l -1.0709840704794444 1.7775999339101214 a23.075299593855785,23.075299593855785 0 0,0 -0.33846058298576814,-0.20791013402609318 l 1.1014238533975211 -1.75890133305565" fill="#ff0e01" stroke="none" /><path d="M 85.70375840098266 115.38237550388516 l -8.351907581246294 8.98643029349101 a33.26826351467282,33.26826351467282 0 0,0 -0.4161133655879982,-0.3934611596501815 l 8.505356781225109 -8.841334497094897" fill="#ff9b0e" stroke="none" /><path d="M 85.18274418774928 114.88116024355367 l -1.9408432061354326 1.9492137494335853 a23.750692020525562,23.750692020525562 0 0,0 -0.2872243285729146,-0.29095672841989406 l 1.9741081597638803 -1.9155165270330266" fill="#ff1802" stroke="none" /><line stroke="#e1ed5e" stroke-width="0.3" x1="26.63291911575756" x2="22.317208475507996" y1="142.92168965132927" y2="145.44649492493687" /><path d="M 25.769776987707644 143.4266507060508 a86.0,86.0 0 0,1 -11.730757126820373,-40.83630448921669" fill="none" id="id93" stroke="none" /><text fill="#e1ed5e" style="font-size:6.75px; font-family:Arial;" text-anchor="middle"><textPath startOffset="21.46611528233685" xlink:href="#id93">September</textPath></text><path d="M 81.87401531095188 110.60418214915194 l -5.494516336738206 3.2144378943157275 a27.36571447294771,27.36571447294771 0 0,0 -0.2343651962773165,-0.40863547441069065 l 5.549033529167899 -3.11938257404673" fill="#ff4b07" stroke="none" /><path d="M 81.69416730710424 110.29060199501025 l -4.270222918806187 2.4005007160618907 a25.898694465274527,25.898694465274527 0 0,0 -0.21511158472149136,-0.3904900096530027 l 4.310910912979195 -2.3266401880110656" fill="#ff3705" stroke="none" /><path d="M 81.51974371655577 109.97397251340807 l -4.122149120024625 2.2247636282039838 a25.684195402531703,25.684195402531703 0 0,0 -0.20663239959617352,-0.3908706285830039 l 4.159834027845684 -2.1534779845348537" fill="#ff3404" stroke="none" /><path d="M 81.18737489456691 109.33194174019688 l -3.9850020976141463 1.9767473811380922 a25.44834485250699,25.44834485250699 0 0,0 -0.19128277902446708,-0.3940991808780605 l 4.0184381332533325 -1.9078592442947468" fill="#ff3004" stroke="none" /><path d="M 80.73074385275274 108.34839909993369 l -6.354395977865341 2.7530400372933785 a27.92514098704507,27.92514098704507 0 0,0 -0.18729660514722862,-0.4427138480453033 l 6.400843564204876 -2.6432516635819163" fill="#ff5307" stroke="none" /><path d="M 80.45479744820244 107.68017299344265 l -3.5840196533399773 1.4083195544585363 a24.850787042021086,24.850787042021086 0 0,0 -0.1530166152922298,-0.399478097668298 l 3.6077305482257165 -1.3464178899570804" fill="#ff2803" stroke="none" /><path d="M 80.0844068197444 106.66101706037122 l -3.1110433464330893 1.0405270191344225 a24.280440089520667,24.280440089520667 0 0,0 -0.12915777651119864,-0.39750676246667843 l 3.1284933739605374 -0.9868213566899405" fill="#ff2003" stroke="none" /><path d="M 79.97269907076064 106.31721596034903 l -6.616186417394135 2.0869451445444533 a27.93752569336131,27.93752569336131 0 0,0 -0.14071629813236827,-0.4598690040871025 l 6.651129488032634 -1.9727491679053029" fill="#ff5307" stroke="none" /><path d="M 79.67330655649465 105.27499134158121 l -5.49472565108945 1.4259392613175859 a26.676734339187217,26.676734339187217 0 0,0 -0.11151978316843457,-0.44546609850212243 l 5.518456748552943 -1.3311453234180717" fill="#ff4206" stroke="none" /><path d="M 79.04373962182676 101.35467743843564 l -4.3327065628641845 0.28007954292204607 a25.341749729112653,25.341749729112653 0 0,0 -0.02439282080572731,-0.43555020165645325 l 4.336885734557443 -0.2054576249301552" fill="#ff2f04" stroke="none" /><line stroke="#e1ed5e" stroke-width="0.3" x1="15.007084014347285" x2="10.007500721073583" y1="101.09737516637583" y2="101.16192664675087" /><path d="M 14.007167355692545 101.11028546245083 a86.0,86.0 0 0,1 10.666146001902534,-42.60595125391555" fill="none" id="id94" stroke="none" /><text fill="#e1ed5e" style="font-size:6.75px; font-family:Arial;" text-anchor="middle"><textPath startOffset="22.20632615414155" xlink:href="#id94">October</textPath></text><path d="M 79.00175016825051 100.2711162175752 l -8.321271688291809 0.10743903533018143 a29.32196525207114,29.32196525207114 0 0,0 -0.0021722028961783588,-0.5047434532888045 l 8.321888188477491 0.03581389616229852" fill="#ff6609" stroke="none" /><path d="M 79.00019446554 99.90962569577889 l -2.664282928738583 -0.01146594979357506 a23.66430760092984,23.66430760092984 0 0,0 0.005259102625606159,-0.4073232940876245 l 2.6636908189952613 0.05732550194167154" fill="#ff1702" stroke="none" /><path d="M 79.00486145842228 99.54816195383935 l -3.584116306476929 -0.07713405205324068 a24.584946214427767,24.584946214427767 0 0,0 0.012747066960677227,-0.4230130948201727 l 3.5822575450606067 0.1388172942984078" fill="#ff2403" stroke="none" /><path d="M 79.03285615573316 98.82574320788736 l -13.652416948953418 -0.7645983377676829 a34.67381070390356,34.67381070390356 0 0,0 0.0385034653923754,-0.5956315675828623 l 13.637232892556629 0.999488969603557" fill="#ffae10" stroke="none" /><path d="M 79.08570108090925 98.10471618934814 l -6.982552809474306 -0.6327689657690717 a28.01116540249465,28.01116540249465 0 0,0 0.04764949243655337,-0.47982388613156246 l 6.9706261913555245 0.7528683826050645" fill="#ff5407" stroke="none" /><path d="M 79.21141760316559 97.0276538004421 l -5.613260901296982 -0.802582609463438 a26.670347149076726,26.670347149076726 0 0,0 0.06889091203644382,-0.4539050354233838 l 5.598614095821236 0.8990867572789137" fill="#ff4206" stroke="none" /><path d="M 79.32604984820605 96.31383870115002 l -6.975728162405822 -1.2437709772327665 a28.0857427020453,28.0857427020453 0 0,0 0.0889572782990681,-0.47521333775153596 l 6.953285160196892 1.3636623924468751" fill="#ff5507" stroke="none" /><path d="M 79.46518482838121 95.60439243477599 l -4.708938794058727 -1.0079782464245888 a25.81561259981079,25.81561259981079 0 0,0 0.09675398164695383,-0.4337291281740181 l 4.690890425409735 1.088885544148566" fill="#ff3605" stroke="none" /><path d="M 79.71946130924805 94.55025226153421 l -7.684058334519527 -2.064845523550258 a28.956653789403216,28.956653789403216 0 0,0 0.13349462699733108,-0.48025120026953255 l 7.647376936955836 2.1968080272387334" fill="#ff6109" stroke="none" /><path d="M 80.803312248108 91.48605970444005 l -6.4560659607340325 -2.86333563603799 a28.062540524057454,28.062540524057454 0 0,0 0.19964183497220167,-0.4398843198332005 l 6.405821808798479 2.9740419647132614" fill="#ff5507" stroke="none" /><path d="M 81.10775173730289 90.83032412892265 l -6.717129864731611 -3.2602738851966113 a28.466539990260838,28.466539990260838 0 0,0 0.21775545787126943,-0.4389817154503256 l 6.660014393906928 3.3754151891458988" fill="#ff5b08" stroke="none" /><path d="M 81.43458229118936 90.18545643968196 l -4.266430496314779 -2.2554336568079973 a25.825910293421032,25.825910293421032 0 0,0 0.21114760131860436,-0.39122443748032715 l 4.2269747957777035 2.328539077620797" fill="#ff3605" stroke="none" /><line stroke="#e1ed5e" stroke-width="0.3" x1="26.266209847984243" x2="21.928928074336255" y1="57.711370442889674" y2="55.22380399835377" /><path d="M 25.398753493254645 57.213857153982495 a86.0,86.0 0 0,1 29.58750427330803,-30.492523968695096" fill="none" id="id95" stroke="none" /><text fill="#e1ed5e" style="font-size:6.75px; font-family:Arial;" text-anchor="middle"><textPath startOffset="21.46611528233685" xlink:href="#id95">November</textPath></text><path d="M 81.78341655067845 89.55222093294921 l -6.124207225232075 -3.5124239530461394 a28.05996006812482,28.05996006812482 0 0,0 0.2439082973897708,-0.4169183442753636 l 6.062839253371979 3.617321709675395" fill="#ff5507" stroke="none" /><path d="M 82.15384107792192 88.93136811851018 l -5.912517891447708 -3.667090734701165 a27.957400539944526,27.957400539944526 0 0,0 0.2571713459531193,-0.40678330946551955 l 5.848518949248626 3.7683216918809004" fill="#ff5407" stroke="none" /><path d="M 82.7489923806493 88.02491185347247 l -5.6698494665464105 -3.9358250044057903 a27.9020222716681,27.9020222716681 0 0,0 0.2772761871451551,-0.39218750294041516 l 5.6012606595973775 4.032839007677992" fill="#ff5307" stroke="none" /><path d="M 83.6137871275137 86.86637796730984 l -5.412008424140582 -4.3377486691720595 a27.93584159996987,27.93584159996987 0 0,0 0.3039705681289599,-0.37263197464155434 l 5.33653936393523 4.4302648134216955" fill="#ff5307" stroke="none" /><path d="M 84.07557802195018 86.31012108654704 l -5.263168647440311 -4.524631511514602 a27.9406940954338,27.9406940954338 0 0,0 0.3166720253331309,-0.36201086725046744 l 5.184504758529338 4.614557934968012" fill="#ff5307" stroke="none" /><path d="M 84.31358615837235 86.03803664274999 l -8.284502051640995 -7.3737640257278985 a32.09077860886073,32.09077860886073 0 0,0 0.3708110241439355,-0.4094587944092375 l 8.156347386881015 7.515275607406692" fill="#ff8c0c" stroke="none" /><path d="M 84.80347519578584 85.50635884689758 l -9.396079049846493 -8.961482954108918 a33.984393641897526,33.984393641897526 0 0,0 0.4073850645736255,-0.41984611920128323 l 9.240429721569749 9.121893268860326" fill="#ffa50f" stroke="none" /><path d="M 85.05521093208273 85.24692304244772 l -24.84212444345889 -24.5234490789983 a55.907459111120076,55.907459111120076 0 0,0 0.681975691803749,-0.6790470714519826 l 24.416312951487825 24.947432001100392" fill="#5aff2a" stroke="none" /><path d="M 85.31137513191541 84.99185889309783 l -1.90590633000187 -1.947364807399846 a23.7248318538656,23.7248318538656 0 0,0 0.2943198209718868,-0.28313543458566354 l 1.8721032654175556 1.979883328747823" fill="#ff1802" stroke="none" /><path d="M 85.57189188830299 84.74124197986013 l -4.478271254069868 -4.7360926938856425 a27.51808924686564,27.51808924686564 0 0,0 0.3469796707428365,-0.32247978874486627 l 4.396083699532175 4.812477068705156" fill="#ff4e07" stroke="none" /><path d="M 86.10567301691215 84.25364557470407 l -5.189530392060228 -5.88126254360432 a28.843498887417525,28.843498887417525 0 0,0 0.37511135308945787,-0.3252928689905222 l 5.0875252403239974 5.969720406014523" fill="#ff6008" stroke="none" /><path d="M 87.22198572758235 83.33499621200491 l -4.1097093318353926 -5.359856400413717 a27.754092938746904,27.754092938746904 0 0,0 0.38162386119096564,-0.2874311803566744 l 4.016839316886037 5.429804170276245" fill="#ff5107" stroke="none" /><path d="M 87.51073957382395 83.11751280151077 l -4.145765097909682 -5.6040809307419845 a27.970874502194974,27.970874502194974 0 0,0 0.3895339644689288,-0.2830129912892068 l 4.048685817086971 5.674613156847859" fill="#ff5407" stroke="none" /><path d="M 88.09926311788651 82.69761687909137 l -3.5525903168557185 -5.165081737606779 a27.268888842177383,27.268888842177383 0 0,0 0.3890300517079161,-0.2626748275059201 l 3.4631555707412627 5.225468477411365" fill="#ff4a06" stroke="none" /><path d="M 88.70189139769569 82.29822771554957 l -3.67246029561575 -5.7539768969309195 a27.8260687627132,27.8260687627132 0 0,0 0.40597021588896864,-0.2542185119458941 l 3.572870927354539 5.816339750199743" fill="#ff5207" stroke="none" /><line stroke="#e1ed5e" stroke-width="0.3" x1="56.762969772571076" x2="54.21961505331055" y1="26.818313649435495" y2="22.513508569990535" /><path d="M 56.25429882871897 25.957352633546506 a86.0,86.0 0 0,1 42.265352541879196,-11.944610805530505" fill="none" id="id96" stroke="none" /><text fill="#e1ed5e" style="font-size:6.75px; font-family:Arial;" text-anchor="middle"><textPath startOffset="22.20632615414155" xlink:href="#id96">December</textPath></text><path d="M 89.3179101791058 81.91981866633112 l -6.453611525556571 -10.9231871848603 a33.68720300138265,33.68720300138265 0 0,0 0.5017841510922174,-0.29066576823847906 l 6.264630641999034 11.032657110488827" fill="#ffa10e" stroke="none" /><path d="M 89.63071344664047 81.73862282372117 l -8.513856359669859 -14.993774297636666 a38.242361143461785,38.242361143461785 0 0,0 0.5752305077250857,-0.32011515476015595 l 8.254501762872728 15.138104849957006" fill="#ffdb14" stroke="none" /><path d="M 89.94658935756843 81.56283822128135 l -3.3124747942718433 -6.074817377115155 a27.919240957502964,27.919240957502964 0 0,0 0.42391372745093525,-0.2264400321422105 l 3.207416020292603 6.130936135759114" fill="#ff5307" stroke="none" /><path d="M 90.26544431104013 81.39251694778311 l -1.800271142595867 -3.4411960695072064 a24.883658915977982,24.883658915977982 0 0,0 0.38124077555401276,-0.1952863327108236 l 1.7407698794530906 3.471674927530535" fill="#ff2803" stroke="none" /><path d="M 90.58718382345135 81.22770947309562 l -5.263714052221273 -10.497598974155036 a32.74335002653555,32.74335002653555 0 0,0 0.5060075189497961,-0.2482956919821369 l 5.082235266261051 10.586649826272003" fill="#ff950d" stroke="none" /><path d="M 91.23893434514133 80.91482961587045 l -3.188169451865767 -6.945131973596266 a28.641942330617212,28.641942330617212 0 0,0 0.4498392734514756,-0.20182976949758924 l 3.068148059947517 6.998982073610384" fill="#ff5d08" stroke="none" /><path d="M 91.90106846888425 80.62456947434976 l -2.6419543893855733 -6.320463820049701 a27.85041501634397,27.85041501634397 0 0,0 0.44390395926801496,-0.18107957075005746 l 2.532766560529178 6.365004276983336" fill="#ff5207" stroke="none" /><path d="M 92.91201910852362 80.23233633223022 l -2.3215308378234747 -6.474515309661253 a27.87814320336552,27.87814320336552 0 0,0 0.4531100937433078,-0.15808121465712974 l 2.2097387400168818 6.513517377490593" fill="#ff5307" stroke="none" /><path d="M 93.25333710446033 80.11325718540243 l -2.2133760147345214 -6.524238759005527 a27.88946476637424,27.88946476637424 0 0,0 0.45594915870292224,-0.15031926901472456 l 2.10074403378919 6.561371752279485" fill="#ff5307" stroke="none" /><path d="M 94.28887869178378 79.79150937346287 l -1.8697373605927452 -6.615963466100165 a27.875092027192686,27.875092027192686 0 0,0 0.46286206799833685,-0.12651768789986062 l 1.7555774033706857 6.647167694826321" fill="#ff5207" stroke="none" /><path d="M 94.98787191387505 79.60689891045804 l -4.093706044913484 -16.656270504318567 a38.151961295875,38.151961295875 0 0,0 0.6390931561814767,-0.15125270179642225 l 3.806389201769473 16.72426911825586" fill="#ffda14" stroke="none" /><path d="M 96.04723909329186 79.375362276772 l -1.303777698592489 -6.802825503424641 a27.926634905738272,27.926634905738272 0 0,0 0.4728975058885129,-0.08641899651633952 l 1.1864850716010829 6.824259981291716" fill="#ff5307" stroke="none" /><path d="M 96.40284397218896 79.31037775812273 l -4.358510064050712 -25.068672602868446 a46.44474319084864,46.44474319084864 0 0,0 0.7888325440264556,-0.13016412874241692 l 3.9263483138853705 25.13998299455049" fill="#c0ff1e" stroke="none" /><path d="M 96.75951476605007 79.25152402106235 l -1.0631803749910986 -6.807428788956996 a27.889952048199373,27.889952048199373 0 0,0 0.47496723746636366,-0.06999782425838992 l 0.9458441570960863 6.824721097376355" fill="#ff5307" stroke="none" /><path d="M 97.83486435360386 79.11191278185805 l -0.8635830535021212 -8.331394003736804 a29.376031383405724,29.376031383405724 0 0,0 0.5034140743188745,-0.04780523223013611 l 0.7200438520930104 8.34502478048212" fill="#ff6709" stroke="none" /><path d="M 98.55514903715128 79.0497635885617 l -0.47617008200568356 -6.904432392393105 a27.920832652804464,27.920832652804464 0 0,0 0.4797569547204627,-0.028940249668149495 l 0.35725107844559784 6.91160591144156" fill="#ff5307" stroke="none" /><path d="M 99.27714615592234 79.0124445844662 l -0.23894033376977933 -6.937465349441524 a27.941578923977154,27.941578923977154 0 0,0 0.4808258282726417,-0.012418312569911513 l 0.11948787030225859 6.9405504541537955" fill="#ff5307" stroke="none" /></svg>