<?xml version="1.0" encoding="utf-8" ?>
<svg baseProfile="full" height="200mm" version="1.1" viewBox="0,0,200,200" width="200mm" xmlns="http://www.w3.org/2000/svg" xmlns:ev="http://www.w3.org/2001/xml-events" xmlns:xlink="http://www.w3.org/1999/xlink"><defs /><rect fill="#1a1a1a" height="200" width="200" x="0" y="0" /><text alignment-baseline="middle" fill="#e1ed5e" style="dominant-baseline: central; font-size:9.0px; font-family:Arial;" text-anchor="middle" x="100.0" y="100.0">2019</text><line stroke="#e1ed5e" stroke-width="0.3" x1="100.0" x2="100.0" y1="15.0" y2="10.0" /><path d="M 100.0 14.0 a86.0,86.0 0 0,1 42.46469731375804,11.215312516191453" fill="none" id="id61" stroke="none" /><text fill="#e1ed5e" style="font-size:6.75px; font-family:Arial;" text-anchor="middle"><textPath startOffset="22.20632615414155" xlink:href="#id61">January</textPath></text><path d="M 100.0 79.0 l 0.0 -50.496818589694016 a71.49681858969402,71.49681858969402 0 0,0 1.2307002023935052,0.010593025187921469 l -0.8692197231209768 50.48933694111465" fill="#3dffaf" stroke="none" /><path d="M 103.95276090670814 79.375362276772 l 11.858282720124386 -61.87391316968404 a84.0,84.0 0 0,0 1.4177343621314986,0.2843841756911667 l -12.921583491723009 61.66062503791566" fill="#4dd2ff" stroke="none" /><path d="M 104.307194497241 79.44645832069477 l 5.065464696169357 -24.171938328871924 a45.69699445606541,45.69699445606541 0 0,0 0.768486956022638,0.16796148331409932 l -5.480794376345523 24.081163347461953" fill="#cdff1d" stroke="none" /><path d="M 106.0581310904928 79.89281104454417 l 1.8458631577354347 -6.1264965620745055 a27.39852880920261,27.39852880920261 0 0,0 0.4503987100544537,0.13994107164249744 l -1.9510472405006067 6.093815355549488" fill="#ff4406" stroke="none" /><path d="M 107.76421540070413 80.48803036053334 l 3.0159763661919294 -7.579341408424735 a29.157360457089666,29.157360457089666 0 0,0 0.46473518405779135,0.18957715038271286 l -3.1459954198381084 7.526303371858443" fill="#ff5d08" stroke="none" /><path d="M 109.41281617654863 81.2277094730956 l 5.767379708833915 -11.502076046374205 a33.86702848689022,33.86702848689022 0 0,0 0.5188743443899897,0.26578759238542776 l -5.964514540812661 11.401095928676275" fill="#ff9d0e" stroke="none" /><path d="M 110.05341064243156 81.56283822128135 l 5.913574543703475 -10.84502905835775 a33.3525308807775,33.3525308807775 0 0,0 0.5016790987485082,0.2791838752971093 l -6.099377731524018 10.741629785500463" fill="#ff960d" stroke="none" /><line stroke="#e1ed5e" stroke-width="0.3" x1="143.23703022742887" x2="145.7803849466894" y1="26.81831364943548" y2="22.513508569990506" /><path d="M 143.74570117128098 25.957352633546492 a86.0,86.0 0 0,1 28.547481713284135,27.462654790039103" fill="none" id="id62" stroke="none" /><text fill="#e1ed5e" style="font-size:6.75px; font-family:Arial;" text-anchor="middle"><textPath startOffset="19.985693538727396" xlink:href="#id62">February</textPath></text><path d="M 113.34407831869373 83.78471172551755 l 11.123531217617188 -13.516951940486237 a38.50545447883941,38.50545447883941 0 0,0 0.5081664997511496,0.4255748294554096 l -11.354555254327456 13.323475953637008" fill="#ffd914" stroke="none" /><path d="M 113.89432698308785 84.25364557470407 l 8.002513492672644 -9.069198810580467 a33.09506466564945,33.09506466564945 0 0,0 0.42391470285047106,0.3805948057904068 l -8.157439183119106 8.930104996020763" fill="#ff930d" stroke="none" /><path d="M 114.42810811169701 84.74124197986012 l 8.030890417174358 -8.493241983859146 a32.68889901954203,32.68889901954203 0 0,0 0.40552409249772814,0.39011385568649704 l -8.175897753284506 8.353745041410347" fill="#ff8d0d" stroke="none" /><path d="M 115.19652480421416 85.50635884689758 l 37.26751814702639 -35.543786599153606 a72.49979295730336,72.49979295730336 0 0,0 0.8535389509248134,0.9104958415642814 l -37.87382441992166 34.89702134071127" fill="#3fffba" stroke="none" /><path d="M 116.38621287248628 86.86637796730983 l 9.182921415386469 -7.360152096405831 a32.76851242100677,32.76851242100677 0 0,0 0.3489782899030556,0.443166988876679 l -9.308253785883489 7.200992713576113" fill="#ff8e0d" stroke="none" /><path d="M 116.60985879189232 87.15038557335679 l 13.801996424483448 -10.677413612877285 a38.449993316958924,38.449993316958924 0 0,0 0.4004732684114743,0.5269758782806331 l -13.983745633119037 10.43825295871562" fill="#ffd914" stroke="none" /><path d="M 117.2510076193507 88.02491185347247 l 9.140854569002043 -6.345283801022887 a32.12734688805777,32.12734688805777 0 0,0 0.3114448480658246,0.4570068842608559 l -9.248723882736602 6.186998893491625" fill="#ff860c" stroke="none" /><line stroke="#e1ed5e" stroke-width="0.3" x1="172.23445277983987" x2="176.4835382374775" y1="55.19839476539836" y2="52.563006222186495" /><path d="M 173.08426987136738 54.67131705675599 a86.0,86.0 0 0,1 12.851231095245387,41.99856678651699" fill="none" id="id63" stroke="none" /><text fill="#e1ed5e" style="font-size:6.75px; font-family:Arial;" text-anchor="middle"><textPath startOffset="22.20632615414155" xlink:href="#id63">March</textPath></text><path d="M 118.56541770881063 90.18545643968196 l 5.334922339725381 -2.820288157012492 a27.034519173843584,27.034519173843584 0 0,0 0.21394676503546514,0.4132770521609294 l -5.382678537920963 2.7280383825912176" fill="#ff3f05" stroke="none" /><path d="M 119.34039704204932 91.81776055985345 l 48.800875662131524 -20.64592824481488 a73.98848760326025,73.98848760326025 0 0,0 0.4861336528256831,1.1772112000928472 l -49.149031001843404 19.802842474268726" fill="#40ffca" stroke="none" /><path d="M 120.08093135843002 93.85539295169968 l 11.93336478140205 -3.6515157607448048 a33.479533739566335,33.479533739566335 0 0,0 0.1638808874227246,0.5525248828362738 l -11.994451565936476 3.445561491162001" fill="#ff980e" stroke="none" /><path d="M 120.94382443527127 98.46500227214037 l 5.8178727850948615 -0.4263987952008127 a26.83347749426499,26.83347749426499 0 0,0 0.029797182688694142,0.4609492276488701 l -5.824350558787971 0.32619050329890736" fill="#ff3c05" stroke="none" /><line stroke="#e1ed5e" stroke-width="0.3" x1="184.98032266829074" x2="189.97916517819016" y1="98.17113171792111" y2="98.06355123074" /><path d="M 185.9800911702706 98.14961562048488 a86.0,86.0 0 0,1 -9.607161424134198,41.387399972396054" fill="none" id="id64" stroke="none" /><text fill="#e1ed5e" style="font-size:6.75px; font-family:Arial;" text-anchor="middle"><textPath startOffset="21.466115282336823" xlink:href="#id64">April</textPath></text><path d="M 120.99513854157772 99.54816195383933 l 7.033996076098024 -0.15137918892185123 a28.03562480931161,28.03562480931161 0 0,0 0.006230574354069266,0.48256485005650956 l -7.0355596575698085 0.030278080804878933" fill="#ff4d07" stroke="none" /><path d="M 120.99980553446 99.90962569577887 l 8.326213603232123 -0.03583251092272371 a29.326290706880627,29.326290706880627 0 0,0 -0.0021725233305484185,0.5048179109514623 l -8.325596782612072 -0.10749487823242337" fill="#ff5f08" stroke="none" /><path d="M 120.99824983174949 100.27111621757518 l 7.0046618418252695 0.09043979565751617 a28.005245668423168,28.005245668423168 0 0,0 -0.010372525966664851,0.4819705236127574 l -7.002067253173598 -0.21100013506038842" fill="#ff4d07" stroke="none" /><path d="M 120.9764740272857 100.99374915477107 l 14.672009666533949 0.6950785525701453 a35.68846492486906,35.68846492486906 0 0,0 -0.03435210035019148,0.6133798281884016 l -14.657871215296227 -0.9475300970939703" fill="#ffb510" stroke="none" /><path d="M 120.81339534386255 102.79330883721812 l 7.285705050417722 0.977794538876024 a28.35102579521648,28.35102579521648 0 0,0 -0.06907653045071742,0.48312109308659207 l -7.267794468950403 -1.1030611039430254" fill="#ff5207" stroke="none" /><path d="M 120.76222939487914 103.15116336523771 l 9.346532192856593 1.4185591189647846 a30.453569379134148,30.453569379134148 0 0,0 -0.0831211985832741,0.5175957829234279 l -9.32072923991203 -1.5792341315814176" fill="#ff6f0a" stroke="none" /><path d="M 120.32669344350535 105.2749913415812 l 5.646933825895632 1.4654388880744895 a26.833984296235744,26.833984296235744 0 0,0 -0.1198736993449722,0.44609462937337396 l -5.620872050208883 -1.5624244506234117" fill="#ff3c05" stroke="none" /><path d="M 120.23288151984713 105.62410040840565 l 11.306168023639609 3.142756711982909 a32.734835113007954,32.734835113007954 0 0,0 -0.1555798845046499,0.541593988124035 l -11.250395502248859 -3.336908175611526" fill="#ff8e0d" stroke="none" /><path d="M 119.9155931802556 106.66101706037122 l 11.18196564748101 3.7399470491393125 a32.79082523285844,32.79082523285844 0 0,0 -0.18364293849153437,0.5337523406104363 l -11.115931878046245 -3.931872092839049" fill="#ff8f0d" stroke="none" /><path d="M 118.81262510543309 109.33194174019688 l 10.70077954462461 5.308087028018648 a32.94497680029879,32.94497680029879 0 0,0 -0.25637675869358734,0.5058556673718472 l -10.607824116144753 -5.49149690709319" fill="#ff910d" stroke="none" /><line stroke="#e1ed5e" stroke-width="0.3" x1="174.80103733775053" x2="179.2010983576182" y1="140.37084112569926" y2="142.7455964860345" /><path d="M 175.68104954172406 140.8457921977663 a86.0,86.0 0 0,1 -30.038265399797805,32.042727171017184" fill="none" id="id65" stroke="none" /><text fill="#e1ed5e" style="font-size:6.75px; font-family:Arial;" text-anchor="middle"><textPath startOffset="22.206326154141568" xlink:href="#id65">May</textPath></text><path d="M 118.48025628344425 109.97397251340804 l 11.02697550250064 5.951365007123554 a33.530480205513435,33.530480205513435 0 0,0 -0.2785003214409876,0.5055589793021132 l -10.922898771608143 -6.140294504823473" fill="#ff990e" stroke="none" /><path d="M 118.30583269289576 110.29060199501025 l 19.22838482209335 10.809213573106115 a43.05832906036927,43.05832906036927 0 0,0 -0.36875973954863805,0.6429636887539992 l -19.03947308639233 -11.13859710771843" fill="#ecff1a" stroke="none" /><path d="M 117.94076556474637 110.91462005526583 l 27.3144460371276 16.61728422008527 a52.972067452172226,52.972067452172226 0 0,0 -0.48062152188250523,0.7749149264987379 l -27.02435987557713 -17.08499547794928" fill="#7bff26" stroke="none" /><path d="M 117.55443506779139 111.5257021239791 l 9.80086634423835 6.434947385341041 a32.72456945690252,32.72456945690252 0 0,0 -0.31321603988612257,0.4682154819193969 l -9.688647198941506 -6.602699781466245" fill="#ff8e0d" stroke="none" /><path d="M 117.14729908036423 112.12312394758627 l 1.7313902517525093 1.2240912417323049 a23.1204036342049,23.1204036342049 0 0,0 -0.23254745028460128,0.32298806927053597 l -1.7100630090923052 -1.253712916453972" fill="#ff0601" stroke="none" /><path d="M 116.93607887273984 112.41649034213515 l 5.913715393937455 4.335572042779554 a28.332749463783998,28.332749463783998 0 0,0 -0.29174465976637914,0.39083964798798027 l -5.838209467475984 -4.43672457027685" fill="#ff5107" stroke="none" /><path d="M 116.27256486870786 113.27417163493432 l 42.518525467626944 34.684034709669156 a75.87082350104448,75.87082350104448 0 0,0 -0.8342322208458156,1.0048864509677864 l -41.91519724688759 -35.41078241775072" fill="#43ffdd" stroke="none" /><path d="M 115.80600337817218 113.82643327865902 l 4.46983090884829 3.9100218663388353 a26.938658042768868,26.938658042768868 0 0,0 -0.3083080029966244,0.34638730971740705 l -4.401864056203327 -3.9863833457971087" fill="#ff3e05" stroke="none" /><path d="M 115.32070863581623 114.36230785411682 l 6.838728846670602 6.410925980087972 a30.373803078817666,30.373803078817666 0 0,0 -0.360860232279545,0.37836051084490646 l -6.727362063012093 -6.527693607515386" fill="#ff6e0a" stroke="none" /><path d="M 114.29624159901734 115.38237550388516 l 7.8856105013229065 8.484707044756897 a32.583311556455754,32.583311556455754 0 0,0 -0.4141190730609323,0.37828795457270936 l -7.7383918787951105 -8.619187765916191" fill="#ff8c0c" stroke="none" /><path d="M 113.75828350139079 115.86535959552629 l 7.6262628710353795 8.794222244857513 a32.64037071016553,32.64037071016553 0 0,0 -0.4276425161757094,0.36444622979119656 l -7.473754878282623 -8.924192864871657" fill="#ff8d0d" stroke="none" /><path d="M 112.92097659922987 116.55440617244103 l 16.322229614698237 20.91210494860467 a47.5279345780328,47.5279345780328 0 0,0 -0.6492570964037292,0.49782265577951074 l -15.959843789801013 -21.189966946211555" fill="#b8ff1f" stroke="none" /><path d="M 112.34349029814194 116.9893568818739 l 6.99250964516932 9.62436385433135 a32.89636796414543,32.89636796414543 0 0,0 -0.46097629070835355,0.3288943437407777 l -6.8258060266120815 -9.743302459916347" fill="#ff900d" stroke="none" /><line stroke="#e1ed5e" stroke-width="0.3" x1="143.8653032363475" x2="146.44561519142675" y1="172.8068346515853" y2="177.08958963109032" /><path d="M 144.38136562736335 173.6633856474863 a86.0,86.0 0 0,1 -40.68145358897372,12.25698825130547" fill="none" id="id66" stroke="none" /><text fill="#e1ed5e" style="font-size:6.75px; font-family:Arial;" text-anchor="middle"><textPath startOffset="21.466115282336833" xlink:href="#id66">June</textPath></text><path d="M 110.5260780823613 118.17145234162733 l 24.79861682998939 42.81052072182058 a70.47435781446852,70.47435781446852 0 0,0 -1.0549381561626099,0.5990214172637722 l -24.05802990690558 -43.23104530487898" fill="#3cffa4" stroke="none" /><path d="M 108.2653958097858 119.30500536409082 l 3.570550051653981 8.339526561852718 a30.07174354505314,30.07174354505314 0 0,0 -0.4776087969022961,0.19964051584038012 l -3.426469795254224 -8.399752120713073" fill="#ff6a09" stroke="none" /><path d="M 107.59598834532513 119.57807347666477 l 8.566274320536293 22.07891066235538 a44.68246929209346,44.68246929209346 0 0,0 -0.7194511179819696,0.2720348518357561 l -8.18495298179405 -22.22309376429777" fill="#d9ff1c" stroke="none" /><path d="M 102.70371172650421 120.8252237178851 l 1.0183839015590561 7.844058363456227 a28.90988984627866,28.90988984627866 0 0,0 -0.49404603183022655,0.059822094184685 l -0.8832104466774492 -7.8604259863662636" fill="#ff5a08" stroke="none" /><line stroke="#e1ed5e" stroke-width="0.3" x1="102.19456741930631" x2="102.32365962044197" y1="184.97166512339345" y2="189.96999836594603" /><path d="M 102.22038585953345 185.97133177190398 a86.0,86.0 0 0,1 -42.740103519485714,-10.115201625700543" fill="none" id="id67" stroke="none" /><text fill="#e1ed5e" style="font-size:6.75px; font-family:Arial;" text-anchor="middle"><textPath startOffset="22.20632615414155" xlink:href="#id67">July</textPath></text><path d="M 98.01472825383883 120.90594882070398 l -0.6613804500949776 6.964681720492899 a27.996014262959715,27.996014262959715 0 0,0 -0.4793549597107237,-0.04968710153819232 l 0.7811680064112947 -6.952265250498946" fill="#ff4d07" stroke="none" /><path d="M 97.2962882734958 120.8252237178851 l -1.5258582654259956 11.75285790558972 a32.85149409969695,32.85149409969695 0 0,0 -0.5601514654236188,-0.07763188899593274 l 1.7279383220364455 -11.724851451101182" fill="#ff8f0d" stroke="none" /><path d="M 96.58105272829116 120.7198165907248 l -1.9429877985914592 11.775072156848266 a32.934300393590675,32.934300393590675 0 0,0 -0.5585516647155138,-0.09711136646606287 l 2.1453884347790226 -11.739882211861197" fill="#ff910d" stroke="none" /><path d="M 94.46302465271185 120.25689768951611 l -1.8487759186554875 6.763704420932182 a28.01182357815269,28.01182357815269 0 0,0 -0.46402096892341005,-0.13113696079793566 l 1.9649280556835116 -6.730878666795726" fill="#ff4d07" stroke="none" /><path d="M 93.76903079525671 120.05430185196036 l -2.7815802661830142 8.952483706872789 a30.37465483626152,30.37465483626152 0 0,0 -0.4979688243026228,-0.1594338922045278 l 2.9352704355765775 -8.903276968008553" fill="#ff6e0a" stroke="none" /><path d="M 93.42475214034765 119.94407469862007 l -13.27685558550156 40.2714247754661 a63.40356762920178,63.40356762920178 0 0,0 -1.0335695352017766,-0.35064290306944523 l 13.968094853640562 -40.03691888549854" fill="#33ff54" stroke="none" /><path d="M 91.07499286063937 119.00905698771935 l -12.202555356001433 25.989790992441517 a49.71187198785675,49.71187198785675 0 0,0 -0.7714509205160067,-0.3703433228429232 l 12.648118944517682 -25.77589339309903" fill="#9fff22" stroke="none" /><path d="M 90.7491055286396 118.85261126421891 l -25.760802773799877 52.4985342825171 a79.47832984416739,79.47832984416739 0 0,0 -1.2230053196687298,-0.6132402564558616 l 26.66066200115137 -52.04732618515193" fill="#47fdff" stroke="none" /><path d="M 90.10565033884886 118.52300852407294 l -17.38544605047128 32.54693602067664 a57.899278837232934,57.899278837232934 0 0,0 -0.8750433481997388,-0.47714340281671974 l 17.94311221053966 -32.242851966100154" fill="#48ff2c" stroke="none" /><line stroke="#e1ed5e" stroke-width="0.3" x1="58.666819895761336" x2="56.23545636021788" y1="174.27360380694188" y2="178.64263932499728" /><path d="M 58.180547188652646 175.14741091055294 a86.0,86.0 0 0,1 -31.652253787137756,-30.449443065178592" fill="none" id="id68" stroke="none" /><text fill="#e1ed5e" style="font-size:6.75px; font-family:Arial;" text-anchor="middle"><textPath startOffset="22.20632615414155" xlink:href="#id68">August</textPath></text><path d="M 85.97065885151581 115.62618273729859 l -5.464616405432727 6.08660760592864 a29.179781452280547,29.179781452280547 0 0,0 -0.3708617531463046,-0.3387734184518507 l 5.568577708045886 -5.991641420890213" fill="#ff5d08" stroke="none" /><path d="M 85.44109423537348 115.13401014063109 l -5.78107905855488 6.009442640155999 a29.338721480334193,29.338721480334193 0 0,0 -0.36093619484179273,-0.3532520336517093 l 5.883665205772466 -5.90904050358172" fill="#ff5f08" stroke="none" /><path d="M 84.43433777217949 114.09645910891817 l -6.21317468389776 5.626728987578305 a29.382339694398098,29.382339694398098 0 0,0 -0.3362754915321396,-0.3778090795683719 l 6.309109025078238 -5.518945738269069" fill="#ff6008" stroke="none" /><path d="M 84.19399662182784 113.82643327865904 l -15.390804839553448 13.463234894206181 a41.448363441258394,41.448363441258394 0 0,0 -0.4651246338554873,-0.5410450295964251 l 15.620271982979714 -13.196312765448226" fill="#fffe18" stroke="none" /><path d="M 83.95833913139862 113.55231037782056 l -5.035935527758562 4.254457307999926 a27.59249980093552,27.59249980093552 0 0,0 -0.30339136080822915,-0.3654544384629048 l 5.108422888460327 -4.1671416124232605" fill="#ff4706" stroke="none" /><path d="M 83.72743513129214 113.27417163493432 l -26.325852493340843 21.475034037478014 a54.97392524292681,54.97392524292681 0 0,0 -0.5918390381648038,-0.7384101995228174 l 26.69160944356051 -21.018696004376938" fill="#66ff29" stroke="none" /><path d="M 83.50135304334701 112.99209946851258 l -8.742720261256641 6.884582205925896 a32.128011040466255,32.128011040466255 0 0,0 -0.33840461992827464,-0.4374335886591274 l 8.859931698402985 -6.733070623153515" fill="#ff860c" stroke="none" /><path d="M 82.6465618267979 111.8261652097733 l -7.868506048852127 5.362294869700462 a30.52195325080093,30.52195325080093 0 0,0 -0.29213418191475476,-0.4367009646762535 l 7.959643336177612 -5.226056990818387" fill="#ff700a" stroke="none" /><path d="M 82.44556493220864 111.52570212397912 l -9.74986190147529 6.401459437023928 a32.66355391901208,32.66355391901208 0 0,0 -0.3045411905792479,-0.47265469075185235 l 9.858607955431584 -6.232683146350627" fill="#ff8d0d" stroke="none" /><path d="M 82.05923443525364 110.91462005526583 l -5.388664498420658 3.2783007722442523 a27.307532087103198,27.307532087103198 0 0,0 -0.24085129428646138,-0.40368062296467383 l 5.444296668405351 -3.1850580553934673" fill="#ff4306" stroke="none" /><line stroke="#e1ed5e" stroke-width="0.3" x1="26.63291911575756" x2="22.317208475507996" y1="142.92168965132927" y2="145.44649492493687" /><path d="M 25.769776987707644 143.4266507060508 a86.0,86.0 0 0,1 -11.730757126820373,-40.83630448921669" fill="none" id="id69" stroke="none" /><text fill="#e1ed5e" style="font-size:6.75px; font-family:Arial;" text-anchor="middle"><textPath startOffset="21.46611528233685" xlink:href="#id69">September</textPath></text><path d="M 81.87401531095188 110.60418214915194 l -9.778309696760255 5.720570711830919 a32.32873646064791,32.32873646064791 0 0,0 -0.276869462826828,-0.48274524583505446 l 9.87533115573946 -5.551405620137558" fill="#ff880c" stroke="none" /><path d="M 81.18737489456691 109.33194174019688 l -10.827871307236535 5.371130485149516 a33.08684573139654,33.08684573139654 0 0,0 -0.24869765940914906,-0.5123908401963347 l 10.918722223260403 -5.183950688987896" fill="#ff930d" stroke="none" /><path d="M 80.87730276802145 108.67885076344099 l -10.842969898284302 4.921090180851849 a32.90743989206647,32.90743989206647 0 0,0 -0.22966089023104144,-0.517824678766666 l 10.926071873246624 -4.733717165592487" fill="#ff900d" stroke="none" /><path d="M 80.58989483394504 108.01547362559985 l -12.218490194394573 5.045670029088536 a34.21931498501184,34.21931498501184 0 0,0 -0.22013999982752833,-0.546369426021935 l 12.303532808479488 -4.834601235223796" fill="#ffa20e" stroke="none" /><path d="M 80.32549172779594 107.34259656027581 l -10.963228314161388 4.091515853679928 a32.70183220907496,32.70183220907496 0 0,0 -0.1922801380237469,-0.5290723588080729 l 11.03203271319036 -3.9021956978657375" fill="#ff8d0d" stroke="none" /><path d="M 79.97269907076064 106.31721596034903 l -16.519983621155873 5.210902086356879 a38.322337007368745,38.322337007368745 0 0,0 -0.19302272716081684,-0.6308094405818024 l 16.60723312082282 -4.925765673223029" fill="#ffd714" stroke="none" /><path d="M 79.86692584326677 105.97154293290107 l -3.9891465330484763 1.183195353192783 a25.160918324835237,25.160918324835237 0 0,0 -0.11958309102504326,-0.4162844276858775 l 4.008922260959624 -1.1143534500023096" fill="#ff2403" stroke="none" /><path d="M 79.67330655649465 105.27499134158121 l -15.863690971484624 4.11679512718969 a37.38916390051718,37.38916390051718 0 0,0 -0.1563021694491927,-0.6243494708628285 l 15.932204455228876 -3.8431178169294693" fill="#ffcb12" stroke="none" /><path d="M 79.07016306316243 101.71520430193888 l -9.307301543975495 0.7627352136495551 a30.338502397955985,30.338502397955985 0 0,0 -0.03817369706306245,-0.5208497672819322 l 9.319051799702892 -0.6024123098708621" fill="#ff6d0a" stroke="none" /><path d="M 79.04373962182676 101.35467743843564 l -8.1054873675597 0.5239637543249203 a29.12240503062462,29.12240503062462 0 0,0 -0.028031908409534748,-0.5005285554232172 l 8.113305626856766 -0.38436348256626546" fill="#ff5c08" stroke="none" /><path d="M 79.0235259727143 100.99374915477108 l -51.612772344858875 2.445127280513331 a72.67065817792667,72.67065817792667 0 0,0 -0.04843972470430529,-1.2500140575397847 l 51.64721420241438 -1.5563359759595496" fill="#3fffbc" stroke="none" /><line stroke="#e1ed5e" stroke-width="0.3" x1="15.007084014347285" x2="10.007500721073583" y1="101.09737516637583" y2="101.16192664675087" /><path d="M 14.007167355692545 101.11028546245083 a86.0,86.0 0 0,1 10.666146001902534,-42.60595125391555" fill="none" id="id70" stroke="none" /><text fill="#e1ed5e" style="font-size:6.75px; font-family:Arial;" text-anchor="middle"><textPath startOffset="22.20632615414155" xlink:href="#id70">October</textPath></text><path d="M 79.03285615573316 98.82574320788736 l -11.673409165965898 -0.6537647713040129 a32.691701755187516,32.691701755187516 0 0,0 0.03630243638052196,-0.5615826229679906 l 11.660426138580965 0.8546064585250153" fill="#ff8d0d" stroke="none" /><path d="M 79.16333360222342 97.38593545837743 l -4.577413416086736 -0.5742595228484612 a25.61329465581302,25.61329465581302 0 0,0 0.058647127826766295,-0.43698922259386136 l 4.566850289202136 0.6529670875069818" fill="#ff2b04" stroke="none" /><path d="M 79.26566170972629 96.67025291283419 l -23.082577442757188 -3.7068530438877763 a44.378326306428846,44.378326306428846 0 0,0 0.12761545307111213,-0.7531936279223234 l 23.015350128165853 4.103632460125928" fill="#ddff1b" stroke="none" /><path d="M 79.3925641242962 95.95851677861259 l -19.107402436320488 -3.7473000918921375 a40.471391471648886,40.471391471648886 0 0,0 0.13995528304623933,-0.6824716642405586 l 19.040067857359254 4.075647412296099" fill="#fff216" stroke="none" /><path d="M 80.65960295795068 91.81776055985345 l -1.5477125811087014 -0.6547825722308314 a22.68052207680214,22.68052207680214 0 0,0 0.1552096060978402,-0.35824517019513286 l 1.5362122651681804 0.6813268870125635" fill="#ff0000" stroke="none" /><path d="M 81.43458229118936 90.18545643968196 l -16.436093544512005 -8.688883739875168 a39.59144619573787,39.59144619573787 0 0,0 0.3236919358112304,-0.5997519967730213 l 16.2840935094823 8.970516719980662" fill="#ffe715" stroke="none" /><line stroke="#e1ed5e" stroke-width="0.3" x1="26.266209847984243" x2="21.928928074336255" y1="57.711370442889674" y2="55.22380399835377" /><path d="M 25.398753493254645 57.213857153982495 a86.0,86.0 0 0,1 29.58750427330803,-30.492523968695096" fill="none" id="id71" stroke="none" /><text fill="#e1ed5e" style="font-size:6.75px; font-family:Arial;" text-anchor="middle"><textPath startOffset="21.46611528233685" xlink:href="#id71">November</textPath></text><path d="M 82.15384107792192 88.93136811851018 l -44.213370440118545 -27.422232637197094 a73.02692541832263,73.02692541832263 0 0,0 0.6717517486582948,-1.062549944846049 l 43.734791095214284 28.17923022975736" fill="#3fffc0" stroke="none" /><path d="M 83.6137871275137 86.86637796730984 l -39.401119696998386 -31.580171562036014 a71.49510341869617,71.49510341869617 0 0,0 0.7779399495393494,-0.9536623934801961 l 38.851681255382644 32.253718125124294" fill="#3dffaf" stroke="none" /><path d="M 85.05521093208273 85.24692304244772 l -5.752602240399094 -5.6788077217487904 a29.08339592478547,29.08339592478547 0 0,0 0.35476784978523307,-0.3532443638934039 l 5.653998590446547 5.776987936292304" fill="#ff5c08" stroke="none" /><path d="M 86.65592168130627 83.78471172551755 l -5.3090469781514145 -6.4513805418014325 a29.35501590132256,29.35501590132256 0 0,0 0.39293310499746753,-0.31772457757547623 l 5.197210474589447 6.541811216641044" fill="#ff6008" stroke="none" /><path d="M 87.22198572758235 83.33499621200491 l -30.823608775869765 -40.199951734156166 a71.65699337106734,71.65699337106734 0 0,0 0.9852967831431072,-0.7421051097188626 l 30.127065838968267 40.72457343338088" fill="#3effb1" stroke="none" /><path d="M 88.09926311788651 82.69761687909137 l -4.088769198229343 -5.944627787466098 a28.21502828046454,28.21502828046454 0 0,0 0.4025280961911383,-0.2717887673949641 l 3.9858364076316652 6.014128467159727" fill="#ff5007" stroke="none" /><path d="M 88.70189139769569 82.29822771554957 l -6.293052270121772 -9.859896216355995 a32.69701074086008,32.69701074086008 0 0,0 0.4770351364608862,-0.29871935868852073 l 6.1223979812886435 9.966759916367446" fill="#ff8d0d" stroke="none" /><line stroke="#e1ed5e" stroke-width="0.3" x1="56.762969772571076" x2="54.21961505331055" y1="26.818313649435495" y2="22.513508569990535" /><path d="M 56.25429882871897 25.957352633546506 a86.0,86.0 0 0,1 42.265352541879196,-11.944610805530505" fill="none" id="id72" stroke="none" /><text fill="#e1ed5e" style="font-size:6.75px; font-family:Arial;" text-anchor="middle"><textPath startOffset="22.20632615414155" xlink:href="#id72">December</textPath></text><path d="M 89.3179101791058 81.91981866633112 l -7.285420378313372 -12.331081627329526 a35.32246222507176,35.32246222507176 0 0,0 0.5261419810177498,-0.3047753955204812 l 7.072081664830302 12.454661180240054" fill="#ffb010" stroke="none" /><path d="M 89.94658935756843 81.56283822128135 l -6.802677635498092 -12.475573967384893 a35.20972796460923,35.20972796460923 0 0,0 0.5346093415193572,-0.28556979554567663 l 6.586923247450429 12.59082248943232" fill="#ffaf10" stroke="none" /><path d="M 90.91171255644093 81.06846463323043 l -5.034765845248556 -10.487767718028932 a32.633664032617204,32.633664032617204 0 0,0 0.5084974246000302,-0.23874635905577637 l 4.853490209348917 10.572879059724716" fill="#ff8d0c" stroke="none" /><path d="M 92.57280143429618 80.3572730644239 l -4.11363011120056 -10.879325801439533 a32.63106541059949,32.63106541059949 0 0,0 0.5270968626736531,-0.19413422287611645 l 3.9257509227543377 10.948523292121973" fill="#ff8d0c" stroke="none" /><path d="M 93.94186890950719 79.89281104454417 l -15.243014331267238 -50.59219829206093 a73.83862236968741,73.83862236968741 0 0,0 1.2201297272432259,-0.35618932554240385 l 14.36989438630059 50.84708594652203" fill="#40ffc8" stroke="none" /><path d="M 98.19473922651362 79.07773832637324 l -0.5130227457330775 -5.945731657383132 a26.967823495986412,26.967823495986412 0 0,0 0.4628318171189742,-0.03592465674514518 l 0.4106007392517691 5.95368157631674" fill="#ff3e05" stroke="none" /><path d="M 99.27714615592234 79.0124445844662 l -0.38630317812198733 -11.216042391497574 a32.22269295103888,32.22269295103888 0 0,0 0.554496332133294,-0.014321004335474697 l 0.1931802107938143 11.221030187975408" fill="#ff870c" stroke="none" /></svg>