<?xml version="1.0" encoding="utf-8" ?>
<svg baseProfile="full" height="200mm" version="1.1" viewBox="0,0,200,200" width="200mm" xmlns="http://www.w3.org/2000/svg" xmlns:ev="http://www.w3.org/2001/xml-events" xmlns:xlink="http://www.w3.org/1999/xlink"><defs /><rect fill="#1a1a1a" height="200" width="200" x="0" y="0" /><text alignment-baseline="middle" fill="#e1ed5e" style="dominant-baseline: central; font-size:9.0px; font-family:Arial;" text-anchor="middle" x="100.0" y="100.0">2016</text><line stroke="#e1ed5e" stroke-width="0.3" x1="100.0" x2="100.0" y1="15.0" y2="10.0" /><path d="M 100.0 14.0 a86.0,86.0 0 0,1 42.35913384403234,11.155469271406648" fill="none" id="id25" stroke="none" /><text fill="#e1ed5e" style="font-size:6.75px; font-family:Arial;" text-anchor="middle"><textPath startOffset="22.145653131862478" xlink:href="#id25">January</textPath></text><path d="M 101.80034050326958 79.07731436759882 l 0.16982987769844918 -1.9736806096517208 a22.98097383533308,22.98097383533308 0 0,0 0.3927562639685065,0.037194426544965575 l -0.20368570505196862 1.9704744276015715" fill="#ff1a02" stroke="none" /><path d="M 102.87502721639298 79.19773525538626 l 8.62508164917894 -62.40679423384121 a84.0,84.0 0 0,0 1.4266995775692721,0.20967570680447034 l -9.695106332355895 62.24953745373786" fill="#4dd2ff" stroke="none" /><path d="M 110.02825361518725 81.54914285379988 l 0.16795268444837191 -0.3090140224799123 a21.351706938092825,21.351706938092825 0 0,0 0.3205357002391181,0.1777957496566743 l -0.17323257284359025 0.30608535739009196" fill="#ff0300" stroke="none" /><line stroke="#e1ed5e" stroke-width="0.3" x1="143.13028292997686" x2="145.6673583964461" y1="26.7553504044142" y2="22.446841604673864" /><path d="M 143.63769802327073 25.89364864446614 a86.0,86.0 0 0,1 29.32050498858742,28.57503671076993" fill="none" id="id26" stroke="none" /><text fill="#e1ed5e" style="font-size:6.75px; font-family:Arial;" text-anchor="middle"><textPath startOffset="20.669276256404974" xlink:href="#id26">February</textPath></text><path d="M 115.16444852881244 85.47280134310134 l 0.6926424040989598 -0.6635357549217424 a21.95918361016833,21.95918361016833 0 0,0 0.25843257738892556,0.27444644148264563 l -0.7039308152241454 0.651547853494602" fill="#ff0c01" stroke="none" /><path d="M 115.41159269507618 85.73525988315684 l 0.6723151968272235 -0.6222849091001877 a21.916103832531366,21.916103832531366 0 0,0 0.25318557992191665,0.27829530391964835 l -0.6828984775910177 0.6106520296228677" fill="#ff0b01" stroke="none" /><path d="M 115.8921839302757 86.27271002978787 l 2.185044558852835 -1.8873894480962456 a23.887327250755867,23.887327250755867 0 0,0 0.2653830148040977,0.3126205241431301 l -2.217122137164045 1.8496021415035635" fill="#ff2703" stroke="none" /><path d="M 116.1254893667686 86.54754324733833 l 3.3941931018969718 -2.831556604263322 a25.42021035880785,25.42021035880785 0 0,0 0.27666047300612967,0.337480792703805 l -3.442300394141729 2.7728735298610214" fill="#ff3c05" stroke="none" /><path d="M 117.42321728460499 88.27688183743584 l 4.504659227435346 -3.030935764772378 a26.42941307744168,26.42941307744168 0 0,0 0.2500418320074605,0.3785952027325371 l -4.556025498363532 2.9531606837007818" fill="#ff4a06" stroke="none" /><line stroke="#e1ed5e" stroke-width="0.3" x1="172.87174338648825" x2="177.1583165268699" y1="56.24261187166439" y2="53.66864786411523" /><path d="M 173.72905801456457 55.72781907015455 a86.0,86.0 0 0,1 12.242430191666344,42.057860355516425" fill="none" id="id27" stroke="none" /><text fill="#e1ed5e" style="font-size:6.75px; font-family:Arial;" text-anchor="middle"><textPath startOffset="22.145653131862474" xlink:href="#id27">March</textPath></text><path d="M 119.83427380445688 93.10060997987247 l 0.5739710326105498 -0.19965691979837802 a21.60770521793004,21.60770521793004 0 0,0 0.1188573790017999,0.3513807214466204 l -0.5773138331847147 0.18977452387759597" fill="#ff0701" stroke="none" /><path d="M 119.94978838288452 93.4421083053983 l 1.092767421722668 -0.3592143566392168 a22.150293698145884,22.150293698145884 0 0,0 0.11564065453397396,0.36224270327494384 l -1.098772792033899 0.34040261967288593" fill="#ff0e01" stroke="none" /><path d="M 120.51834098615036 95.52812308129327 l 1.3885838481116002 -0.30263538676205004 a22.421180242107607,22.421180242107607 0 0,0 0.07873281700345203,0.3767650309621194 l -1.393574375939419 0.27875390451452625" fill="#ff1202" stroke="none" /><path d="M 120.86939407059847 97.66154086499901 l 1.7206162999455397 -0.19279864527105822 a22.731384350528973,22.731384350528973 0 0,0 0.04012371587875267,0.38816055382610637 l -1.7236724083059585 0.16323356916202042" fill="#ff1702" stroke="none" /><path d="M 120.9064616781168 98.02013634271609 l 5.336588595542081 -0.5053804884280786 a26.360465210795944,26.360465210795944 0 0,0 0.03879554684133034,0.4508630611954279 l -5.344477765081153 0.41369637985698865" fill="#ff4906" stroke="none" /><line stroke="#e1ed5e" stroke-width="0.3" x1="184.99686870605535" x2="189.99668451229388" y1="99.2704041080226" y2="99.22748670261217" /><path d="M 185.99683186730306 99.26182062694052 a86.0,86.0 0 0,1 -10.086455211305974,41.156179273409016" fill="none" id="id28" stroke="none" /><text fill="#e1ed5e" style="font-size:6.75px; font-family:Arial;" text-anchor="middle"><textPath startOffset="21.40746469413373" xlink:href="#id28">April</textPath></text><path d="M 120.99922638620191 100.18025310272382 l 0.949278189317674 0.008148411556960897 a21.94931316083005,21.94931316083005 0 0,0 -0.006468325040859312,0.37674750577056426 l -0.9489984326781463 -0.024442833296596203" fill="#ff0b01" stroke="none" /><path d="M 120.99303781780057 100.54070618675476 l 5.025377472095041 0.12943589744004197 a26.027044100521344,26.027044100521344 0 0,0 -0.01533775320432617,0.4465419495872124 l -5.022415031893869 -0.21568411159136508" fill="#ff4506" stroke="none" /><path d="M 120.05942366710727 106.21446072829308 l 0.7557108249639091 0.23412114533405354 a21.791145727195794,21.791145727195794 0 0,0 -0.11376564073049379,0.3563692492410824 l -0.7515804684561604 -0.24705942826651947" fill="#ff0901" stroke="none" /><path d="M 119.94978838288452 106.5578916946017 l 0.8523079532267669 0.28017055321268636 a21.897175783233756,21.897175783233756 0 0,0 -0.12044966806457456,0.35608804112949005 l -0.8473728635898273 -0.29476026881633693" fill="#ff0b01" stroke="none" /><path d="M 119.58574465831526 107.57618678355244 l 1.483400277412267 0.5738110943704895 a22.59051424232839,22.59051424232839 0 0,0 -0.14301013793198922,0.3604789687250826 l -1.4733314645141533 -0.5991910803091363" fill="#ff1502" stroke="none" /><path d="M 119.0197475246899 108.90220220490707 l 0.9251780724386895 0.43303005288077084 a22.02150354498616,22.02150354498616 0 0,0 -0.16319060583377024,0.34100560183611917 l -0.9176082086450074 -0.4488481567819935" fill="#ff0d01" stroke="none" /><path d="M 118.5362547648365 109.86951160357373 l 1.2907273559882806 0.6872396165563132 a22.462284308218127,22.462284308218127 0 0,0 -0.18414222390105475,0.33880095160701695 l -1.278739782471887 -0.7092954016379334" fill="#ff1302" stroke="none" /><line stroke="#e1ed5e" stroke-width="0.3" x1="174.33088141563837" x2="178.70328620479359" y1="141.23008692659167" y2="143.65538615756765" /><path d="M 175.20536237346943 141.71514677278685 a86.0,86.0 0 0,1 -30.301960400862466,31.631185727798858" fill="none" id="id29" stroke="none" /><text fill="#e1ed5e" style="font-size:6.75px; font-family:Arial;" text-anchor="middle"><textPath startOffset="22.145653131862474" xlink:href="#id29">May</textPath></text><path d="M 118.18653347947321 110.5 l 1.6867089660595276 0.9738218755990231 a22.947643751198047,22.947643751198047 0 0,0 -0.19989177774621583,0.33945993912978584 l -1.6697434781835465 -1.0026329830223584" fill="#ff1a02" stroke="none" /><path d="M 117.81537515405839 111.11811171558189 l 1.1631564320763144 0.7258956402933866 a22.37107890585387,22.37107890585387 0 0,0 -0.20611466607256987,0.32404648980215073 l -1.1505240743778546 -0.7457558047742093" fill="#ff1201" stroke="none" /><path d="M 117.21940702142032 112.02048342749411 l 2.9605585135526655 2.0666997710209793 a24.610561542988478,24.610561542988478 0 0,0 -0.24479879633473753,0.3443401640379668 l -2.9246446186879673 -2.1172171617684503" fill="#ff3104" stroke="none" /><path d="M 117.01052211995028 112.31430620078461 l 3.503944320258522 2.536585471386439 a25.325724407902186,25.325724407902186 0 0,0 -0.2579581573060395,0.3499697826842101 l -3.4598841433686545 -2.596361563339526" fill="#ff3b05" stroke="none" /><path d="M 116.35404254752997 113.17365903436017 l 1.0469502189641955 0.8433489866801237 a22.344374305884923,22.344374305884923 0 0,0 -0.2431846580825087,0.296645741588359 l -1.0323187416430593 -0.8611970099669756" fill="#ff1101" stroke="none" /><path d="M 115.89218393027572 113.72728997021213 l 0.5929428252389384 0.5121698901499251 a21.783517192139726,21.783517192139726 0 0,0 -0.24686838475224732,0.2808909048437167 l -0.5840633765281056 -0.522273072804935" fill="#ff0901" stroke="none" /><path d="M 115.41159269507618 114.26474011684316 l 2.1721279228278894 2.0104891773825213 a23.959764592919655,23.959764592919655 0 0,0 -0.2819769544853622,0.2994497540538677 l -2.1372951346062674 -2.047480391380886" fill="#ff2803" stroke="none" /><path d="M 115.16444852881244 114.52719865689866 l 0.5769051788803286 0.5526621112442464 a21.798908627205822,21.798908627205822 0 0,0 -0.2611853871958345,0.26799921643968455 l -0.5673329905336869 -0.5624840197516682" fill="#ff0901" stroke="none" /><line stroke="#e1ed5e" stroke-width="0.3" x1="143.1302829299769" x2="145.66735839644613" y1="173.24464959558577" y2="177.55315839532614" /><path d="M 143.63769802327073 174.10635135553383 a86.0,86.0 0 0,1 -40.68552437913181,11.842963189579606" fill="none" id="id30" stroke="none" /><text fill="#e1ed5e" style="font-size:6.75px; font-family:Arial;" text-anchor="middle"><textPath startOffset="21.407464694133747" xlink:href="#id30">June</textPath></text><path d="M 107.407793817531 119.65005319985036 l 0.8472841791675161 2.2475219486579046 a23.401925350623245,23.401925350623245 0 0,0 -0.3771174005157716,0.1384827330896771 l -0.8085776269976175 -2.2617355307563036" fill="#ff2003" stroke="none" /><path d="M 107.06938296918513 119.77432235084164 l 0.5188868389236121 1.4514188382791036 a22.54138255982076,22.54138255982076 0 0,0 -0.3654862215116181,0.12713508011696237 l -0.49389484536697226 -1.4601123509646565" fill="#ff1402" stroke="none" /><path d="M 105.3480935250658 120.30758222061773 l 0.04214207112440973 0.16002030822666674 a21.16547644304738,21.16547644304738 0 0,0 -0.3521478778839666,0.08951461349453843 l -0.039388900015045775 -0.16072015355647518" fill="#ff0000" stroke="none" /><path d="M 102.15924093988457 120.88869738790638 l 0.2486676961542392 2.4056343871432175 a23.418452486139966,23.418452486139966 0 0,0 -0.4002329915296623,0.03790248041853161 l -0.20733514123956162 -2.409548623066933" fill="#ff2003" stroke="none" /><path d="M 100.72087961077811 120.9876233191556 l 0.029762526529750043 0.8665034861487255 a21.867014474788817,21.867014474788817 0 0,0 -0.3752657560826769,0.00966551471741166 l -0.014883456376329257 -0.8668867182161824" fill="#ff0a01" stroke="none" /><line stroke="#e1ed5e" stroke-width="0.3" x1="101.45913802915013" x2="101.54496967792366" y1="184.9874750549273" y2="189.98673829345242" /><path d="M 101.47630435890484 185.9873277026323 a86.0,86.0 0 0,1 -42.54439059252881,-10.42667462771756" fill="none" id="id31" stroke="none" /><text fill="#e1ed5e" style="font-size:6.75px; font-family:Arial;" text-anchor="middle"><textPath startOffset="22.145653131862474" xlink:href="#id31">July</textPath></text><path d="M 100.36049292484886 120.99690560180557 l 0.04280586240263782 2.4932268849628705 a23.49359432180892,23.49359432180892 0 0,0 -0.40329878725148977,0.0034618350404853238 l -3.05377230457531e-16 -2.4935943218089207" fill="#ff2103" stroke="none" /><path d="M 100.0 121.0 l 3.978570985136977e-16 3.2487497520975133 a24.248749752097513,24.248749752097513 0 0,0 -0.4162620343838815,-0.00357310892619974 l 0.055769109535028935 -3.2482710413657485" fill="#ff2c04" stroke="none" /><path d="M 99.63950707515114 120.99690560180557 l -0.016479446134990795 0.9598451204320368 a21.95998657665725,21.95998657665725 0 0,0 -0.37686127549583126,-0.009706609637795089 l 0.03295403570156595 -0.9594207934441943" fill="#ff0c01" stroke="none" /><path d="M 96.76829788921471 120.74984581791261 l -0.17384921308340875 1.1162366590061727 a22.129693687598095,22.129693687598095 0 0,0 -0.3748585664392025,-0.061682834457155486 l 0.19298528257567482 -1.1130878260533488" fill="#ff0e01" stroke="none" /><path d="M 96.41257539226777 120.69131181640829 l -0.576918249440297 3.3275111527128765 a24.3771534075262,24.3771534075262 0 0,0 -0.41170140993081117,-0.07502571138493538 l 0.6339543929221654 -3.3171172673965748" fill="#ff2e04" stroke="none" /><path d="M 95.70440661134978 120.55596938700252 l -0.2529300924245024 1.2103620539753925 a22.23650715054843,22.23650715054843 0 0,0 -0.3729777876924034,-0.08128877286413044 l 0.2736702967360422 -1.2058418229775434" fill="#ff1001" stroke="none" /><path d="M 95.00130118170881 120.39639698878247 l -0.7273485495130861 2.9678302903145237 a24.05565910150121,24.05565910150121 0 0,0 -0.4002342837161555,-0.10173798981665597 l 0.7781881264546203 -2.9549070686626044" fill="#ff2904" stroke="none" /><path d="M 94.6519064749342 120.30758222061772 l -1.0285161615780447 3.9054433918530393 a25.03860540058023,25.03860540058023 0 0,0 -0.4147091739513711,-0.11303082949022684 l 1.095406736464111 -3.887212068218668" fill="#ff3705" stroke="none" /><path d="M 93.61358852112213 120.00534299687104 l -0.2649318434804143 0.8298952263173445 a21.871157258108,21.871157258108 0 0,0 -0.3566844791539291,-0.11724927295187082 l 0.27913906028208696 -0.8252250319634521" fill="#ff0a01" stroke="none" /><path d="M 92.25597844496254 119.51999308798841 l -1.5676836928242173 3.951586992700827 a25.251196528229357,25.251196528229357 0 0,0 -0.4015487823907439,-0.16330639405496686 l 1.6352869364054021 -3.924093342066569" fill="#ff3a05" stroke="none" /><path d="M 91.92203290615298 119.3841803445677 l -0.778093782943765 1.8671418239692186 a23.02278237234529,23.02278237234529 0 0,0 -0.363502243174009,-0.15515749243149846 l 0.8100311012882051 -1.8535096818783163" fill="#ff1b02" stroke="none" /><path d="M 90.93487009805054 118.94263497670748 l -0.4834240804622792 1.0101703995635112 a22.119885296682256,22.119885296682256 0 0,0 -0.3411094352775808,-0.16685371800605014 l 0.5006937650019294 -1.0017229314602398" fill="#ff0e01" stroke="none" /><path d="M 90.28995756902619 118.62028667847754 l -1.5947202947174428 3.0580864368732708 a24.44891656520884,24.44891656520884 0 0,0 -0.3704723187119357,-0.19725564277776986 l 1.6469814292159404 -3.030260326372928" fill="#ff2f04" stroke="none" /><path d="M 89.97174638481275 118.45085714620012 l -0.3783719232302977 0.6961617218258658 a21.79234238509911,21.79234238509911 0 0,0 -0.3271505995521236,-0.18146492279832913 l 0.39026671093852394 -0.6895638835943884" fill="#ff0901" stroke="none" /><line stroke="#e1ed5e" stroke-width="0.3" x1="58.13341422392154" x2="55.67067388415222" y1="173.97424548756322" y2="178.32567169271397" /><path d="M 57.64086615596768 174.84453072859336 a86.0,86.0 0 0,1 -31.369924170532247,-30.572349798747897" fill="none" id="id32" stroke="none" /><text fill="#e1ed5e" style="font-size:6.75px; font-family:Arial;" text-anchor="middle"><textPath startOffset="22.145653131862474" xlink:href="#id32">August</textPath></text><path d="M 87.83215693770417 117.11559508785305 l -1.5339185076999808 2.157648478957541 a23.64732939903827,23.64732939903827 0 0,0 -0.32883186849816437,-0.23804891400208206 l 1.570731386572099 -2.130998793582394" fill="#ff2403" stroke="none" /><path d="M 87.2517909369889 116.68781488649013 l -1.0177685925861526 1.3322917585060083 a22.676560239847596,22.676560239847596 0 0,0 -0.3073106444828956,-0.23896661590171464 l 1.0404891817042765 -1.3146240909835005" fill="#ff1602" stroke="none" /><path d="M 86.13680546590413 115.77377054828092 l -1.6618782414482351 1.8909123719870464 a23.517417106467015,23.517417106467015 0 0,0 -0.300950116918572,-0.269111450299097 l 1.694093385190178 -1.8621053918045671" fill="#ff2203" stroke="none" /><path d="M 85.08716467003676 114.78537596483092 l -0.7998715084588065 0.7930350409192803 a22.126365396383434,22.126365396383434 0 0,0 -0.265108836966194,-0.27202502154113556 l 0.81336714657581 -0.7791873273104074" fill="#ff0e01" stroke="none" /><path d="M 83.4222238831116 112.89097897827486 l -0.6741775546121994 0.5242445441929304 a21.854018569621843,21.854018569621843 0 0,0 -0.22774803575353603,-0.2981294896115394 l 0.6830775677200306 -0.5125941413405207" fill="#ff0a01" stroke="none" /><path d="M 82.78059297857968 112.02048342749411 l -2.0005669075699277 1.3965510733396846 a23.439799756559978,23.439799756559978 0 0,0 -0.22748913130383666,-0.33191344116735294 l 2.024245775689089 -1.3620028971022808" fill="#ff2103" stroke="none" /><path d="M 82.576782715395 111.72311816256416 l -3.6932461593104917 2.484980840323299 a25.451426397238933,25.451426397238933 0 0,0 -0.24078935332091775,-0.36458577072675474 l 3.735359951552136 -2.4212151912574833" fill="#ff3d05" stroke="none" /><path d="M 82.18462484594161 111.11811171558189 l -1.4364226597521403 0.8964339770459173 a22.693193412653077,22.693193412653077 0 0,0 -0.20340885662242336,-0.33225308052369146 l 1.4515994808299684 -0.8716437803976688" fill="#ff1602" stroke="none" /><line stroke="#e1ed5e" stroke-width="0.3" x1="26.387840678322732" x2="22.057713659400548" y1="142.50000000000003" y2="145.00000000000006" /><path d="M 25.521815274538298 143.00000000000003 a86.0,86.0 0 0,1 -11.493303480769221,-40.785679425670985" fill="none" id="id33" stroke="none" /><text fill="#e1ed5e" style="font-size:6.75px; font-family:Arial;" text-anchor="middle"><textPath startOffset="21.40746469413373" xlink:href="#id33">September</textPath></text><path d="M 81.1358732173502 109.22738970284198 l -0.2900185466503648 0.1418626041813986 a21.322855626970195,21.322855626970195 0 0,0 -0.1580132673848937,-0.33018695572197343 l 0.29241107199517047 -0.1368631463943205" fill="#ff0200" stroke="none" /><path d="M 80.9802524753101 108.90220220490708 l -0.37183190515945574 0.17403610650816329 a21.410545408040367,21.410545408040367 0 0,0 -0.15294830605391893,-0.33421965150230154 l 0.3747646760684307 -0.16762747279117288" fill="#ff0400" stroke="none" /><path d="M 79.73907114497094 105.5222062557868 l -3.840540230326287 1.0467563178992412 a24.980634126595493,24.980634126595493 0 0,0 -0.10921357090427368,-0.41470171760291785 l 3.8579432820352935 -0.9806740959235207" fill="#ff3605" stroke="none" /><path d="M 79.48165901384964 104.47187691870673 l -1.9831233159708868 0.4322124965963548 a23.029676262008653,23.029676262008653 0 0,0 -0.08086957364448845,-0.38699018500408516 l 1.990250600439742 -0.39810586030686057" fill="#ff1b02" stroke="none" /><path d="M 79.407916724674 104.11899336999214 l -0.7848622907085172 0.15699443949213757 a21.80040993834889,21.80040993834889 0 0,0 -0.07025307477604688,-0.36759377335197996 l 0.787441657766721 -0.14349810110684308" fill="#ff0901" stroke="none" /><path d="M 79.2786578344484 103.40968896794605 l -1.2893120355014098 0.21215580480098653 a22.306650531090675,22.306650531090675 0 0,0 -0.05893046127895395,-0.37837583527140933 l 1.2927639889186313 -0.1899917875981272" fill="#ff1101" stroke="none" /><path d="M 79.17382384314188 102.69636545807758 l -1.460094061295796 0.18903840833622004 a22.4722806076484,22.4722806076484 0 0,0 -0.04624786118333496,-0.3829986344490018 l 1.4631240087387922 -0.16394609696381895" fill="#ff1302" stroke="none" /><path d="M 79.13060592940153 102.33845913500099 l -3.071787577168092 0.34420020515743055 a24.091011598243306,24.091011598243306 0 0,0 -0.04252362679253874,-0.4113775148933094 l 3.077243596442297 -0.2914181679811897" fill="#ff2a04" stroke="none" /><line stroke="#e1ed5e" stroke-width="0.3" x1="15.003131293944662" x2="10.003315487706104" y1="100.72959589197737" y2="100.7725132973878" /><path d="M 14.003168132696942 100.73817937305945 a86.0,86.0 0 0,1 10.791469493833604,-42.45332614584628" fill="none" id="id34" stroke="none" /><text fill="#e1ed5e" style="font-size:6.75px; font-family:Arial;" text-anchor="middle"><textPath startOffset="22.145653131862435" xlink:href="#id34">October</textPath></text><path d="M 79.00077361379809 100.18025310272382 l -2.2949096520274885 0.019699039271304265 a23.29499419675021,23.29499419675021 0 0,0 0.0,-0.3999042839902428 l 2.2949096520274885 0.019699039271303422" fill="#ff1f03" stroke="none" /><path d="M 81.46374523516351 90.13048839642627 l -3.1062093509022266 -1.653881521417963 a24.51907098799104,24.51907098799104 0 0,0 0.2010034330330475,-0.3698236772923259 l 3.0773605682538285 1.7069600321849085" fill="#ff3004" stroke="none" /><line stroke="#e1ed5e" stroke-width="0.3" x1="26.387840678322718" x2="22.05771365940052" y1="57.49999999999999" y2="54.99999999999999" /><path d="M 25.521815274538284 56.99999999999999 a86.0,86.0 0 0,1 29.574782752854787,-30.34633250058573" fill="none" id="id35" stroke="none" /><text fill="#e1ed5e" style="font-size:6.75px; font-family:Arial;" text-anchor="middle"><textPath startOffset="21.40746469413373" xlink:href="#id35">November</textPath></text><path d="M 83.42222388311158 87.10902102172516 l -0.6438606453930006 -0.500669932213895 a21.815614438144003,21.815614438144003 0 0,0 0.2324231088568305,-0.2936590053766762 l 0.6351711058946085 0.5116488815052541" fill="#ff0a01" stroke="none" /><path d="M 84.58840730492382 85.73525988315684 l -1.125116056065304 -1.0413906244866389 a22.533095095675613,22.533095095675613 0 0,0 0.2651868095600979,-0.28161920198773893 l 1.1070734127689346 1.0605512864188888" fill="#ff1402" stroke="none" /><path d="M 85.86807049272753 84.46653392183569 l -0.10128909421357785 -0.1113344577783892 a21.15051525535777,21.15051525535777 0 0,0 0.2706611023723815,-0.2420268267205616 l 0.09936296501780448 0.11305681438235175" fill="#ff0000" stroke="none" /><path d="M 88.12776184653039 82.6780497279521 l -1.951365895428639 -2.8471011587066926 a24.45163930122355,24.45163930122355 0 0,0 0.3482655274814049,-0.23432858948615384 l 1.9022040798502446 2.880179422249956" fill="#ff2f04" stroke="none" /><line stroke="#e1ed5e" stroke-width="0.3" x1="56.869717070023135" x2="54.33264160355391" y1="26.7553504044142" y2="22.446841604673864" /><path d="M 56.362301976729285 25.89364864446614 a86.0,86.0 0 0,1 42.16139366436587,-11.88097634709845" fill="none" id="id36" stroke="none" /><text fill="#e1ed5e" style="font-size:6.75px; font-family:Arial;" text-anchor="middle"><textPath startOffset="22.145653131862474" xlink:href="#id36">December</textPath></text><path d="M 90.28995756902619 81.37971332152246 l -0.17758922542253366 -0.34055075576479354 a21.384073886430915,21.384073886430915 0 0,0 0.3269449530380194,-0.1669404225962356 l 0.17171705067093193 0.34354913003386306" fill="#ff0300" stroke="none" /><path d="M 90.93487009805054 81.0573650232925 l -0.4534852761720261 -0.9476098132902381 a22.05052998717256,22.05052998717256 0 0,0 0.3428450907583939,-0.16046881373840283 l 0.43715147154210965 0.9552548585991838" fill="#ff0d01" stroke="none" /><path d="M 91.92203290615298 80.6158196554323 l -0.4212791065089178 -1.010916494347612 a22.095184114258885,22.095184114258885 0 0,0 0.35136134114917117,-0.142895598616341 l 0.40386330416930577 1.0179993495432444" fill="#ff0e01" stroke="none" /><path d="M 92.93061703081487 80.22567764915836 l -0.322720202408168 -0.9027058428387235 a21.958658525095114,21.958658525095114 0 0,0 0.35603792768712594,-0.12384847306683101 l 0.30717650267603774 0.9081127484741403" fill="#ff0c01" stroke="none" /></svg>