<?xml version="1.0" encoding="utf-8" ?>
<svg baseProfile="full" height="200mm" version="1.1" viewBox="0,0,200,200" width="200mm" xmlns="http://www.w3.org/2000/svg" xmlns:ev="http://www.w3.org/2001/xml-events" xmlns:xlink="http://www.w3.org/1999/xlink"><defs /><rect fill="#1a1a1a" height="200" width="200" x="0" y="0" /><text alignment-baseline="middle" fill="#e1ed5e" style="dominant-baseline: central; font-size:9.0px; font-family:Arial;" text-anchor="middle" x="100.0" y="100.0">2020</text><line stroke="#e1ed5e" stroke-width="0.3" x1="100.0" x2="100.0" y1="15.0" y2="10.0" /><path d="M 100.0 14.0 a86.0,86.0 0 0,1 42.35913384403234,11.155469271406648" fill="none" id="id73" stroke="none" /><text fill="#e1ed5e" style="font-size:6.75px; font-family:Arial;" text-anchor="middle"><textPath startOffset="22.145653131862478" xlink:href="#id73">January</textPath></text><path d="M 100.0 79.0 l 0.0 -3.7562434220202476 a24.756243422020248,24.756243422020248 0 0,0 0.4249738380702048,0.003647889283147171 l -0.06448091322135001 3.7556899309315352" fill="#ff3004" stroke="none" /><path d="M 102.15924093988457 79.11130261209362 l 0.3849879626139312 -3.724409305364011 a24.744254318985245,24.744254318985245 0 0,0 0.42214180781675437,0.04730187006941736 l -0.44886567203148225 3.7172516747876228" fill="#ff3004" stroke="none" /><path d="M 103.94208987418118 79.37332000966035 l 0.7060142795067198 -3.694165043616669 a24.761025329926234,24.761025329926234 0 0,0 0.4168147369517105,0.08337462096787196 l -0.7693255019893872 3.6815010259859378" fill="#ff3004" stroke="none" /><path d="M 104.64783097203109 79.52079915486377 l 0.8268680501487269 -3.6433331963494457 a24.735985486050318,24.735985486050318 0 0,0 0.4132886644100924,0.09753499947409107 l -0.8892888682987042 3.628602053229127" fill="#ff3004" stroke="none" /><path d="M 105.3480935250658 79.69241777938227 l 0.5074094831005658 -1.9267164549930147 a22.992410771272137,22.992410771272137 0 0,0 0.38081848112371214,0.10379377045483354 l -0.5404093651589706 1.9177221903940391" fill="#ff1702" stroke="none" /><path d="M 106.04205211174951 79.88797359093562 l 1.0971118181356574 -3.651928426292886 a24.813166082438446,24.813166082438446 0 0,0 0.40688791279045883,0.1260549154759483 l -1.1596403637977464 3.6325569230102914" fill="#ff3104" stroke="none" /><path d="M 106.72888874123014 80.10723608172694 l 0.1291706367493268 -0.38187003543137976 a21.40312501455329,21.40312501455329 0 0,0 0.3470305013168704,0.12071522260257628 l -0.13570691011121552 0.3795963802602131" fill="#ff0000" stroke="none" /><path d="M 107.06938296918511 80.22567764915836 l 1.3981666344923014 -3.910920917873135 a25.153332681554076,25.153332681554076 0 0,0 0.40534098340432123,0.14884682366370922 l -1.4650967695507473 3.8863432452007034" fill="#ff3505" stroke="none" /><path d="M 109.71004243097381 81.37971332152246 l 1.734307479063628 -3.32576326811723 a24.750803080340773,24.750803080340773 0 0,0 0.37504677897280514,0.19969128520918253 l -1.7911430738229928 3.2955015151854745" fill="#ff3004" stroke="none" /><line stroke="#e1ed5e" stroke-width="0.3" x1="143.13028292997686" x2="145.6673583964461" y1="26.7553504044142" y2="22.446841604673864" /><path d="M 143.63769802327073 25.89364864446614 a86.0,86.0 0 0,1 29.32050498858742,28.57503671076993" fill="none" id="id74" stroke="none" /><text fill="#e1ed5e" style="font-size:6.75px; font-family:Arial;" text-anchor="middle"><textPath startOffset="20.669276256404974" xlink:href="#id74">February</textPath></text><path d="M 110.96478420261332 82.08984904055464 l 8.37983120477754 -13.68782450424021 a37.04924019009754,37.04924019009754 0 0,0 0.5395707929151274,0.33673208126234094 l -8.61356612648238 13.541956626136324" fill="#ffd313" stroke="none" /><path d="M 113.31354834802062 83.75963576809568 l 2.382001324960335 -2.905654308453834 a24.75722733839052,24.75722733839052 0 0,0 0.32635409248834996,0.2722561911392976 l -2.4315297516105776 2.8643359334026663" fill="#ff3004" stroke="none" /><path d="M 116.35404254752997 86.82634096563983 l 2.943373816761999 -2.3709735962832177 a24.77954563664368,24.77954563664368 0 0,0 0.2640007710650793,0.3335563500159631 l -2.9836410184686377 2.3200973023525764" fill="#ff3004" stroke="none" /><path d="M 116.7966241395341 87.39550010848427 l 3.052112511491139 -2.2903621287468385 a24.815907423352733,24.815907423352733 0 0,0 0.2527653561928522,0.34292475066784056 l -3.090979887267817 2.237631068810123" fill="#ff3104" stroke="none" /><path d="M 117.21940702142032 87.97951657250589 l 2.9765349547127378 -2.077852567743659 a24.630045678762965,24.630045678762965 0 0,0 0.2390407662875832,0.3487676218334358 l -3.011765457815646 2.0264502108401743" fill="#ff2e04" stroke="none" /><line stroke="#e1ed5e" stroke-width="0.3" x1="172.87174338648825" x2="177.1583165268699" y1="56.24261187166439" y2="53.66864786411523" /><path d="M 173.72905801456457 55.72781907015455 a86.0,86.0 0 0,1 12.242430191666344,42.057860355516425" fill="none" id="id75" stroke="none" /><text fill="#e1ed5e" style="font-size:6.75px; font-family:Arial;" text-anchor="middle"><textPath startOffset="22.145653131862474" xlink:href="#id75">March</textPath></text><path d="M 118.18653347947321 89.5 l 3.2590499655578737 -1.8816133749172796 a24.76322674983456,24.76322674983456 0 0,0 0.2093868021514653,0.36996641634576255 l -3.2908701327307153 1.825390188472399" fill="#ff3004" stroke="none" /><path d="M 118.70294669586156 90.45014215332178 l 3.38080437435213 -1.726262802729091 a24.7960270654626,24.7960270654626 0 0,0 0.19031551401978003,0.3807585153482443 l -3.409939801583647 1.6679724312170963" fill="#ff3004" stroke="none" /><path d="M 119.4528033332814 92.08871423366111 l 1.7532557726296705 -0.7130338594965302 a22.89270258864085,22.89270258864085 0 0,0 0.14492315313049275,0.36530101669932996 l -1.7652376007262878 0.682831825583635" fill="#ff1502" stroke="none" /><path d="M 119.71291397450082 92.76114493625339 l 3.539512529746448 -1.299758028279959 a24.77061266643901,24.77061266643901 0 0,0 0.14315034957649447,0.40041700520400636 l -3.561303049366886 1.2388060666950358" fill="#ff3004" stroke="none" /><path d="M 119.94978838288452 93.4421083053983 l 3.5826088911020997 -1.1776747021598029 a24.771207256398274,24.771207256398274 0 0,0 0.12932373086169974,0.4051047449855136 l -3.6022973377410565 1.1160009234829023" fill="#ff3004" stroke="none" /><path d="M 120.26092885502905 94.47779374421319 l 3.978566837073778 -1.084376083345329 a25.123695620095475,25.123695620095475 0 0,0 0.10983902566594712,0.4170766712080483 l -3.9965953435444557 1.0159189077644821" fill="#ff3505" stroke="none" /><path d="M 120.35273937422433 94.82641323984039 l 6.292868635286305 -1.5996225990184034 a27.492995311892695,27.492995311892695 0 0,0 0.11234485386616772,0.45840534154934187 l -6.319401015668764 1.4913614328609666" fill="#ff5607" stroke="none" /><path d="M 120.51834098615036 95.52812308129327 l 3.706662146896077 -0.8078497628700553 a24.79367440756339,24.79367440756339 0 0,0 0.08706391942328741,0.41663237193405794 l -3.7199837771437316 0.744100939650593" fill="#ff3004" stroke="none" /><path d="M 120.592083275326 95.88100663000786 l 12.260031704284934 -2.4523497030702237 a33.5028955228867,33.5028955228867 0 0,0 0.1079650075865366,0.5649185413624301 l -12.300323004153627 2.2415285966744793" fill="#ffa60f" stroke="none" /><path d="M 120.65975698304385 96.23510406497455 l 3.7905779019405763 -0.6907695645271227 a24.85300446690076,24.85300446690076 0 0,0 0.07288461028382852,0.42037906378565626 l -3.801877329716639 0.6255974678208738" fill="#ff3104" stroke="none" /><path d="M 120.77682067341334 96.94652285012252 l 3.7629483426884223 -0.5530238221323007 a24.803368977313056,24.803368977313056 0 0,0 0.05829439366355855,0.4217891932297989 l -3.7718872529071934 0.4883463207024162" fill="#ff3004" stroke="none" /><path d="M 120.82617615685814 97.30363454192243 l 12.508063416506017 -1.6194192294202967 a33.61246086503155,33.61246086503155 0 0,0 0.06917430639358879,0.5728624894171009 l -12.53401980915927 1.4044630630797827" fill="#ffa70f" stroke="none" /><path d="M 120.9064616781168 98.02013634271609 l 3.747105323324907 -0.3548547699695848 a24.763870376601727,24.763870376601727 0 0,0 0.03644578672969013,0.42355528689488947 l -3.752644732752338 0.29047843569903337" fill="#ff3004" stroke="none" /><path d="M 120.93736805541906 98.37931529534042 l 15.912237558589084 -1.231707823058509 a36.95983735137538,36.95983735137538 0 0,0 0.04353523676459345,0.6329927878861149 l -15.931036756518743 0.95837161101806" fill="#ffd213" stroke="none" /><path d="M 120.98066250479742 99.09900007780936 l 3.7903035682317046 -0.16277194389237196 a24.793797022122888,24.793797022122888 0 0,0 0.014610999937399305,0.42538332117807875 l -3.792539255165952 0.09768235815017322" fill="#ff3004" stroke="none" /><line stroke="#e1ed5e" stroke-width="0.3" x1="184.99686870605535" x2="189.99668451229388" y1="99.2704041080226" y2="99.22748670261217" /><path d="M 185.99683186730306 99.26182062694052 a86.0,86.0 0 0,1 -10.086455211305974,41.156179273409016" fill="none" id="id76" stroke="none" /><text fill="#e1ed5e" style="font-size:6.75px; font-family:Arial;" text-anchor="middle"><textPath startOffset="21.40746469413373" xlink:href="#id76">April</textPath></text><path d="M 119.58574465831526 107.57618678355244 l 3.4895143416228804 1.3498191106456543 a24.741486599181666,24.741486599181666 0 0,0 -0.15662695294300413,0.3948022377147624 l -3.465828713713752 -1.4095223655739808" fill="#ff3004" stroke="none" /><path d="M 119.31412917781788 108.2440532568976 l 3.4714300005268024 1.4817470432373072 a24.774440428553618,24.774440428553618 0 0,0 -0.1703137995177251,0.38971130350619226 l -3.4454823189921115 -1.5411204165193442" fill="#ff3004" stroke="none" /><path d="M 119.16976305983485 108.57439118712176 l 6.227987283030058 2.7856994948992035 a27.822605607351623,27.822605607351623 0 0,0 -0.19875347949112243,0.43431222198024955 l -6.17924933868388 -2.892200699094142" fill="#ff5a08" stroke="none" /><path d="M 118.8641267826498 109.22738970284198 l 3.3842243127390033 1.6553936970036012 a24.767399964300715,24.767399964300715 0 0,0 -0.19009579408408223,0.38031892829229336 l -3.355308605443189 -1.7132444814596401" fill="#ff3004" stroke="none" /><path d="M 118.5362547648365 109.86951160357373 l 3.9534271934243055 2.1049773028262133 a25.478896741288004,25.478896741288004 0 0,0 -0.20887193146111027,0.38430082815250743 l -3.9167099123478564 -2.1725329644533242" fill="#ff3a05" stroke="none" /><line stroke="#e1ed5e" stroke-width="0.3" x1="174.33088141563837" x2="178.70328620479359" y1="141.23008692659167" y2="143.65538615756765" /><path d="M 175.20536237346943 141.71514677278685 a86.0,86.0 0 0,1 -30.301960400862466,31.631185727798858" fill="none" id="id77" stroke="none" /><text fill="#e1ed5e" style="font-size:6.75px; font-family:Arial;" text-anchor="middle"><textPath startOffset="22.145653131862474" xlink:href="#id77">May</textPath></text><path d="M 117.62189284568427 111.42229804090321 l 3.9171779150263344 2.539067398519142 a25.668098764185782,25.668098764185782 0 0,0 -0.24283923446727676,0.36768955204987447 l -3.873014241638331 -2.6059368289080775" fill="#ff3d05" stroke="none" /><path d="M 117.423217284605 111.72311816256416 l 14.178844532826758 9.540159383412247 a38.089595470548154,38.089595470548154 0 0,0 -0.369669070354781,0.5393582213416382 l -14.012985725656657 -9.782152339823929" fill="#ffe015" stroke="none" /><path d="M 116.57777611688842 112.89097897827486 l 3.877741224448634 3.01535503043937 a25.912152579407973,25.912152579407973 0 0,0 -0.27606754220721,0.3488023211637305 l -3.825407251599862 -3.0814772955177836" fill="#ff4006" stroke="none" /><path d="M 115.89218393027572 113.72728997021213 l 2.868890771215657 2.478079518971409 a24.790964568485432,24.790964568485432 0 0,0 -0.280951203861631,0.3196708964933861 l -2.82592850339544 -2.5269626932760882" fill="#ff3004" stroke="none" /><path d="M 115.16444852881244 114.52719865689866 l 4.0594418924317095 3.8888535046589205 a26.621587859202016,26.621587859202016 0 0,0 -0.3189687085570788,0.3272899945890945 l -3.9920863827238233 -3.9579661913157524" fill="#ff4a06" stroke="none" /><path d="M 114.39649973595853 115.28858382429668 l 2.658866519822648 2.8236241038779157 a24.878456426238944,24.878456426238944 0 0,0 -0.31343328124026376,0.2901091658287989 l -2.610003467268417 -2.8688510158390943" fill="#ff3204" stroke="none" /><path d="M 113.03279911837588 116.46651593811092 l 2.589808847068672 3.2721388758911005 a25.17300882906723,25.17300882906723 0 0,0 -0.34114228458866996,0.26527430387681267 l -2.5332566178447715 -3.316114231388706" fill="#ff3605" stroke="none" /><path d="M 112.45986205192187 116.90419585922612 l 2.2466442509757028 3.0480044069701204 a24.78652099629085,24.78652099629085 0 0,0 -0.3446730865562517,0.24951673423623408 l -2.1939901540454834 -3.0861219125794315" fill="#ff3004" stroke="none" /><path d="M 111.5731344415666 117.5232005979908 l 3.2436455941762414 4.911292848322367 a26.88574839613463,26.88574839613463 0 0,0 -0.3873011989216088,0.2510439579006531 l -3.1588587629976232 -4.966250647926914" fill="#ff4d07" stroke="none" /><path d="M 111.27062007382361 117.71928675628689 l 1.1339567921054052 1.7827684224066183 a23.112846718125137,23.112846718125137 0 0,0 -0.33660655296131337,0.21006738436087638 l -1.103186110354377 -1.8019716036090423" fill="#ff1902" stroke="none" /><line stroke="#e1ed5e" stroke-width="0.3" x1="143.1302829299769" x2="145.66735839644613" y1="173.24464959558577" y2="177.55315839532614" /><path d="M 143.63769802327073 174.10635135553383 a86.0,86.0 0 0,1 -40.68552437913181,11.842963189579606" fill="none" id="id78" stroke="none" /><text fill="#e1ed5e" style="font-size:6.75px; font-family:Arial;" text-anchor="middle"><textPath startOffset="21.407464694133747" xlink:href="#id78">June</textPath></text><path d="M 110.65571695917076 118.09573695890943 l 1.6751561600750298 2.8447813839242135 a24.301352644441227,24.301352644441227 0 0,0 -0.3612888255607225,0.2085902006926877 l -1.6260748666539089 -2.873118481893073" fill="#ff2904" stroke="none" /><path d="M 110.34350942703117 118.27599006163325 l 2.1370392380839074 3.77594356654944 a25.33874250479057,25.33874250479057 0 0,0 -0.3803898018786394,0.21099581087633373 l -2.0719052480491733 -3.8120722928589172" fill="#ff3805" stroke="none" /><path d="M 109.3889696526874 118.78422872680471 l 12.952326045136132 25.91332850951837 a49.97004218881514,49.97004218881514 0 0,0 -0.77058504794237,0.376931761457797 l -12.505580747931694 -26.131854021073387" fill="#94ff23" stroke="none" /><path d="M 109.06512990194946 118.94263497670748 l 1.8752806804545805 3.918615374842401 a25.34421731574716,25.34421731574716 0 0,0 -0.394055856746888,0.18443803800418176 l -1.8077361098361864 -3.9502296444171168" fill="#ff3805" stroke="none" /><path d="M 107.74402155503746 119.51999308798841 l 1.9260885480578618 4.855001355269496 a26.223107815719324,26.223107815719324 0 0,0 -0.419854105298455,0.1624085874228894 l -1.8424621802658776 -4.887349830830426" fill="#ff4406" stroke="none" /><path d="M 106.72888874123015 119.89276391827305 l 1.5655142558391681 4.628164723735079 a25.885769498785372,25.885769498785372 0 0,0 -0.4221565462774189,0.1387712418558558 l -1.4858349719140151 -4.654356886992954" fill="#ff4006" stroke="none" /><path d="M 106.38641147887787 120.00534299687104 l 2.242412914171544 7.024326515286956 a28.373572992180026,28.373572992180026 0 0,0 -0.46527169708370886,0.14414236109157166 l -2.1215005842162107 -7.061785464185172" fill="#ff6209" stroke="none" /><path d="M 106.0420521117495 120.11202640906438 l 2.0249163565715684 6.740287982673767 a28.037880955265404,28.037880955265404 0 0,0 -0.46214436984293095,0.13452349069706296 l -1.9089119743470309 -6.774055167673349" fill="#ff5d08" stroke="none" /><path d="M 105.69591212413111 120.21278271476187 l 1.0395724324229552 3.6890758204994367 a24.832752438085112,24.832752438085112 0 0,0 -0.4112996744738237,0.11210155524625334 l -0.9760913570144364 -3.7063778698898324" fill="#ff3104" stroke="none" /><path d="M 105.3480935250658 120.30758222061773 l 1.9670355265258315 7.4691542880802375 a28.723826418412195,28.723826418412195 0 0,0 -0.47790251947170065,0.12148095162643932 l -1.8385277138287335 -7.501820471541946" fill="#ff6709" stroke="none" /><path d="M 104.9986988182912 120.39639698878246 l 1.1695077435571322 4.771990689209162 a25.913211119027864,25.913211119027864 0 0,0 -0.432957741667482,0.10217684815071545 l -1.087417848149771 -4.791363681006103" fill="#ff4006" stroke="none" /><path d="M 104.29559338865022 120.5559693870025 l 1.1628685722695271 5.564747081471536 a26.68495148590717,26.68495148590717 0 0,0 -0.44920114922400245,0.0898528104567032 l -1.067170937514566 -5.5838892885911005" fill="#ff4b06" stroke="none" /><path d="M 103.94208987418118 120.62667999033965 l 1.8485421122172925 9.672353450666211 a30.847412310615177,30.847412310615177 0 0,0 -0.5209764622097491,0.09493926605367584 l -1.6822309164564861 -9.70266089065125" fill="#ff830c" stroke="none" /><path d="M 102.51750503828377 120.84855314841334 l 0.9470463466024865 7.84290231435361 a28.89987427084168,28.89987427084168 0 0,0 -0.49303749521396917,0.05524587971652854 l -0.8122729497877181 -7.85800395457711" fill="#ff6909" stroke="none" /><path d="M 102.15924093988457 120.88869738790638 l 0.24946920503663156 2.4133882585101194 a23.426247672966657,23.426247672966657 0 0,0 -0.40036621514659537,0.037915096833567245 l -0.2080034265050209 -2.4173151108488704" fill="#ff1d02" stroke="none" /><path d="M 101.80034050326958 120.92268563240118 l 0.3198291446220003 3.716899462547882 a24.730634302158062,24.730634302158062 0 0,0 -0.42328365462241463,0.032764831900702875 l -0.25597649522434984 -3.7218420614436383" fill="#ff2f04" stroke="none" /><path d="M 101.08105385017728 120.97215588758144 l 0.11515608486334819 2.2339972821535667 a23.23696329441289,23.23696329441289 0 0,0 -0.39854074192912403,0.01711505427370523 l -0.07678958233339457 -2.235644904853103" fill="#ff1a02" stroke="none" /><line stroke="#e1ed5e" stroke-width="0.3" x1="101.45913802915013" x2="101.54496967792366" y1="184.9874750549273" y2="189.98673829345242" /><path d="M 101.47630435890484 185.9873277026323 a86.0,86.0 0 0,1 -42.54439059252881,-10.42667462771756" fill="none" id="id79" stroke="none" /><text fill="#e1ed5e" style="font-size:6.75px; font-family:Arial;" text-anchor="middle"><textPath startOffset="22.145653131862474" xlink:href="#id79">July</textPath></text><path d="M 100.36049292484886 120.99690560180557 l 0.0717272660870598 4.177753656987948 a25.178369349300812,25.178369349300812 0 0,0 -0.4322201909359115,0.0037100905072996065 l -5.117026649276648e-16 -4.178369349300812" fill="#ff3605" stroke="none" /><path d="M 100.0 121.0 l 1.4676485387760883e-16 1.1984259786559868 a22.198425978655987,22.198425978655987 0 0,0 -0.3810655003850686,-0.003270989012745243 l 0.020572575536216272 -1.1982493878376765" fill="#ff0b01" stroke="none" /><path d="M 99.63950707515114 120.99690560180557 l -0.06687177609636497 3.8949457072123552 a24.895519720983355,24.895519720983355 0 0,0 -0.4272387546062681,-0.011004154798458846 l 0.13372384477337695 -3.893223835063849" fill="#ff3204" stroke="none" /><path d="M 98.55909050195518 120.95050786540614 l -0.2774923021015251 4.034677171367234 a25.044208433658866,25.044208433658866 0 0,0 -0.42865071487469125,-0.03318027630789045 l 0.34671201175145244 -4.029319128064289" fill="#ff3404" stroke="none" /><path d="M 98.19965949673042 120.92268563240118 l -0.08077007920924244 0.9386707529659302 a21.942139367699436,21.942139367699436 0 0,0 -0.3750020666349606,-0.03551308559850964 l 0.09687170922921831 -0.9371459118622368" fill="#ff0801" stroke="none" /><path d="M 97.48249496171623 120.84855314841334 l -0.4944833663167474 4.095031623328574 a25.12477851473567,25.12477851473567 0 0,0 -0.4277459780523656,-0.055380280631698746 l 0.564707166259907 -4.085939746496479" fill="#ff3505" stroke="none" /><path d="M 96.76829788921471 120.74984581791261 l -0.8417316884140466 5.40452125718933 a26.46967661335583,26.46967661335583 0 0,0 -0.44837425991813645,-0.07377981384311152 l 0.9343834513852465 -5.38927544485055" fill="#ff4806" stroke="none" /><path d="M 96.05791012581884 120.62667999033965 l -0.7080544324608529 3.704839985959277 a24.771893476874737,24.771893476874737 0 0,0 -0.41699768591085495,-0.0834112158834828 l 0.7715486039026659 -3.6921393734129326" fill="#ff3004" stroke="none" /><path d="M 95.35216902796893 120.47920084513623 l -0.8497875408552065 3.7443207013320428 a24.839541167772058,24.839541167772058 0 0,0 -0.4150188719821701,-0.09794332374999126 l 0.9139385665772645 -3.729181233935824" fill="#ff3104" stroke="none" /><path d="M 93.61358852112213 120.00534299687104 l -1.2834183778555541 4.020289789094433 a25.220176858961523,25.220176858961523 0 0,0 -0.4113017679379463,-0.1352030606123784 l 1.352242883441244 -3.9976658070800335" fill="#ff3605" stroke="none" /><path d="M 92.93061703081489 119.77432235084164 l -1.2578423059911956 3.5184087965831363 a24.73649136578888,24.73649136578888 0 0,0 -0.3986236680093895,-0.14638013240617728 l 1.318055125654704 -3.49629781516824" fill="#ff3004" stroke="none" /><path d="M 91.92203290615298 119.3841803445677 l -2.173843877795308 5.2164339466318514 a26.651263604239436,26.651263604239436 0 0,0 -0.4207916292167939,-0.17961092469569354 l 2.263070582182533 -5.178348372276754" fill="#ff4a06" stroke="none" /><path d="M 90.93487009805054 118.94263497670748 l -7.464073280633492 15.597042416792053 a38.291041671625145,38.291041671625145 0 0,0 -0.5904838757349905,-0.2888352531463415 l 7.7307174056305525 -15.46661341354849" fill="#ffe215" stroke="none" /><path d="M 90.28995756902619 118.62028667847754 l -1.7412964035301097 3.3391654523059415 a24.76591809295163,24.76591809295163 0 0,0 -0.3752758154519596,-0.19981323423380276 l 1.7983610347686312 -3.308781750349566" fill="#ff3004" stroke="none" /><line stroke="#e1ed5e" stroke-width="0.3" x1="58.13341422392154" x2="55.67067388415222" y1="173.97424548756322" y2="178.32567169271397" /><path d="M 57.64086615596768 174.84453072859336 a86.0,86.0 0 0,1 -31.369924170532247,-30.572349798747897" fill="none" id="id80" stroke="none" /><text fill="#e1ed5e" style="font-size:6.75px; font-family:Arial;" text-anchor="middle"><textPath startOffset="22.145653131862474" xlink:href="#id80">August</textPath></text><path d="M 89.65649057296885 118.27599006163327 l -1.8810846431780286 3.3236963224463523 a24.819088461746286,24.819088461746286 0 0,0 -0.36898601707601125,-0.21303417628604457 l 1.9378631281144394 -3.290915248884136" fill="#ff3104" stroke="none" /><path d="M 88.72937992617639 117.7192867562869 l -2.4039772984773804 3.7794516032225247 a25.47921435886874,25.47921435886874 0 0,0 -0.36703944868387134,-0.2379105361920731 l 2.4685023794182612 -3.737627225326557" fill="#ff3a05" stroke="none" /><path d="M 87.2517909369889 116.68781488649013 l -2.023684034380049 2.649067362133701 a24.333594900423073,24.333594900423073 0 0,0 -0.3297666247588251,-0.2564285219880598 l 2.068860603774102 -2.613937788524848" fill="#ff2a04" stroke="none" /><path d="M 83.64595745247003 113.17365903436017 l -49.06212764258991 39.520977103080526 a84.0,84.0 0 0,0 -0.8949342774337534,-1.1307202243412777 l 49.733328350665225 -38.67293693482457" fill="#4dd2ff" stroke="none" /><path d="M 83.4222238831116 112.89097897827486 l -49.42329302962083 38.43185159394857 a83.60726084753313,83.60726084753313 0 0,0 -0.8712992245383946,-1.1405586540016015 l 50.07574423151352 -37.5777720267061" fill="#4dd6ff" stroke="none" /><path d="M 82.18462484594161 111.11811171558189 l -2.6934789440334783 1.6809300699182812 a24.174957436235513,24.174957436235513 0 0,0 -0.21669054511555058,-0.35394772051957407 l 2.7219374536044336 -1.6344452332741501" fill="#ff2803" stroke="none" /><line stroke="#e1ed5e" stroke-width="0.3" x1="26.387840678322732" x2="22.057713659400548" y1="142.50000000000003" y2="145.00000000000006" /><path d="M 25.521815274538298 143.00000000000003 a86.0,86.0 0 0,1 -11.493303480769221,-40.785679425670985" fill="none" id="id81" stroke="none" /><text fill="#e1ed5e" style="font-size:6.75px; font-family:Arial;" text-anchor="middle"><textPath startOffset="21.40746469413373" xlink:href="#id81">September</textPath></text><path d="M 80.68587082218212 108.24405325689762 l -2.0796345383672152 0.8876723217153104 a23.26115942912243,23.26115942912243 0 0,0 -0.15360579233027236,-0.3685979833673975 l 2.094566175233973 -0.8518418289066315" fill="#ff1b02" stroke="none" /><path d="M 80.5471966667186 107.91128576633889 l -11.267641901412345 4.582451869152291 a33.16382419930346,33.16382419930346 0 0,0 -0.20994489201171,-0.5291982740235589 l 11.344645468390178 -4.3883525779151675" fill="#ffa10e" stroke="none" /><path d="M 80.16572619554312 106.89939002012753 l -8.720430748900192 3.0334184892948093 a30.23295944849535,30.23295944849535 0 0,0 -0.16630226501488832,-0.4916430965405589 l 8.771218435487448 -2.883273718280089" fill="#ff7b0b" stroke="none" /><path d="M 80.05021161711548 106.5578916946017 l -6.569294276179614 2.159457511344475 a27.915119957769953,27.915119957769953 0 0,0 -0.14573724336581592,-0.456519839129412 l 6.605396235322685 -2.046368638523671" fill="#ff5c08" stroke="none" /><path d="M 79.2786578344484 103.40968896794605 l -3.1410765641790377 0.5168629533158443 a24.183317341162386,24.183317341162386 0 0,0 -0.06388830291592613,-0.41020873509638794 l 3.149486359233231 -0.4628660362880064" fill="#ff2803" stroke="none" /><line stroke="#e1ed5e" stroke-width="0.3" x1="15.003131293944662" x2="10.003315487706104" y1="100.72959589197737" y2="100.7725132973878" /><path d="M 14.003168132696942 100.73817937305945 a86.0,86.0 0 0,1 10.791469493833604,-42.45332614584628" fill="none" id="id82" stroke="none" /><text fill="#e1ed5e" style="font-size:6.75px; font-family:Arial;" text-anchor="middle"><textPath startOffset="22.145653131862435" xlink:href="#id82">October</textPath></text><path d="M 79.01933749520258 99.09900007780938 l -6.432034846889103 -0.2762192516680212 a27.437963136473194,27.437963136473194 0 0,0 0.02424785639819802,-0.470401936258111 l 6.426345401034334 0.38659298130284414" fill="#ff5507" stroke="none" /><path d="M 79.06263194458094 98.37931529534042 l -2.20304351095417 -0.17052950076878776 a23.209633684978062,23.209633684978062 0 0,0 0.03415836646262393,-0.3969719960840258 l 2.199791521793803 0.2083225442284942" fill="#ff1a02" stroke="none" /><path d="M 79.0935383218832 98.0201363427161 l -5.563089941679254 -0.526830401399828 a26.587979954424675,26.587979954424675 0 0,0 0.046931085983619336,-0.4540156844423455 l 5.553226463213972 0.6222506081250863" fill="#ff4906" stroke="none" /><path d="M 79.34024301695615 96.23510406497455 l -0.6134025530449687 -0.11178237867892798 a21.623504604846833,21.623504604846833 0 0,0 0.0696829871649423,-0.3646108340745988 l 0.6113932735978672 0.12229577778684132" fill="#ff0300" stroke="none" /><path d="M 80.05021161711548 93.44210830539832 l -6.891855258546402 -2.2654897131236402 a28.254661435589032,28.254661435589032 0 0,0 0.1554202525879821,-0.4594723604072921 l 6.8519495843860545 2.3834637480050938" fill="#ff6008" stroke="none" /><path d="M 81.29705330413844 90.45014215332179 l -10.563412203544969 -5.393753538421948 a32.86078642482201,32.86078642482201 0 0,0 0.26083942591217435,-0.5001939921540687 l 10.469264708657855 5.574293773680504" fill="#ff9e0e" stroke="none" /><line stroke="#e1ed5e" stroke-width="0.3" x1="26.387840678322718" x2="22.05771365940052" y1="57.49999999999999" y2="54.99999999999999" /><path d="M 25.521815274538284 56.99999999999999 a86.0,86.0 0 0,1 29.574782752854787,-30.34633250058573" fill="none" id="id83" stroke="none" /><text fill="#e1ed5e" style="font-size:6.75px; font-family:Arial;" text-anchor="middle"><textPath startOffset="21.40746469413373" xlink:href="#id83">November</textPath></text><path d="M 82.18462484594161 88.88188828441811 l -3.173534485684728 -1.9805202326630096 a24.740826315644416,24.740826315644416 0 0,0 0.22794819936351476,-0.3583724305890041 l 3.139068594695323 2.0347063379306856" fill="#ff3004" stroke="none" /><path d="M 84.10781606972428 86.27271002978789 l -2.204001583264016 -1.9037640742776663 a23.912377144111076,23.912377144111076 0 0,0 0.2709943426070412,-0.30834181614147455 l 2.1709961766983823 1.9413181682304408" fill="#ff2403" stroke="none" /><path d="M 84.34580500576568 86.00192230759919 l -2.2264157755084315 -1.9908747152205915 a23.986722172740123,23.986722172740123 0 0,0 0.2771063784940071,-0.30458845185751277 l 2.1919116961725584 2.0288007426357617" fill="#ff2503" stroke="none" /><path d="M 84.58840730492382 85.73525988315684 l -3.017608786327585 -2.7930536423414565 a25.11182580325557,25.11182580325557 0 0,0 0.2955352976907418,-0.3138482446881053 l 2.969217654900571 2.8444433469740726" fill="#ff3505" stroke="none" /><path d="M 85.34317274990677 84.96080404539775 l -2.28424072787768 -2.343832217427355 a24.272813035653822,24.272813035653822 0 0,0 0.30089909898229,-0.28825453021204445 l 2.2436691430300897 2.3826988779449683" fill="#ff2904" stroke="none" /><path d="M 86.13680546590413 84.22622945171909 l -2.475782463817273 -2.8169859707056446 a24.750321155220917,24.750321155220917 0 0,0 0.3215426425525688,-0.27774087636240996 l 2.4270603415018557 2.859070979532765" fill="#ff3004" stroke="none" /><path d="M 86.40962598614128 83.9905735841838 l -3.0687955712920085 -3.615033466605283 a25.741937707631518,25.741937707631518 0 0,0 0.33933471647036934,-0.2830850893369905 l 3.0062865206597302 3.6671807398541554" fill="#ff3e05" stroke="none" /><path d="M 86.68645165197937 83.75963576809568 l -4.394721718663522 -5.360845925013464 a27.93197288051723,27.93197288051723 0 0,0 0.3734228508887326,-0.30080301545930865 l 4.3020480974195445 5.435497234266172" fill="#ff5c08" stroke="none" /><path d="M 87.25179093698888 83.31218511350988 l -2.3253977910655417 -3.0440203547767095 a24.8306050183995,24.8306050183995 0 0,0 0.3409443209806271,-0.25585097464307927 l 2.2728004811741624 3.0834903566837895" fill="#ff3104" stroke="none" /><path d="M 87.83215693770416 82.88440491214696 l -1.7904793780456774 -2.5185334730968 a24.090117677098377,24.090117677098377 0 0,0 0.3391027161691394,-0.23672003193018137 l 1.7469815707027725 2.5488983208321083" fill="#ff2603" stroke="none" /><path d="M 88.72937992617638 82.28071324371311 l -9.121294176648599 -14.340189452385186 a37.995265252041904,37.995265252041904 0 0,0 0.5533483357249871,-0.3453302869583549 l 8.873781712133912 14.494655536185077" fill="#ffdf14" stroke="none" /><path d="M 89.03521579738668 82.08984904055464 l -4.0080564118733175 -6.546858931661871 a28.67631930496899,28.67631930496899 0 0,0 0.4220433790316952,-0.2534249228173174 l 3.895080276284188 6.614697855015112" fill="#ff6609" stroke="none" /><line stroke="#e1ed5e" stroke-width="0.3" x1="56.869717070023135" x2="54.33264160355391" y1="26.7553504044142" y2="22.446841604673864" /><path d="M 56.362301976729285 25.89364864446614 a86.0,86.0 0 0,1 42.16139366436587,-11.88097634709845" fill="none" id="id84" stroke="none" /><text fill="#e1ed5e" style="font-size:6.75px; font-family:Arial;" text-anchor="middle"><textPath startOffset="22.145653131862474" xlink:href="#id84">December</textPath></text><path d="M 89.97174638481275 81.54914285379989 l -0.20755348543454563 -0.38187503596329997 a21.43463432032917,21.43463432032917 0 0,0 0.3247971604882833,-0.1729361936871906 l 0.2009675091597005 0.38538169737306605" fill="#ff0000" stroke="none" /><path d="M 91.26138138417902 80.90454125486306 l -1.571364805766575 -3.4337156867964262 a24.77618733255564,24.77618733255564 0 0,0 0.38826243711821234,-0.1736648496241518 l 1.5121889657927439 3.460184287330424" fill="#ff3004" stroke="none" /><path d="M 91.5904679813234 80.7573450057729 l -1.5077920396230495 -3.4501232597808986 a24.765207476677986,24.765207476677986 0 0,0 0.39101305501873396,-0.16690022211401914 l 1.4483439094338844 3.4754981315543216" fill="#ff3004" stroke="none" /><path d="M 92.25597844496254 80.48000691201159 l -1.532685891222799 -3.8633696704091403 a25.156290563879125,25.156290563879125 0 0,0 0.40277346001659303,-0.15580142689381302 l 1.4661401687126765 3.889110985440994" fill="#ff3505" stroke="none" /><path d="M 92.93061703081487 80.22567764915836 l -2.396109730738967 -6.702345368775839 a28.11777881674423,28.11777881674423 0 0,0 0.45590197095317425,-0.15858637122595245 l 2.280701987740789 6.742490172570378" fill="#ff5e08" stroke="none" /><path d="M 93.61358852112211 79.99465700312896 l -1.141561989198545 -3.5759266720658993 a24.753720199905054,24.753720199905054 0 0,0 0.40591311533868546,-0.1257529207335963 l 1.0800082409882432 3.5949961806061377" fill="#ff3004" stroke="none" /><path d="M 94.30408787586887 79.78721728523814 l -1.0338693868664137 -3.6688377237495806 a24.81172613815677,24.81172613815677 0 0,0 0.4109514202745776,-0.11200663701562831 l 0.9707365656571585 3.6860448549093485" fill="#ff3104" stroke="none" /><path d="M 95.70440661134978 79.44403061299748 l -3.4109567681046795 -16.322662915630612 a37.675249645243156,37.675249645243156 0 0,0 0.6342063408614894,-0.12685903015677533 l 3.1302539417122133 16.378811342450255" fill="#ffdb14" stroke="none" /><path d="M 97.12497278360702 79.19773525538626 l -0.6446941488104765 -4.664685706761599 a25.709025726026184,25.709025726026184 0 0,0 0.43769270831592816,-0.056668084004797184 l 0.5645236186037543 4.675065386966791" fill="#ff3d05" stroke="none" /><path d="M 97.84075906011542 79.11130261209362 l -0.5848544093328648 -5.657935873145306 a26.688083422800744,26.688083422800744 0 0,0 0.45611260918382457,-0.04319433830820026 l 0.48764223676402463 5.66714196695869" fill="#ff4b07" stroke="none" /><path d="M 98.1996594967304 79.07731436759882 l -0.7937819903693586 -9.224949955298996 a30.25903836939915,30.25903836939915 0 0,0 0.5179065037261148,-0.04008923885804929 l 0.6353064918680267 9.237216961152098" fill="#ff7b0b" stroke="none" /><path d="M 98.5590905019552 79.04949213459386 l -0.1796164658051142 -2.611583992410794 a23.617753430750234,23.617753430750234 0 0,0 0.4047134267618038,-0.0243465547618947 l 0.13475868691082662 2.6142825249973827" fill="#ff2003" stroke="none" /><path d="M 99.27912038922189 79.0123766808444 l -0.07792731262179123 -2.2687686808271295 a23.27010660391853,23.27010660391853 0 0,0 0.3993446000098427,-0.0102857003234359 l 0.03896939854120466 2.2697720985006105" fill="#ff1b02" stroke="none" /></svg>