<?xml version="1.0" encoding="utf-8" ?>
<svg baseProfile="full" height="200mm" version="1.1" viewBox="0,0,200,200" width="200mm" xmlns="http://www.w3.org/2000/svg" xmlns:ev="http://www.w3.org/2001/xml-events" xmlns:xlink="http://www.w3.org/1999/xlink"><defs /><rect fill="#1a1a1a" height="200" width="200" x="0" y="0" /><text alignment-baseline="middle" fill="#e1ed5e" style="dominant-baseline: central; font-size:9.0px; font-family:Arial;" text-anchor="middle" x="100.0" y="100.0">2023</text><line stroke="#e1ed5e" stroke-width="0.3" x1="100.0" x2="100.0" y1="15.0" y2="10.0" /><path d="M 100.0 14.0 a86.0,86.0 0 0,1 42.46469731375804,11.215312516191453" fill="none" id="id109" stroke="none" /><text fill="#e1ed5e" style="font-size:6.75px; font-family:Arial;" text-anchor="middle"><textPath startOffset="22.20632615414155" xlink:href="#id109">January</textPath></text><line stroke="#e1ed5e" stroke-width="0.3" x1="143.23703022742887" x2="145.7803849466894" y1="26.81831364943548" y2="22.513508569990506" /><path d="M 143.74570117128098 25.957352633546492 a86.0,86.0 0 0,1 28.547481713284135,27.462654790039103" fill="none" id="id110" stroke="none" /><text fill="#e1ed5e" style="font-size:6.75px; font-family:Arial;" text-anchor="middle"><textPath startOffset="19.985693538727396" xlink:href="#id110">February</textPath></text><path d="M 112.77801427241765 83.33499621200491 l 3.3191041627504303 -4.328754238785242 a26.4547745785677,26.4547745785677 0 0,0 0.3589880721660808,0.28019588450007293 l -3.393124790075942 4.2709799650619455" fill="#ff4406" stroke="none" /><path d="M 113.34407831869373 83.78471172551755 l 4.0609941615011085 -4.934787509264019 a27.39091553232667,27.39091553232667 0 0,0 0.36148503788446584,0.3027333234750798 l -4.145336736344692 4.86415302839512" fill="#ff5107" stroke="none" /><path d="M 114.16331599549186 84.49514656593476 l 3.66080477405787 -4.007553138725438 a26.42788851704537,26.42788851704537 0 0,0 0.33323316796487196,0.3097039125607398 l -3.7292458258175887 3.9439446400900575" fill="#ff4406" stroke="none" /><path d="M 114.42810811169701 84.74124197986012 l 3.116058992742463 -3.2954556327583293 a25.53539981409906,25.53539981409906 0 0,0 0.31678093012519737,0.3047430037952379 l -3.1723231664800786 3.2413295422007895" fill="#ff3705" stroke="none" /><path d="M 115.19652480421416 85.50635884689758 l 1.0785179687603965 -1.028633363073331 a22.490398471740562,22.490398471740562 0 0,0 0.2647791163866584,0.2824479001712878 l -1.0960644071175178 1.0099160460239884" fill="#ff0c01" stroke="none" /><path d="M 115.9244219780498 86.31012108654704 l 4.016497244602293 -3.452895245467281 a26.296672133714562,26.296672133714562 0 0,0 0.29213021473355666,0.3457900316315687 l -4.075338072822968 3.3832462642066057" fill="#ff4206" stroke="none" /><path d="M 116.82858285166822 87.43820079747576 l 4.062242589316363 -3.0322859725455626 a26.069178737601614,26.069178737601614 0 0,0 0.2653313408233471,0.3619116506976871 l -4.1138365426533365 2.9619118781763816" fill="#ff3f05" stroke="none" /><path d="M 117.2510076193507 88.02491185347247 l 5.123339736084253 -3.556455732788392 a27.236744938717894,27.236744938717894 0 0,0 0.26403499544494846,0.38743877560826484 l -5.183799197197934 3.4677389339097204" fill="#ff4f07" stroke="none" /><path d="M 117.45458315368197 88.32363383020206 l 3.5705580407762483 -2.3885499153742455 a25.295818364501255,25.295818364501255 0 0,0 0.23898930832818294,0.36399711269781415 l -3.611143984462356 2.3267347386987574" fill="#ff3404" stroke="none" /><path d="M 117.65298651832404 88.62581576622439 l 4.548037645331654 -2.9303946970362538 a26.410347447601872,26.410347447601872 0 0,0 0.24294049049679728,0.3842735136809458 l -4.597805732074407 2.8516735356411016" fill="#ff4306" stroke="none" /><line stroke="#e1ed5e" stroke-width="0.3" x1="172.23445277983987" x2="176.4835382374775" y1="55.19839476539836" y2="52.563006222186495" /><path d="M 173.08426987136738 54.67131705675599 a86.0,86.0 0 0,1 12.851231095245387,41.99856678651699" fill="none" id="id111" stroke="none" /><text fill="#e1ed5e" style="font-size:6.75px; font-family:Arial;" text-anchor="middle"><textPath startOffset="22.20632615414155" xlink:href="#id111">March</textPath></text><path d="M 118.03404312379186 89.2402003453031 l 4.572858473133015 -2.728342207149436 a26.32493059246949,26.32493059246949 0 0,0 0.22882673332835335,0.39113906253358327 l -4.619144880931695 2.6492237322619574" fill="#ff4206" stroke="none" /><path d="M 118.56541770881063 90.18545643968196 l 4.463667036769337 -2.35970206855825 a26.049011513900442,26.049011513900442 0 0,0 0.20614761852922714,0.39821158352935204 l -4.50362408845868 2.2825177627685536" fill="#ff3e05" stroke="none" /><path d="M 118.89224826269711 90.83032412892265 l 4.70176726782114 -2.2820831733557636 a26.226329405124382,26.226329405124382 0 0,0 0.1936274990415021,0.40782889415013723 l -4.7403529607043975 2.200811863565086" fill="#ff4106" stroke="none" /><path d="M 119.196687751892 91.48605970444005 l 4.836723292135401 -2.145139508836691 a26.2910788802528,26.2910788802528 0 0,0 0.17991772777862944,0.4152749216343312 l -4.872931729756711 2.0615654426157572" fill="#ff4206" stroke="none" /><path d="M 119.47837535516314 92.15188598940014 l 3.08067018628401 -1.2412457615262085 a24.32132802312056,24.32132802312056 0 0,0 0.15311602095711857,0.3896635721730932 l -3.101579757122829 1.1880331844573309" fill="#ff2603" stroke="none" /><path d="M 119.61058180528143 92.48833698450437 l 5.927518452313499 -2.2704844544652842 a27.347485695965414,27.347485695965414 0 0,0 0.16459984323749838,0.4410457459830832 l -5.965722884052623 2.168115571452868" fill="#ff5007" stroke="none" /><path d="M 119.97218684219823 93.5106431181261 l 5.000428082280206 -1.6247375735289789 a26.25776123353784,26.25776123353784 0 0,0 0.13597083536528676,0.43106470548938064 l -5.027654401413699 1.5384227016131793" fill="#ff4106" stroke="none" /><path d="M 120.37134235888165 94.90015583598534 l 22.448018825138757 -5.619727742151581 a44.14076249974689,44.14076249974689 0 0,0 0.17817565864075124,0.7386531346774156 l -22.541427284040328 5.232489375814759" fill="#d8ff1c" stroke="none" /><path d="M 120.96714384426684 98.82574320788733 l 5.270096321930251 -0.2951497088530123 a26.27835472406495,26.27835472406495 0 0,0 0.02140608718519065,0.45184866795623235 l -5.274396017348939 0.2043899342737802" fill="#ff4206" stroke="none" /><line stroke="#e1ed5e" stroke-width="0.3" x1="184.98032266829074" x2="189.97916517819016" y1="98.17113171792111" y2="98.06355123074" /><path d="M 185.9800911702706 98.14961562048488 a86.0,86.0 0 0,1 -9.607161424134198,41.387399972396054" fill="none" id="id112" stroke="none" /><text fill="#e1ed5e" style="font-size:6.75px; font-family:Arial;" text-anchor="middle"><textPath startOffset="21.466115282336823" xlink:href="#id112">April</textPath></text><path d="M 120.99980553446 99.90962569577887 l 22.93613619607086 -0.09870745454473483 a43.93634859270966,43.93634859270966 0 0,0 -0.0032548522188104233,0.7563130275525438 l -22.934437046562547 -0.2961150512114936" fill="#daff1c" stroke="none" /><path d="M 120.89721153311464 102.0752229133903 l 62.69163459934395 6.2256687401709 a84.0,84.0 0 0,0 -0.15527079399579247,1.4376147124608343 l -62.575181503847105 -7.303879774516526" fill="#4dd2ff" stroke="none" /><path d="M 120.8583938346157 102.4346265915055 l 8.111993948237156 0.9468454921842651 a29.167065703317558,29.167065703317558 0 0,0 -0.06249875887368135,0.4981766013006212 l -8.094493680116628 -1.0863398477722812" fill="#ff6909" stroke="none" /><path d="M 120.13307415673323 105.97154293290107 l 5.079936698664737 1.5067276788602646 a26.298677680392007,26.298677680392007 0 0,0 -0.13246171509885687,0.4328925491266071 l -5.053248211059747 -1.5939472005389288" fill="#ff4206" stroke="none" /><path d="M 119.79798401119884 107.00284435728193 l 21.71292525887197 7.680187843528238 a44.03120510544855,44.03120510544855 0 0,0 -0.2588945518678902,0.712366615954811 l -21.577506445998853 -8.05280225648918" fill="#d9ff1c" stroke="none" /><line stroke="#e1ed5e" stroke-width="0.3" x1="174.80103733775053" x2="179.2010983576182" y1="140.37084112569926" y2="142.7455964860345" /><path d="M 175.68104954172406 140.8457921977663 a86.0,86.0 0 0,1 -30.038265399797805,32.042727171017184" fill="none" id="id113" stroke="none" /><text fill="#e1ed5e" style="font-size:6.75px; font-family:Arial;" text-anchor="middle"><textPath startOffset="22.206326154141568" xlink:href="#id113">May</textPath></text><path d="M 117.55443506779139 111.5257021239791 l 4.371409902720736 2.8701332857480946 a26.229425361888634,26.229425361888634 0 0,0 -0.2510491926000423,0.3752844801353109 l -4.321357604709973 -2.9449546800892126" fill="#ff4106" stroke="none" /><path d="M 117.14729908036423 112.12312394758627 l 4.31926474381068 3.0537160170967326 a26.28972867358989,26.28972867358989 0 0,0 -0.2644248547059393,0.36726299593519435 l -4.266060096729138 -3.127612618483058" fill="#ff4206" stroke="none" /><path d="M 116.498646956653 112.99209946851258 l 4.160533210673578 3.27627237901009 a26.295658344208228,26.295658344208228 0 0,0 -0.2830941591595618,0.35320349126842737 l -4.103521139459162 -3.3474037038567674" fill="#ff4206" stroke="none" /><path d="M 116.0416608686014 113.55231037782055 l 5.19683446225683 4.390387890103747 a27.803131209499774,27.803131209499774 0 0,0 -0.31200076794786075,0.3629273799781301 l -5.12049118473819 -4.479192369243405" fill="#ff5708" stroke="none" /><path d="M 115.32070863581623 114.36230785411682 l 3.740913096392857 3.506896895114092 a26.127646304858054,26.127646304858054 0 0,0 -0.3104131705214139,0.32546696827620103 l -3.679993374492479 -3.5707709799728002" fill="#ff3f05" stroke="none" /><path d="M 114.55890576462653 115.13401014063108 l 1.841966309434926 1.9147274703446138 a23.65688185111525,23.65688185111525 0 0,0 -0.29589595868278257,0.27978809782909797 l -1.8087345163613358 -1.946150204919633" fill="#ff1d02" stroke="none" /><path d="M 114.29624159901734 115.38237550388516 l 1.81646747147407 1.9544706588287881 a23.66824092449427,23.66824092449427 0 0,0 -0.30081257933687283,0.2747851590268173 l -1.7825553426703333 -1.9854485844421885" fill="#ff1d02" stroke="none" /><path d="M 113.48314897796784 116.09983520530334 l 0.6627615205371294 0.7913842143626799 a22.03225084540877,22.03225084540877 0 0,0 -0.2928504450642891,0.2409959791311168 l -0.6490409469281492 -0.8026753123509751" fill="#ff0500" stroke="none" /><line stroke="#e1ed5e" stroke-width="0.3" x1="143.8653032363475" x2="146.44561519142675" y1="172.8068346515853" y2="177.08958963109032" /><path d="M 144.38136562736335 173.6633856474863 a86.0,86.0 0 0,1 -40.68145358897372,12.25698825130547" fill="none" id="id114" stroke="none" /><text fill="#e1ed5e" style="font-size:6.75px; font-family:Arial;" text-anchor="middle"><textPath startOffset="21.466115282336833" xlink:href="#id114">June</textPath></text><path d="M 110.8373102113329 117.98757091392108 l 2.7329605398421455 4.536118331645724 a26.295794825238858,26.295794825238858 0 0,0 -0.389718866974283,0.23025277595883595 l -2.6544738018394805 -4.58248967989831" fill="#ff4206" stroke="none" /><path d="M 109.2508944713604 118.85261126421891 l 1.4139506758083589 2.8815227025149053 a24.209739802340327,24.209739802340327 0 0,0 -0.37569750059967916,0.18035763138735858 l -1.364140507208447 -2.905434610401824" fill="#ff2403" stroke="none" /><path d="M 102.34483914955558 120.86867818915974 l 2.0452017872867048 18.201955532374036 a39.31649626848002,39.31649626848002 0 0,0 -0.6731871654201369,0.06977860219205088 l -1.7315820252609653 -18.234463503021846" fill="#ffec16" stroke="none" /><line stroke="#e1ed5e" stroke-width="0.3" x1="102.19456741930631" x2="102.32365962044197" y1="184.97166512339345" y2="189.96999836594603" /><path d="M 102.22038585953345 185.97133177190398 a86.0,86.0 0 0,1 -42.740103519485714,-10.115201625700543" fill="none" id="id115" stroke="none" /><text fill="#e1ed5e" style="font-size:6.75px; font-family:Arial;" text-anchor="middle"><textPath startOffset="22.20632615414155" xlink:href="#id115">July</textPath></text><path d="M 97.65516085044442 120.86867818915974 l -0.14328083987805973 1.2751756292769438 a22.28320001736986,22.28320001736986 0 0,0 -0.3808014006140404,-0.04610974643152906 l 0.16520966354348945 -1.272520354120066" fill="#ff0901" stroke="none" /><path d="M 96.58105272829116 120.7198165907248 l -0.11030086426907876 0.6684553740752648 a21.677494551851606,21.677494551851606 0 0,0 -0.36764104669290393,-0.0639191084168474 l 0.12179088243403266 -0.6664576871374112" fill="#ff0000" stroke="none" /><line stroke="#e1ed5e" stroke-width="0.3" x1="58.666819895761336" x2="56.23545636021788" y1="174.27360380694188" y2="178.64263932499728" /><path d="M 58.180547188652646 175.14741091055294 a86.0,86.0 0 0,1 -31.652253787137756,-30.449443065178592" fill="none" id="id116" stroke="none" /><text fill="#e1ed5e" style="font-size:6.75px; font-family:Arial;" text-anchor="middle"><textPath startOffset="22.20632615414155" xlink:href="#id116">August</textPath></text><path d="M 87.95078237400918 117.19931262002967 l -15.129550513336838 21.59624609303318 a47.36856355675185,47.36856355675185 0 0,0 -0.6637749416097715,-0.47358579652080235 l 15.499052782795497 -21.33261603466816" fill="#b3ff20" stroke="none" /><path d="M 87.36589467227662 116.77436683061367 l -7.128595007378505 9.464672372032197 a32.848919355330736,32.848919355330736 0 0,0 -0.4487338696704115,-0.3440699962694428 l 7.290457605542403 -9.340563033935387" fill="#ff9a0e" stroke="none" /><path d="M 87.07902340077011 116.55440617244103 l -14.287108023521204 18.30469914054391 a44.22032442283253,44.22032442283253 0 0,0 -0.5960110236900173,-0.4735072035421753 l 14.60007653992858 -18.056058022996606" fill="#d7ff1c" stroke="none" /><path d="M 85.97065885151581 115.62618273729859 l -0.47373419259770133 0.5276553605824966 a21.709115128020578,21.709115128020578 0 0,0 -0.2759129813497435,-0.25203996662934325 l 0.4827467234142995 -0.5194226273665774" fill="#ff0000" stroke="none" /><path d="M 83.50135304334701 112.99209946851258 l -5.055714183430596 3.981195653684396 a27.435073017259153,27.435073017259153 0 0,0 -0.28897386288296395,-0.37353767184495784 l 5.123494863531628 -3.8935799877261856" fill="#ff5207" stroke="none" /><path d="M 83.28015986056508 112.70617746262583 l -3.715221040885287 2.8233677753312154 a25.666291137232598,25.666291137232598 0 0,0 -0.2642879182928734,-0.35405685586765145 l 3.7632702258732453 -2.758998039954256" fill="#ff3905" stroke="none" /><path d="M 82.44556493220864 111.52570212397912 l -3.810753281533753 2.50202339302395 a25.55872368453708,25.55872368453708 0 0,0 -0.23829875217725127,-0.3698449553003293 l 3.85325689708805 -2.4360568378021723" fill="#ff3705" stroke="none" /><path d="M 82.24976979558568 111.22182372390057 l -1.5608497123201397 0.986780460278287 a22.846615147028988,22.846615147028988 0 0,0 -0.207289907114605,-0.3342173328120585 l 1.5776042591027006 -0.9597667961009643" fill="#ff1101" stroke="none" /><line stroke="#e1ed5e" stroke-width="0.3" x1="26.63291911575756" x2="22.317208475507996" y1="142.92168965132927" y2="145.44649492493687" /><path d="M 25.769776987707644 143.4266507060508 a86.0,86.0 0 0,1 -11.730757126820373,-40.83630448921669" fill="none" id="id117" stroke="none" /><text fill="#e1ed5e" style="font-size:6.75px; font-family:Arial;" text-anchor="middle"><textPath startOffset="21.46611528233685" xlink:href="#id117">September</textPath></text><path d="M 81.87401531095188 110.60418214915194 l -7.11003277138195 4.159557888169722 a29.237383555180628,29.237383555180628 0 0,0 -0.2503945271488833,-0.43658396390158777 l 7.18057929468321 -4.036554078409828" fill="#ff6a09" stroke="none" /><path d="M 81.69416730710424 110.29060199501025 l -26.289460545206666 14.77858886141998 a51.15862106418105,51.15862106418105 0 0,0 -0.4249176368344636,-0.7713489365254229 l 26.53995459149265 -14.323869406496733" fill="#89ff24" stroke="none" /><path d="M 81.02952815118164 109.00673069616217 l -4.484796515024234 2.129275157719701 a25.964595902835978,25.964595902835978 0 0,0 -0.18821288380515586,-0.40539380751210957 l 4.520784015669217 -2.0517612829287644" fill="#ff3d05" stroke="none" /><path d="M 80.0844068197444 106.66101706037122 l -3.9732749449121787 1.328911067526932 a25.18962031850888,25.18962031850888 0 0,0 -0.13399408493028456,-0.4123913892688013 l 3.9955612808587126 -1.2603207782803272" fill="#ff3204" stroke="none" /><line stroke="#e1ed5e" stroke-width="0.3" x1="15.007084014347285" x2="10.007500721073583" y1="101.09737516637583" y2="101.16192664675087" /><path d="M 14.007167355692545 101.11028546245083 a86.0,86.0 0 0,1 10.666146001902534,-42.60595125391555" fill="none" id="id118" stroke="none" /><text fill="#e1ed5e" style="font-size:6.75px; font-family:Arial;" text-anchor="middle"><textPath startOffset="22.20632615414155" xlink:href="#id118">October</textPath></text><line stroke="#e1ed5e" stroke-width="0.3" x1="26.266209847984243" x2="21.928928074336255" y1="57.711370442889674" y2="55.22380399835377" /><path d="M 25.398753493254645 57.213857153982495 a86.0,86.0 0 0,1 29.58750427330803,-30.492523968695096" fill="none" id="id119" stroke="none" /><text fill="#e1ed5e" style="font-size:6.75px; font-family:Arial;" text-anchor="middle"><textPath startOffset="21.46611528233685" xlink:href="#id119">November</textPath></text><line stroke="#e1ed5e" stroke-width="0.3" x1="56.762969772571076" x2="54.21961505331055" y1="26.818313649435495" y2="22.513508569990535" /><path d="M 56.25429882871897 25.957352633546506 a86.0,86.0 0 0,1 42.265352541879196,-11.944610805530505" fill="none" id="id120" stroke="none" /><text fill="#e1ed5e" style="font-size:6.75px; font-family:Arial;" text-anchor="middle"><textPath startOffset="22.20632615414155" xlink:href="#id120">December</textPath></text></svg>