<?xml version="1.0" encoding="utf-8" ?>
<svg baseProfile="full" height="200mm" version="1.1" viewBox="0,0,200,200" width="200mm" xmlns="http://www.w3.org/2000/svg" xmlns:ev="http://www.w3.org/2001/xml-events" xmlns:xlink="http://www.w3.org/1999/xlink"><defs /><rect fill="#1a1a1a" height="200" width="200" x="0" y="0" /><text alignment-baseline="middle" fill="#e1ed5e" style="dominant-baseline: central; font-size:9.0px; font-family:Arial;" text-anchor="middle" x="100.0" y="100.0">2024</text><line stroke="#e1ed5e" stroke-width="0.3" x1="100.0" x2="100.0" y1="15.0" y2="10.0" /><path d="M 100.0 14.0 a86.0,86.0 0 0,1 42.35913384403234,11.155469271406648" fill="none" id="id121" stroke="none" /><text fill="#e1ed5e" style="font-size:6.75px; font-family:Arial;" text-anchor="middle"><textPath startOffset="22.145653131862478" xlink:href="#id121">January</textPath></text><path d="M 100.0 79.0 l 0.0 -20.180972996396548 a41.18097299639655,41.18097299639655 0 0,0 0.7069261620758428,0.006068110880243919 l -0.34643323722698804 20.17799928371074" fill="#ff9b0e" stroke="none" /><path d="M 100.72087961077811 79.0123766808444 l 0.7004455324824471 -20.39270742511241 a41.40473327613496,41.40473327613496 0 0,0 0.7101389673931978,0.030496422799778045 l -1.0504102604764813 20.3776784338868" fill="#ff9e0e" stroke="none" /><path d="M 101.08105385017728 79.02784411241856 l 1.04284723092476 -20.230957681062996 a41.25781772649782,41.25781772649782 0 0,0 0.706993272741412,0.0425309596689548 l -1.3899848557986345 20.21007474356935" fill="#ff9c0e" stroke="none" /><path d="M 101.80034050326958 79.07731436759882 l 2.612607790173852 -30.362462753738708 a51.47465937360822,51.47465937360822 0 0,0 0.8797275106569393,0.08331110990845637 l -3.133434864215804 30.313139888325065" fill="#ccff1d" stroke="none" /><path d="M 102.51750503828377 79.15144685158666 l 2.41640546797399 -20.01130367608571 a41.15666862857491,41.15666862857491 0 0,0 0.7006867529431917,0.09071792840599655 l -2.7595700428079732 19.966874151479317" fill="#ff9b0e" stroke="none" /><path d="M 103.23170211078529 79.25015418208739 l 3.0934918374676306 -19.862436717852873 a41.10189255068261,41.10189255068261 0 0,0 0.6962318022558674,0.11456467811393013 l -3.434001142776568 19.806406041243275" fill="#ff9a0e" stroke="none" /><path d="M 104.29559338865022 79.4440306129975 l 6.126133239989517 -29.315765238546696 a50.94901667827656,50.94901667827656 0 0,0 0.8545789766851222,0.18625151047200642 l -6.628474633293774 29.20628226994097" fill="#d3ff1c" stroke="none" /><path d="M 104.64783097203109 79.52079915486377 l 4.40266865189945 -19.398970427152413 a40.892298632685765,40.892298632685765 0 0,0 0.6832282261845667,0.1612400010455467 l -4.735029031823903 19.32053428246064" fill="#ff960d" stroke="none" /><path d="M 105.3480935250658 79.69241777938227 l 5.100905843902565 -19.368970332919943 a41.02938471810585,41.02938471810585 0 0,0 0.6795611006268144,0.18521739984982497 l -5.432648345464072 19.278552438925978" fill="#ff990e" stroke="none" /><path d="M 106.04205211174951 79.88797359093562 l 6.389685266956223 -21.269184121191337 a43.208247814537174,43.208247814537174 0 0,0 0.7085316605780853,0.21950491960718221 l -6.7538575604059385 21.156362613777507" fill="#ffba11" stroke="none" /><path d="M 106.72888874123014 80.10723608172694 l 9.793257534013343 -28.952025751485603 a51.56350255193594,51.56350255193594 0 0,0 0.8360511900988645,0.2908220030716561 l -10.288814496157226 28.779645315845357" fill="#cbff1d" stroke="none" /><path d="M 108.4095320186766 80.7573450057729 l 12.582640960576647 -28.791544925791193 a52.420947037870036,52.420947037870036 0 0,0 0.8214776704656099,0.36743651322513055 l -13.075032033897887 28.57130466165621" fill="#bfff1e" stroke="none" /><path d="M 109.06512990194946 81.05736502329252 l 9.69285473340104 -20.254338446664978 a43.45416796042254,43.45416796042254 0 0,0 0.670104139087024,0.32778151377409614 l -10.039119121750131 20.08496318279366" fill="#ffbe11" stroke="none" /><path d="M 109.3889696526874 81.21577127319529 l 9.147886899447869 -18.30190172539164 a41.46077812525671,41.46077812525671 0 0,0 0.6339012963139546,0.3236745186234641 l -9.460715417475402 18.142169255095343" fill="#ff9f0e" stroke="none" /><path d="M 110.02825361518725 81.54914285379988 l 9.642028712805732 -17.740246827235474 a41.19121282117071,41.19121282117071 0 0,0 0.6183699637510963,0.34299939503861604 l -9.945142864712928 17.572114516763712" fill="#ff9b0e" stroke="none" /><line stroke="#e1ed5e" stroke-width="0.3" x1="143.13028292997686" x2="145.6673583964461" y1="26.7553504044142" y2="22.446841604673864" /><path d="M 143.63769802327073 25.89364864446614 a86.0,86.0 0 0,1 29.32050498858742,28.57503671076993" fill="none" id="id122" stroke="none" /><text fill="#e1ed5e" style="font-size:6.75px; font-family:Arial;" text-anchor="middle"><textPath startOffset="20.669276256404974" xlink:href="#id122">February</textPath></text><path d="M 111.27062007382361 82.28071324371311 l 10.671764416430149 -16.777786195583545 a40.884181285245276,40.884181285245276 0 0,0 0.5889548691521842,0.38175343063358436 l -10.95820491783934 16.592118923246066" fill="#ff960d" stroke="none" /><path d="M 111.5731344415666 82.4767994020092 l 9.244036453757262 -13.996649389342165 a37.77374150529826,37.77374150529826 0 0,0 0.5380126807951946,0.3619989423820673 l -9.482945422649458 13.83590077290298" fill="#ff6509" stroke="none" /><path d="M 112.16784306229584 82.88440491214696 l 12.58750528789852 -17.70590256390356 a42.72427846846288,42.72427846846288 0 0,0 0.5941095538505604,0.43008950056547646 l -12.889595852123048 17.487212291965008" fill="#ffb310" stroke="none" /><path d="M 112.7482090630111 83.31218511350987 l 6.549161249409084 -8.573062306376924 a31.78836921780963,31.78836921780963 0 0,0 0.4307930359834438,0.3349872704091093 l -6.695364230027754 8.459373984347025" fill="#ff0000" stroke="none" /><path d="M 114.13192950727249 84.46653392183569 l 42.39578852181747 -46.600398234492914 a84.0,84.0 0 0,0 1.0582809147441403,0.9795290154705003 l -43.18949920787558 45.86575147289004" fill="#4dd2ff" stroke="none" /><line stroke="#e1ed5e" stroke-width="0.3" x1="172.87174338648825" x2="177.1583165268699" y1="56.24261187166439" y2="53.66864786411523" /><path d="M 173.72905801456457 55.72781907015455 a86.0,86.0 0 0,1 12.242430191666344,42.057860355516425" fill="none" id="id123" stroke="none" /><text fill="#e1ed5e" style="font-size:6.75px; font-family:Arial;" text-anchor="middle"><textPath startOffset="22.145653131862474" xlink:href="#id123">March</textPath></text><line stroke="#e1ed5e" stroke-width="0.3" x1="184.99686870605535" x2="189.99668451229388" y1="99.2704041080226" y2="99.22748670261217" /><path d="M 185.99683186730306 99.26182062694052 a86.0,86.0 0 0,1 -10.086455211305974,41.156179273409016" fill="none" id="id124" stroke="none" /><text fill="#e1ed5e" style="font-size:6.75px; font-family:Arial;" text-anchor="middle"><textPath startOffset="21.40746469413373" xlink:href="#id124">April</textPath></text><line stroke="#e1ed5e" stroke-width="0.3" x1="174.33088141563837" x2="178.70328620479359" y1="141.23008692659167" y2="143.65538615756765" /><path d="M 175.20536237346943 141.71514677278685 a86.0,86.0 0 0,1 -30.301960400862466,31.631185727798858" fill="none" id="id125" stroke="none" /><text fill="#e1ed5e" style="font-size:6.75px; font-family:Arial;" text-anchor="middle"><textPath startOffset="22.145653131862474" xlink:href="#id125">May</textPath></text><line stroke="#e1ed5e" stroke-width="0.3" x1="143.1302829299769" x2="145.66735839644613" y1="173.24464959558577" y2="177.55315839532614" /><path d="M 143.63769802327073 174.10635135553383 a86.0,86.0 0 0,1 -40.68552437913181,11.842963189579606" fill="none" id="id126" stroke="none" /><text fill="#e1ed5e" style="font-size:6.75px; font-family:Arial;" text-anchor="middle"><textPath startOffset="21.407464694133747" xlink:href="#id126">June</textPath></text><line stroke="#e1ed5e" stroke-width="0.3" x1="101.45913802915013" x2="101.54496967792366" y1="184.9874750549273" y2="189.98673829345242" /><path d="M 101.47630435890484 185.9873277026323 a86.0,86.0 0 0,1 -42.54439059252881,-10.42667462771756" fill="none" id="id127" stroke="none" /><text fill="#e1ed5e" style="font-size:6.75px; font-family:Arial;" text-anchor="middle"><textPath startOffset="22.145653131862474" xlink:href="#id127">July</textPath></text><line stroke="#e1ed5e" stroke-width="0.3" x1="58.13341422392154" x2="55.67067388415222" y1="173.97424548756322" y2="178.32567169271397" /><path d="M 57.64086615596768 174.84453072859336 a86.0,86.0 0 0,1 -31.369924170532247,-30.572349798747897" fill="none" id="id128" stroke="none" /><text fill="#e1ed5e" style="font-size:6.75px; font-family:Arial;" text-anchor="middle"><textPath startOffset="22.145653131862474" xlink:href="#id128">August</textPath></text><line stroke="#e1ed5e" stroke-width="0.3" x1="26.387840678322732" x2="22.057713659400548" y1="142.50000000000003" y2="145.00000000000006" /><path d="M 25.521815274538298 143.00000000000003 a86.0,86.0 0 0,1 -11.493303480769221,-40.785679425670985" fill="none" id="id129" stroke="none" /><text fill="#e1ed5e" style="font-size:6.75px; font-family:Arial;" text-anchor="middle"><textPath startOffset="21.40746469413373" xlink:href="#id129">September</textPath></text><line stroke="#e1ed5e" stroke-width="0.3" x1="15.003131293944662" x2="10.003315487706104" y1="100.72959589197737" y2="100.7725132973878" /><path d="M 14.003168132696942 100.73817937305945 a86.0,86.0 0 0,1 10.791469493833604,-42.45332614584628" fill="none" id="id130" stroke="none" /><text fill="#e1ed5e" style="font-size:6.75px; font-family:Arial;" text-anchor="middle"><textPath startOffset="22.145653131862435" xlink:href="#id130">October</textPath></text><line stroke="#e1ed5e" stroke-width="0.3" x1="26.387840678322718" x2="22.05771365940052" y1="57.49999999999999" y2="54.99999999999999" /><path d="M 25.521815274538284 56.99999999999999 a86.0,86.0 0 0,1 29.574782752854787,-30.34633250058573" fill="none" id="id131" stroke="none" /><text fill="#e1ed5e" style="font-size:6.75px; font-family:Arial;" text-anchor="middle"><textPath startOffset="21.40746469413373" xlink:href="#id131">November</textPath></text><line stroke="#e1ed5e" stroke-width="0.3" x1="56.869717070023135" x2="54.33264160355391" y1="26.7553504044142" y2="22.446841604673864" /><path d="M 56.362301976729285 25.89364864446614 a86.0,86.0 0 0,1 42.16139366436587,-11.88097634709845" fill="none" id="id132" stroke="none" /><text fill="#e1ed5e" style="font-size:6.75px; font-family:Arial;" text-anchor="middle"><textPath startOffset="22.145653131862474" xlink:href="#id132">December</textPath></text></svg>