<?xml version="1.0" encoding="utf-8" ?>
<svg baseProfile="full" height="200mm" version="1.1" viewBox="0,0,200,200" width="200mm" xmlns="http://www.w3.org/2000/svg" xmlns:ev="http://www.w3.org/2001/xml-events" xmlns:xlink="http://www.w3.org/1999/xlink"><defs /><rect fill="#1a1a1a" height="200" width="200" x="0" y="0" /><text alignment-baseline="middle" fill="#e1ed5e" style="dominant-baseline: central; font-size:9.0px; font-family:Arial;" text-anchor="middle" x="100.0" y="100.0">2014</text><line stroke="#e1ed5e" stroke-width="0.3" x1="100.0" x2="100.0" y1="15.0" y2="10.0" /><path d="M 100.0 14.0 a86.0,86.0 0 0,1 42.46469731375804,11.215312516191453" fill="none" id="id1" stroke="none" /><text fill="#e1ed5e" style="font-size:6.75px; font-family:Arial;" text-anchor="middle"><textPath startOffset="22.20632615414155" xlink:href="#id1">January</textPath></text><line stroke="#e1ed5e" stroke-width="0.3" x1="143.23703022742887" x2="145.7803849466894" y1="26.81831364943548" y2="22.513508569990506" /><path d="M 143.74570117128098 25.957352633546492 a86.0,86.0 0 0,1 28.547481713284135,27.462654790039103" fill="none" id="id2" stroke="none" /><text fill="#e1ed5e" style="font-size:6.75px; font-family:Arial;" text-anchor="middle"><textPath startOffset="19.985693538727396" xlink:href="#id2">February</textPath></text><path d="M 114.68862486808459 84.99185889309783 l 8.627133404027388 -8.814796254824385 a33.33402058474653,33.33402058474653 0 0,0 0.4066182242998855,0.4048720764218956 l -8.777587428494597 8.664988327752372" fill="#ff9d0e" stroke="none" /><line stroke="#e1ed5e" stroke-width="0.3" x1="172.23445277983987" x2="176.4835382374775" y1="55.19839476539836" y2="52.563006222186495" /><path d="M 173.08426987136738 54.67131705675599 a86.0,86.0 0 0,1 12.851231095245387,41.99856678651699" fill="none" id="id3" stroke="none" /><text fill="#e1ed5e" style="font-size:6.75px; font-family:Arial;" text-anchor="middle"><textPath startOffset="22.20632615414155" xlink:href="#id3">March</textPath></text><path d="M 117.84615892207809 88.93136811851018 l 4.138438983320026 -2.5667628463011805 a25.869799659925963,25.869799659925963 0 0,0 0.23145365036192883,0.38044894455531536 l -4.182008431968179 2.4951461285387833" fill="#ff3705" stroke="none" /><path d="M 118.56541770881063 90.18545643968196 l 3.1954966768646016 -1.6892882144556054 a24.614539207610193,24.614539207610193 0 0,0 0.19479543921025136,0.37628278641119567 l -3.224101549234969 1.634032705784065" fill="#ff2503" stroke="none" /><path d="M 119.04729006885535 91.15688171328212 l 14.953984545006373 -6.942712255192183 a37.48705271510603,37.48705271510603 0 0,0 0.26668946759570067,0.5876148908185858 l -15.07127632956542 6.684275355531534" fill="#ffd213" stroke="none" /><path d="M 119.7369772167798 92.82701384747503 l 7.694635049713547 -2.7964520632574184 a29.187035647313188,29.187035647313188 0 0,0 0.16754320131323194,0.47366719172263555 l -7.741631331836588 2.663587245108168" fill="#ff6509" stroke="none" /><path d="M 119.97218684219823 93.5106431181261 l 8.316708577582055 -2.702262424685568 a29.744704899325903,29.744704899325903 0 0,0 0.15402731165403155,0.4883086697018038 l -8.361991373004292 2.558703588557345" fill="#ff6d0a" stroke="none" /><path d="M 120.08093135843002 93.85539295169968 l 5.87866418053608 -1.7988250003727277 a27.147720222121684,27.147720222121684 0 0,0 0.1328869307474046,0.44802866884830206 l -5.908757008395187 1.6973669447778958" fill="#ff4906" stroke="none" /><path d="M 120.45610955862082 95.25157060432595 l 7.077804868017564 -1.64295447263949 a28.26599072039727,28.26599072039727 0 0,0 0.10593772031636116,0.47489802787877616 l -7.105036975335962 1.52087827521075" fill="#ff5908" stroke="none" /><path d="M 120.67395015179393 96.31383870115 l 17.752996131517236 -3.165355764048508 a39.03297947535739,39.03297947535739 0 0,0 0.11224423665886546,0.6624718385425516 l -17.804852229696323 2.8592981371901183" fill="#ffe615" stroke="none" /><path d="M 120.78858239683441 97.02765380044208 l 7.399328806702166 -1.057954142232883 a28.474579169208138,28.474579169208138 0 0,0 0.06519865198094867,0.4858056873216602 l -7.416443457740951 0.9304301128465586" fill="#ff5b08" stroke="none" /><path d="M 120.87857604477298 97.74499172005257 l 7.7429898382491595 -0.8362881721127697 a28.788020900206,28.788020900206 0 0,0 0.048970992975020625,0.49313121620934464 l -7.756237956906409 0.7028814251989901" fill="#ff6008" stroke="none" /><path d="M 120.94382443527127 98.46500227214037 l 13.551752096023737 -0.9932239806633021 a34.588100630619735,34.588100630619735 0 0,0 0.038408288808850256,0.5941592279619021 l -13.566840975837003 0.7598056884483646" fill="#ffad10" stroke="none" /><path d="M 120.96714384426684 98.82574320788733 l 5.309555705755352 -0.2973596164023362 a26.317875941951463,26.317875941951463 0 0,0 0.02143828077739332,0.4525282238053539 l -5.313887594766242 0.20592028597398257" fill="#ff3d05" stroke="none" /><line stroke="#e1ed5e" stroke-width="0.3" x1="184.98032266829074" x2="189.97916517819016" y1="98.17113171792111" y2="98.06355123074" /><path d="M 185.9800911702706 98.14961562048488 a86.0,86.0 0 0,1 -9.607161424134198,41.387399972396054" fill="none" id="id4" stroke="none" /><text fill="#e1ed5e" style="font-size:6.75px; font-family:Arial;" text-anchor="middle"><textPath startOffset="21.466115282336823" xlink:href="#id4">April</textPath></text><path d="M 120.99513854157772 99.54816195383933 l 7.251372492057012 -0.1560573640562429 a28.2530515591327,28.2530515591327 0 0,0 0.006278894787108946,0.48630732084641826 l -7.252984393961836 0.031213785149361923" fill="#ff5808" stroke="none" /><path d="M 120.99824983174949 100.27111621757518 l 6.083351231117167 0.07854441151891084 a27.08385826804961,27.08385826804961 0 0,0 -0.010031264374144401,0.466113438370011 l -6.081097904058015 -0.18324766567903666" fill="#ff4806" stroke="none" /><path d="M 120.9904718944345 100.63252640178507 l 14.966530438118115 0.4510010871999323 a35.973324124447835,35.973324124447835 0 0,0 -0.023978562475934665,0.618780151156691 l -14.956549742790976 -0.7085584853706296" fill="#ffbf11" stroke="none" /><path d="M 120.95626037817324 101.35467743843564 l 3.063549168142644 0.19803728645897284 a24.06994336632706,24.06994336632706 0 0,0 -0.03028622554727893,0.4132314850743936 l -3.0596863839310275 -0.2507419080301367" fill="#ff1d03" stroke="none" /><path d="M 120.92983693683757 101.71520430193887 l 14.615154472260144 1.1977148173668193 a35.6641488342067,35.6641488342067 0 0,0 -0.05540748829287936,0.611417016280391 l -14.592372387690189 -1.449113222195781" fill="#ffbb11" stroke="none" /><path d="M 120.81339534386255 102.79330883721812 l 6.137859465952828 0.8237453238452315 a27.192889082031392,27.192889082031392 0 0,0 -0.06625476073725889,0.4633856422828297 l -6.122770654198968 -0.9292764381084705" fill="#ff4a06" stroke="none" /><path d="M 120.70491114924044 103.5080841355445 l 5.063927794932452 0.8579937693476686 a26.136099494804288,26.136099494804288 0 0,0 -0.07897278553915546,0.4429213209129453 l -5.048408567054108 -0.9450338409938323" fill="#ff3b05" stroke="none" /><path d="M 120.64145759157962 103.86396538481128 l 18.594312913448924 3.480751353587804 a39.9172963900436,39.9172963900436 0 0,0 -0.13224042787074353,0.6742910927108687 l -18.531642552602516 -3.800306173366618" fill="#fff116" stroke="none" /><path d="M 120.32669344350535 105.2749913415812 l 7.126040453148797 1.8492826585195423 a28.362085227095257,28.362085227095257 0 0,0 -0.12670008448153658,0.47149814794413303 l -7.093152292325483 -1.9716717396392236" fill="#ff5a08" stroke="none" /><path d="M 120.02730092923936 106.31721596034902 l 18.64642995183301 5.8816475226211775 a40.5520619763996,40.5520619763996 0 0,0 -0.21571331238253533,0.6638973102692765 l -18.542424388434227 -6.201743732868249" fill="#fff817" stroke="none" /><path d="M 119.9155931802556 106.66101706037122 l 6.921473115881071 2.314972498709821 a28.29834829010285,28.29834829010285 0 0,0 -0.15848310609895438,0.46062609062111315 l -6.880599178838886 -2.4337712924202344" fill="#ff5908" stroke="none" /><path d="M 119.54520255179757 107.68017299344265 l 9.051846709146515 3.556870206493514 a30.7255978999611,30.7255978999611 0 0,0 -0.19766418817444273,0.4905863047268799 l -8.989279906714678 -3.712155879063207" fill="#ff7a0b" stroke="none" /><path d="M 119.26925614724726 108.34839909993367 l 14.190760047432871 6.148142279186396 a36.465358845139555,36.465358845139555 0 0,0 -0.25449159224897794,0.5738113567032119 l -14.082827370452621 -6.3915019723822954" fill="#ffc512" stroke="none" /><line stroke="#e1ed5e" stroke-width="0.3" x1="174.80103733775053" x2="179.2010983576182" y1="140.37084112569926" y2="142.7455964860345" /><path d="M 175.68104954172406 140.8457921977663 a86.0,86.0 0 0,1 -30.038265399797805,32.042727171017184" fill="none" id="id5" stroke="none" /><text fill="#e1ed5e" style="font-size:6.75px; font-family:Arial;" text-anchor="middle"><textPath startOffset="22.206326154141568" xlink:href="#id5">May</textPath></text><path d="M 118.48025628344425 109.97397251340804 l 13.029401981872617 7.032093886585514 a35.805933284834815,35.805933284834815 0 0,0 -0.297399973641933,0.539867337821906 l -12.906425598779174 -7.255331742805224" fill="#ffbd11" stroke="none" /><path d="M 118.12598468904814 110.60418214915192 l 5.211752091068287 3.0490133053739106 a27.038115765294815,27.038115765294815 0 0,0 -0.23847505356275536,0.39969790683063045 l -5.158496161807304 -3.138273306090645" fill="#ff4706" stroke="none" /><path d="M 117.14729908036423 112.12312394758627 l 51.44189724109271 36.36937184275882 a84.0,84.0 0 0,0 -0.8448808304975888,1.1734655781954753 l -50.80823661821952 -37.24947102640542" fill="#4dd2ff" stroke="none" /><path d="M 116.0416608686014 113.55231037782055 l 4.620043881635183 3.903103871596167 a27.048059631047273,27.048059631047273 0 0,0 -0.3035275168396442,0.3530710746721262 l -4.552173855224761 -3.982052045429821" fill="#ff4806" stroke="none" /><path d="M 115.56566222782051 114.09645910891815 l 7.1918447328195985 6.513024869104779 a30.702686411842976,30.702686411842976 0 0,0 -0.35813015813151783,0.38867955508650304 l -7.078668166692359 -6.635855678992616" fill="#ff7a0b" stroke="none" /><path d="M 114.81725581225074 114.88116024355365 l 8.119215282547364 8.1542321467921 a32.5070916702757,32.5070916702757 0 0,0 -0.3999146991019119,0.3914007039578918 l -7.9776506310696575 -8.292782953672564" fill="#ff920d" stroke="none" /><path d="M 114.29624159901734 115.38237550388516 l 4.079600393050779 4.389541455148463 a26.992596561879246,26.992596561879246 0 0,0 -0.34306362778213095,0.313380490018871 l -4.003437215801784 -4.459114711753918" fill="#ff4706" stroke="none" /><path d="M 114.0293411484842 115.62618273729858 l 4.426952432278084 4.930835093676504 a27.626540768657854,27.626540768657854 0 0,0 -0.35658976848012514,0.31464901070225537 l -4.341420310891372 -5.0063072461510485" fill="#ff5007" stroke="none" /><path d="M 112.92097659922987 116.55440617244103 l 8.20537446157045 10.512758117827406 a34.33590091814342,34.33590091814342 0 0,0 -0.46904683593853425,0.35964511261452325 l -8.023198897138421 -10.652442572269301" fill="#ffaa0f" stroke="none" /><path d="M 112.34349029814194 116.9893568818739 l 6.30770965456678 8.681817528127185 a31.731316633014394,31.731316633014394 0 0,0 -0.44465044459382286,0.31724628601615906 l -6.157331882124073 -8.789108075987563" fill="#ff880c" stroke="none" /><path d="M 111.1453310114006 117.79835938074945 l 3.549602606143901 5.668481517360939 a27.688150818739523,27.688150818739523 0 0,0 -0.40612030321824044,0.24947226033813344 l -3.451503102993352 -5.72874224452745" fill="#ff5107" stroke="none" /><line stroke="#e1ed5e" stroke-width="0.3" x1="143.8653032363475" x2="146.44561519142675" y1="172.8068346515853" y2="177.08958963109032" /><path d="M 144.38136562736335 173.6633856474863 a86.0,86.0 0 0,1 -40.68145358897372,12.25698825130547" fill="none" id="id6" stroke="none" /><text fill="#e1ed5e" style="font-size:6.75px; font-family:Arial;" text-anchor="middle"><textPath startOffset="21.466115282336833" xlink:href="#id6">June</textPath></text><path d="M 110.5260780823613 118.17145234162733 l 3.311717969119812 5.7171080029905825 a27.60702654942827,27.60702654942827 0 0,0 -0.4132525160691415,0.2346555638522185 l -3.2128166861294716 -5.773266732637429" fill="#ff4f07" stroke="none" /><path d="M 109.89434966115114 118.52300852407294 l 1.7528846347532074 3.2815392767787643 a24.72036349941717,24.72036349941717 0 0,0 -0.3770551105578702,0.19725741311881667 l -1.6961386216688417 -3.311226108842298" fill="#ff2703" stroke="none" /><path d="M 108.92500713936063 119.00905698771935 l 12.636613148965031 26.91427533106132 a50.73318362491262,50.73318362491262 0 0,0 -0.7936892617805752,0.3643438120834494 l -12.171455891417036 -27.127806213478845" fill="#90ff24" stroke="none" /><path d="M 107.59598834532513 119.57807347666477 l 6.313742440787096 16.27318365944329 a38.4550809228307,38.4550809228307 0 0,0 -0.6191813344325007,0.23412139944166768 l -6.03269088559432 -16.37945330899159" fill="#ffdf14" stroke="none" /><path d="M 106.2309692047433 120.05430185196036 l 4.5215189015923185 14.552455950648872 a36.23870425505503,36.23870425505503 0 0,0 -0.5972915445968235,0.17995904272977076 l -4.270352382555249 -14.628130362484368" fill="#ffc312" stroke="none" /><path d="M 104.13013068566511 120.58985236759428 l 3.075050541557688 15.329983841266163 a36.635355461473075,36.635355461473075 0 0,0 -0.619368459071444,0.11870343929039892 l -2.81071446791454 -15.380644478905031" fill="#ffc812" stroke="none" /><path d="M 103.41894727170886 120.7198165907248 l 1.0963661573120398 6.644298344042322 a27.73414576880711,27.73414576880711 0 0,0 -0.47169724867007096,0.07366940929838882 l -0.9818330450334517 -6.662186060687817" fill="#ff5107" stroke="none" /><path d="M 103.06178313531738 120.77559828337769 l 3.5189790351922836 23.87788147353702 a45.135791619799946,45.135791619799946 0 0,0 -0.7696112615809246,0.10666110814132951 l -3.1074391824245287 -23.934917147170953" fill="#cfff1d" stroke="none" /><line stroke="#e1ed5e" stroke-width="0.3" x1="102.19456741930631" x2="102.32365962044197" y1="184.97166512339345" y2="189.96999836594603" /><path d="M 102.22038585953345 185.97133177190398 a86.0,86.0 0 0,1 -42.740103519485714,-10.115201625700543" fill="none" id="id7" stroke="none" /><text fill="#e1ed5e" style="font-size:6.75px; font-family:Arial;" text-anchor="middle"><textPath startOffset="22.20632615414155" xlink:href="#id7">July</textPath></text><path d="M 100.54218724476979 120.99299961872073 l 0.07689758236676282 2.977404822556113 a23.97839767585765,23.97839767585765 0 0,0 -0.41270283294471044,0.0071050535403509255 l -0.02563505952938444 -2.978287353375624" fill="#ff1c02" stroke="none" /><path d="M 99.81925306533755 120.99922214144158 l -0.08916960467504902 10.359746019111375 a31.360129767473566,31.360129767473566 0 0,0 -0.5397530965791343,-0.009292339047933607 l 0.26748239114685124 -10.356676202784282" fill="#ff830c" stroke="none" /><path d="M 98.73552117531835 120.96189622390904 l -0.5403033426156446 8.956878024581982 a29.973159513197192,29.973159513197192 0 0,0 -0.5147351189320087,-0.03549914748431764 l 0.6944012223265834 -8.946250532581379" fill="#ff700a" stroke="none" /><path d="M 94.81253420990036 120.34920634021253 l -1.4843739534172276 5.822849361584705 a27.009071535710895,27.009071535710895 0 0,0 -0.44952041107233925,-0.11872242619164347 l 1.584384807301056 -5.79643558608948" fill="#ff4706" stroke="none" /><path d="M 94.46302465271185 120.25689768951611 l -4.79983869717727 17.56010011179129 a39.20427332949747,39.20427332949747 0 0,0 -0.6494259413542726,-0.1835342579671105 l 5.101395806636157 -17.474877060485657" fill="#ffe815" stroke="none" /><path d="M 91.7346041902142 119.30500536409082 l -1.010524560137571 2.3602235758515837 a23.56745305987215,23.56745305987215 0 0,0 -0.3715569742427512,-0.16287965845507493 l 1.0510022090380655 -2.3424793641020565" fill="#ff1602" stroke="none" /><path d="M 91.40352486487194 119.15986991738527 l -2.6711458931344763 5.953464302325598 a27.525240040142155,27.525240040142155 0 0,0 -0.4306153465414656,-0.19767438524817518 l 2.7732292354433614 -5.906602846743348" fill="#ff4e07" stroke="none" /><path d="M 90.42595943632237 118.69057910512821 l -2.900310468693319 5.662027634414065 a27.361631689093656,27.361631689093656 0 0,0 -0.41734188341600126,-0.21833354860771784 l 2.997343254635816 -5.611264666861631" fill="#ff4c07" stroke="none" /><path d="M 90.10565033884886 118.52300852407294 l -3.386360085815435 6.3395350764106695 a28.187290144125612,28.187290144125612 0 0,0 -0.42600013747549376,-0.23228924100003592 l 3.4949830351595694 -6.280305183650868" fill="#ff5708" stroke="none" /><line stroke="#e1ed5e" stroke-width="0.3" x1="58.666819895761336" x2="56.23545636021788" y1="174.27360380694188" y2="178.64263932499728" /><path d="M 58.180547188652646 175.14741091055294 a86.0,86.0 0 0,1 -31.652253787137756,-30.449443065178592" fill="none" id="id8" stroke="none" /><text fill="#e1ed5e" style="font-size:6.75px; font-family:Arial;" text-anchor="middle"><textPath startOffset="22.20632615414155" xlink:href="#id8">August</textPath></text><path d="M 89.4739219176387 118.17145234162733 l -2.927896489069264 5.0545066354291155 a26.841285404626372,26.841285404626372 0 0,0 -0.39780335241984194,-0.23502923246064955 l 3.014467712517488 -5.003358830674717" fill="#ff4506" stroke="none" /><path d="M 87.95078237400918 117.19931262002967 l -5.515744776587317 7.873292830248803 a30.613125424714767,30.613125424714767 0 0,0 -0.42898124864895204,-0.3060667307524518 l 5.650453353085156 -7.777181837652131" fill="#ff790b" stroke="none" /><path d="M 87.36589467227662 116.77436683061367 l -8.252316764693113 10.956643547179407 a34.71673320454922,34.71673320454922 0 0,0 -0.47424920937816306,-0.3636340707274456 l 8.439694702564763 -10.812970134624596" fill="#ffaf10" stroke="none" /><path d="M 86.51685102203217 116.09983520530335 l -5.701515236451372 6.808013163496782 a29.880108063860067,29.880108063860067 0 0,0 -0.39147853771315183,-0.33362650278465206 l 5.81785925074158 -6.7088622704891785" fill="#ff6f0a" stroke="none" /><path d="M 85.97065885151581 115.62618273729859 l -5.2944514907946205 5.897074254114813 a28.925067908032155,28.925067908032155 0 0,0 -0.3676244598264575,-0.3358162277596541 l 5.395175500087933 -5.805065259768583" fill="#ff6209" stroke="none" /><path d="M 85.18274418774928 114.88116024355367 l -2.59787899764983 2.6090832302042406 a24.68188682451852,24.68188682451852 0 0,0 -0.29848555001927585,-0.30236428629051315 l 2.642405172724639 -2.563978449933063" fill="#ff2603" stroke="none" /><path d="M 84.67929136418377 114.36230785411682 l -5.75779089285182 5.3976070773545075 a28.892168151231626,28.892168151231626 0 0,0 -0.3370114461635993,-0.3657593642415951 l 5.849848747011149 -5.2976964583115675" fill="#ff6109" stroke="none" /><path d="M 83.50135304334701 112.99209946851258 l -4.869401626656643 3.834481121504895 a27.197928498527858,27.197928498527858 0 0,0 -0.28647601760308467,-0.3703088701077817 l 4.934684461477795 -3.7500942572838603" fill="#ff4a06" stroke="none" /><line stroke="#e1ed5e" stroke-width="0.3" x1="26.63291911575756" x2="22.317208475507996" y1="142.92168965132927" y2="145.44649492493687" /><path d="M 25.769776987707644 143.4266507060508 a86.0,86.0 0 0,1 -11.730757126820373,-40.83630448921669" fill="none" id="id9" stroke="none" /><text fill="#e1ed5e" style="font-size:6.75px; font-family:Arial;" text-anchor="middle"><textPath startOffset="21.46611528233685" xlink:href="#id9">September</textPath></text><path d="M 81.35079622478065 109.6543875284942 l -1.1691579311425293 0.6052539231868491 a22.316534306232295,22.316534306232295 0 0,0 -0.17366655819451882,-0.34266059506843555 l 1.1794031591233147 -0.5850391164157286" fill="#ff0400" stroke="none" /><path d="M 80.87730276802145 108.67885076344099 l -1.3821695504132392 0.627298707514374 a22.517859128687093,22.517859128687093 0 0,0 -0.15715204800353463,-0.35433638131894213 l 1.3927626831480537 -0.6034139897027361" fill="#ff0701" stroke="none" /><path d="M 79.97269907076064 106.31721596034903 l -23.444750548302732 7.39518284932291 a45.58343055082144,45.58343055082144 0 0,0 -0.22959555093347825,-0.750331544760282 l 23.56857287174234 -6.99052433201058" fill="#caff1d" stroke="none" /><path d="M 79.58551787078972 104.9243191809786 l -4.061059598819474 0.9795964233131201 a25.177536860128424,25.177536860128424 0 0,0 -0.09799988639092783,-0.42218094567679926 l 4.0773200511409575 -0.9095468202877466" fill="#ff2d04" stroke="none" /><path d="M 79.4281124754447 104.21870165774334 l -5.4134501247206614 1.1101427123792151 a26.526107046980435,26.526107046980435 0 0,0 -0.08787728786443216,-0.4480843975829666 l 5.431757345560761 -1.0167945877282938" fill="#ff4006" stroke="none" /><path d="M 79.35854240842038 103.8639653848113 l -23.900864755245234 4.474108171459633 a45.31602311189981,45.31602311189981 0 0,0 -0.13692680407093294,-0.7679582341364508 l 23.974338001655358 -4.062031186589969" fill="#cdff1d" stroke="none" /><path d="M 79.23777060512086 103.15116336523772 l -5.963412015540877 0.9050899649449831 a27.031705456315105,27.031705456315105 0 0,0 -0.06586204106248289,-0.4606389617921177 l 5.978108107619959 -0.8023055311724647" fill="#ff4706" stroke="none" /><path d="M 79.07016306316243 101.71520430193888 l -3.0137141774192084 0.24697447655818477 a24.02381704725149,24.02381704725149 0 0,0 -0.03022818668603763,-0.41243959092482063 l 3.017518922769581 -0.1950617491366035" fill="#ff1d02" stroke="none" /><path d="M 79.0235259727143 100.99374915477108 l -2.7632952608457244 0.13090962409966542 a23.766394409388212,23.766394409388212 0 0,0 -0.01584184912136089,-0.40880773414811267 l 2.765139242818286 -0.08332464293755595" fill="#ff1902" stroke="none" /><line stroke="#e1ed5e" stroke-width="0.3" x1="15.007084014347285" x2="10.007500721073583" y1="101.09737516637583" y2="101.16192664675087" /><path d="M 14.007167355692545 101.11028546245083 a86.0,86.0 0 0,1 10.666146001902534,-42.60595125391555" fill="none" id="id10" stroke="none" /><text fill="#e1ed5e" style="font-size:6.75px; font-family:Arial;" text-anchor="middle"><textPath startOffset="22.20632615414155" xlink:href="#id10">October</textPath></text><path d="M 79.00175016825051 100.2711162175752 l -7.897109736923775 0.10196252253432246 a28.89776794752909,28.89776794752909 0 0,0 -0.0021407779011087596,-0.4974413911476855 l 7.897694812114387 0.0339883468170384" fill="#ff6109" stroke="none" /><path d="M 79.00019446554 99.90962569577889 l -3.280910726141784 -0.014119655708245053 a24.280941108521993,24.280941108521993 0 0,0 0.005396141872792382,-0.41793713480474626 l 3.280181577151276 0.07059304857346328" fill="#ff2003" stroke="none" /><path d="M 79.00486145842228 99.54816195383935 l -4.961777168752431 -0.1067828010267152 a25.962926076313046,25.962926076313046 0 0,0 0.013461536759256987,-0.44672286912237913 l 4.95920393753753 0.19217581757408872" fill="#ff3805" stroke="none" /><path d="M 79.01574976396665 99.18683210126434 l -11.649792487399692 -0.45144511579537555 a32.65853625855535,32.65853625855535 0 0,0 0.026603319798063428,-0.5615540341387659 l 11.64029555936813 0.6519102565571506" fill="#ff940d" stroke="none" /><path d="M 79.03285615573316 98.82574320788736 l -4.728356207106554 -0.26480976297785297 a25.735765685910934,25.735765685910934 0 0,0 0.02857823075449267,-0.4420925807476543 l 4.723097385347648 0.346161407978519" fill="#ff3505" stroke="none" /><path d="M 79.05617556472873 98.46500227214037 l -1.521949066711708 -0.11154545181281272 a22.526031241320034,22.526031241320034 0 0,0 0.031671080947529,-0.38646740746620956 l 1.5198035019446818 0.13772677648680065" fill="#ff0701" stroke="none" /><path d="M 79.08570108090925 98.10471618934814 l -9.763027498881437 -0.8847395761704687 a30.80303371725087,30.80303371725087 0 0,0 0.05239870962321073,-0.5276478550776956 l 9.746351663575997 1.0526629619525947" fill="#ff7b0b" stroke="none" /><path d="M 79.32604984820605 96.31383870115002 l -25.134331708607185 -4.481446464583176 a46.53072644585777,46.53072644585777 0 0,0 0.14737893264259463,-0.7873041513240617 l 25.053467052054728 4.913428693369811" fill="#bfff1e" stroke="none" /><path d="M 79.54389044137918 95.25157060432595 l -1.0138259228440882 -0.2353370664316 a22.040781695009716,22.040781695009716 0 0,0 0.08896834973088887,-0.36883124730464983 l 1.0096247728523846 0.25275354539564665" fill="#ff0000" stroke="none" /><path d="M 79.91906864156998 93.8553929516997 l -34.03698658791152 -10.415050176603737 a56.59479914491501,56.59479914491501 0 0,0 0.2930654311547359,-0.9290975041114261 l 33.85266567298858 10.999397847141578" fill="#52ff2b" stroke="none" /><path d="M 80.65960295795068 91.81776055985345 l -15.743737633360656 -6.660619775226349 a38.0947105988441,38.0947105988441 0 0,0 0.26069351518611394,-0.6017165758267872 l 15.62675340833186 6.930635495639736" fill="#ffda14" stroke="none" /><path d="M 81.26839172434947 90.50648371742162 l -5.336152534533641 -2.7044581665082728 a26.982358886442963,26.982358886442963 0 0,0 0.2135339770483424,-0.4124796771575919 l 5.2888091243251845 2.7959105659262002" fill="#ff4706" stroke="none" /><line stroke="#e1ed5e" stroke-width="0.3" x1="26.266209847984243" x2="21.928928074336255" y1="57.711370442889674" y2="55.22380399835377" /><path d="M 25.398753493254645 57.213857153982495 a86.0,86.0 0 0,1 29.58750427330803,-30.492523968695096" fill="none" id="id11" stroke="none" /><text fill="#e1ed5e" style="font-size:6.75px; font-family:Arial;" text-anchor="middle"><textPath startOffset="21.46611528233685" xlink:href="#id11">November</textPath></text><path d="M 81.96595687620814 89.24020034530311 l -22.16123421836802 -13.222239663820668 a46.80596682569514,46.80596682569514 0 0,0 0.41876674821369253,-0.6883424267607252 l 21.93035167186811 13.601749863788468" fill="#bcff1f" stroke="none" /><path d="M 82.95767976084542 87.72973835380427 l -7.030274069291637 -5.061711144030987 a29.66289057964845,29.66289057964845 0 0,0 0.3019080351327626,-0.4118022206300177 l 6.942103421645241 5.181975808332505" fill="#ff6c09" stroke="none" /><path d="M 83.6137871275137 86.86637796730984 l -8.283962988837699 -6.6396329447708755 a31.616438595014788,31.616438595014788 0 0,0 0.3440192330540486,-0.42172690243226885 l 8.168445263707257 6.781244016811227" fill="#ff860c" stroke="none" /><path d="M 83.84228863543731 86.58626213691792 l -12.297251561281731 -10.208878297033152 a36.98260279319612,36.98260279319612 0 0,0 0.41084041510829,-0.486305465750589 l 12.119700532686318 10.419042712412857" fill="#ffcc13" stroke="none" /><path d="M 85.05521093208273 85.24692304244772 l -7.984420015275145 -7.881995685014446 a32.2194838989551,32.2194838989551 0 0,0 0.393022776761808,-0.39133501205616567 l 7.847561438346023 8.018266547720721" fill="#ff8e0d" stroke="none" /><path d="M 85.83668400450813 84.49514656593479 l -3.951550141966666 -4.325837664573338 a26.858977728641584,26.858977728641584 0 0,0 0.3440366615909095,-0.3088795116624194 l 3.8765024927797853 4.393216185005036" fill="#ff4506" stroke="none" /><path d="M 86.10567301691215 84.25364557470407 l -5.7692439758853356 -6.538248345592404 a29.719682762688734,29.719682762688734 0 0,0 0.3865061745114707,-0.33517434584125677 l 5.6558440027270915 6.636587684853341" fill="#ff6c0a" stroke="none" /><path d="M 88.70189139769569 82.29822771554957 l -2.176671140320023 -3.4103882535012526 a25.04581824761338,25.04581824761338 0 0,0 0.3654075725825976,-0.2288181884286685 l 2.117644415365183 3.4473507832528516" fill="#ff2b04" stroke="none" /><path d="M 89.00827224532344 82.1063720568725 l -1.0697665538379348 -1.7414918862263025 a23.043818599950185,23.043818599950185 0 0,0 0.3397733513211371,-0.20470964242101147 l 1.0396311362991486 1.7596481381059332" fill="#ff0f01" stroke="none" /><line stroke="#e1ed5e" stroke-width="0.3" x1="56.762969772571076" x2="54.21961505331055" y1="26.818313649435495" y2="22.513508569990535" /><path d="M 56.25429882871897 25.957352633546506 a86.0,86.0 0 0,1 42.265352541879196,-11.944610805530505" fill="none" id="id12" stroke="none" /><text fill="#e1ed5e" style="font-size:6.75px; font-family:Arial;" text-anchor="middle"><textPath startOffset="22.20632615414155" xlink:href="#id12">December</textPath></text><path d="M 89.94658935756843 81.56283822128135 l -3.540534013637375 -6.493059988714435 a28.39562094206886,28.39562094206886 0 0,0 0.4311468759182498,-0.2303037295536553 l 3.42824209119082 6.55304244476984" fill="#ff5a08" stroke="none" /><path d="M 92.57280143429618 80.3572730644239 l -2.0804781507270813 -5.502244735837604 a26.88243881980131,26.88243881980131 0 0,0 0.43423801781019966,-0.15993352664487806 l 1.9854578071443123 5.537241530288805" fill="#ff4506" stroke="none" /><path d="M 93.25333710446033 80.11325718540243 l -3.0611893553440477 -9.023288455209121 a30.528410928123424,30.528410928123424 0 0,0 0.49909180386987256,-0.16454272082085694 l 2.9054147292317656 9.074644900289211" fill="#ff770b" stroke="none" /><path d="M 94.28887869178378 79.79150937346287 l -2.322164459772915 -8.216852030631369 a29.538682865145145,29.538682865145145 0 0,0 0.4904857649822463,-0.13406828777676205 l 2.1803808055669465 8.255606859234428" fill="#ff6a09" stroke="none" /><path d="M 94.63758080256005 79.69619591428918 l -0.6021630377381554 -2.279978475336068 a23.358156519829382,23.358156519829382 0 0,0 0.38962640979051244,-0.09932444724949989 l 0.5628277392626435 2.290005918754431" fill="#ff1302" stroke="none" /><path d="M 94.98787191387505 79.60689891045804 l -1.7854393360986365 -7.264508058183827 a28.480699897088915,28.480699897088915 0 0,0 0.47708740964402263,-0.11291117578674892 l 1.66012823949208 7.294165146111447" fill="#ff5c08" stroke="none" /><path d="M 95.692805502759 79.44645832069477 l -2.1706553536680695 -10.358170570565557 a31.58316787324751,31.58316787324751 0 0,0 0.5330540757008239,-0.10692563287320163 l 1.9920348685001095 10.39400015951597" fill="#ff860c" stroke="none" /><path d="M 96.40284397218896 79.31037775812273 l -1.3415153180905965 -7.715941412715479 a28.831692999162406,28.831692999162406 0 0,0 0.48968680144624704,-0.08080251803705245 l 1.2084993105054638 7.7378901936921585" fill="#ff6008" stroke="none" /><path d="M 97.47563105711357 79.15227682838746 l -0.7772714052908696 -6.419164335061839 a27.466051468865118,27.466051468865118 0 0,0 0.4698438195586747,-0.052792427593724205 l 0.6666608822224769 6.431592716126161" fill="#ff4d07" stroke="none" /><path d="M 98.19473922651362 79.07773832637324 l -0.7916259138417859 -9.174632695882211 a30.208721772961585,30.208721772961585 0 0,0 0.5184533187523341,-0.04024195577239495 l 0.6335824057271177 9.18689991384307" fill="#ff730a" stroke="none" /><path d="M 98.55514903715128 79.0497635885617 l -0.7887292121879195 -11.436517595811418 a32.463683024641895,32.463683024641895 0 0,0 0.5578156604634139,-0.03364896396764284 l 0.5917515028848825 11.448399829159367" fill="#ff910d" stroke="none" /><path d="M 99.27714615592234 79.0124445844662 l -0.21179113260435567 -6.149207296150206 a27.152853472566754,27.152853472566754 0 0,0 0.46725323921151724,-0.012067772637500824 l 0.10591125819795942 6.151941860930067" fill="#ff4906" stroke="none" /></svg>