<?xml version="1.0" encoding="utf-8" ?>
<svg baseProfile="full" height="200mm" version="1.1" viewBox="0,0,200,200" width="200mm" xmlns="http://www.w3.org/2000/svg" xmlns:ev="http://www.w3.org/2001/xml-events" xmlns:xlink="http://www.w3.org/1999/xlink"><defs /><rect fill="#1a1a1a" height="200" width="200" x="0" y="0" /><text alignment-baseline="middle" fill="#e1ed5e" style="dominant-baseline: central; font-size:9.0px; font-family:Arial;" text-anchor="middle" x="100.0" y="100.0">2018</text><line stroke="#e1ed5e" stroke-width="0.3" x1="100.0" x2="100.0" y1="15.0" y2="10.0" /><path d="M 100.0 14.0 a86.0,86.0 0 0,1 42.46469731375804,11.215312516191453" fill="none" id="id49" stroke="none" /><text fill="#e1ed5e" style="font-size:6.75px; font-family:Arial;" text-anchor="middle"><textPath startOffset="22.20632615414155" xlink:href="#id49">January</textPath></text><path d="M 100.0 79.0 l 0.0 -45.66168466108395 a66.66168466108395,66.66168466108395 0 0,0 1.14747132001918,0.009876647921029722 l -0.7859908407466517 45.65491938977148" fill="#37ff7a" stroke="none" /><path d="M 101.44485096284872 79.0497635885617 l 0.7208995731082783 -10.45299264343899 a31.47782188235214,31.47782188235214 0 0,0 0.5402340868525947,0.0419325625731912 l -0.9007238493232141 10.439034818677333" fill="#ff7f0b" stroke="none" /><path d="M 102.88285421437855 79.19881850522331 l 1.4688367165170768 -10.59836427873263 a31.699663858481934,31.699663858481934 0 0,0 0.5398468145608469,0.07955938740881807 l -1.6510525115065795 10.571510407162844" fill="#ff820c" stroke="none" /><path d="M 104.66035177308747 79.52364482259891 l 10.118328798887282 -44.45726511123031 a66.59417724723858,66.59417724723858 0 0,0 1.1155359115141805,0.264011308735627 l -10.882088397363987 44.27650789035382" fill="#37ff7a" stroke="none" /><path d="M 105.71112130821622 79.79150937346287 l 5.8158447549592065 -20.57904881952101 a42.38507190846025,42.38507190846025 0 0,0 0.7003825987967465,0.20446088634418763 l -6.16921757147938 20.475889604258118" fill="#f3ff19" stroke="none" /><path d="M 110.05341064243156 81.56283822128135 l 5.068929296131261 -9.296016327356018 a31.588199269358668,31.588199269358668 0 0,0 0.47514053422774977,0.26441519287400134 l -5.228193919431045 9.207385736921838" fill="#ff810b" stroke="none" /><line stroke="#e1ed5e" stroke-width="0.3" x1="143.23703022742887" x2="145.7803849466894" y1="26.81831364943548" y2="22.513508569990506" /><path d="M 143.74570117128098 25.957352633546492 a86.0,86.0 0 0,1 28.547481713284135,27.462654790039103" fill="none" id="id50" stroke="none" /><text fill="#e1ed5e" style="font-size:6.75px; font-family:Arial;" text-anchor="middle"><textPath startOffset="19.985693538727396" xlink:href="#id50">February</textPath></text><path d="M 113.89432698308785 84.25364557470407 l 7.015176443998827 -7.950255869006734 a31.602795335340208,31.602795335340208 0 0,0 0.4048002241171055,0.36343363805455636 l -7.150987655711923 7.828323222182881" fill="#ff810b" stroke="none" /><path d="M 116.38621287248628 86.86637796730983 l 8.27491103930859 -6.632377767220135 a31.604837931604006,31.604837931604006 0 0,0 0.33658538270915894,0.42742925525986003 l -8.387850502611712 6.488956118007237" fill="#ff810b" stroke="none" /><path d="M 116.82858285166822 87.43820079747576 l 10.3199361072196 -7.703379797599624 a33.87801000011884,33.87801000011884 0 0,0 0.3448093976506019,0.470319630890826 l -10.45100811738383 7.524597723037304" fill="#ffa00e" stroke="none" /><path d="M 117.2510076193507 88.02491185347247 l 9.621113942070096 -6.678664230304874 a32.711976322869226,32.711976322869226 0 0,0 0.3171122885218974,0.4653231538047217 l -9.734650696260726 6.512063053229746" fill="#ff900d" stroke="none" /><line stroke="#e1ed5e" stroke-width="0.3" x1="172.23445277983987" x2="176.4835382374775" y1="55.19839476539836" y2="52.563006222186495" /><path d="M 173.08426987136738 54.67131705675599 a86.0,86.0 0 0,1 12.851231095245387,41.99856678651699" fill="none" id="id51" stroke="none" /><text fill="#e1ed5e" style="font-size:6.75px; font-family:Arial;" text-anchor="middle"><textPath startOffset="22.20632615414155" xlink:href="#id51">March</textPath></text><path d="M 118.89224826269711 90.83032412892265 l 14.237251917499087 -6.9102937650949094 a36.82565960970477,36.82565960970477 0 0,0 0.2718817513741579,0.5726523068851863 l -14.354091862715 6.664199042569183" fill="#ffc612" stroke="none" /><path d="M 119.47837535516314 92.15188598940014 l 42.20652733904973 -17.005609169584034 a66.5036448347887,66.5036448347887 0 0,0 0.4186767049302668,1.065486546796285 l -42.492997593861695 16.276573617891966" fill="#37ff79" stroke="none" /><path d="M 120.28053869075195 94.5502522615342 l 60.84161607225586 -16.349243215397394 a84.0,84.0 0 0,0 0.36321467251878925,1.3996142978045985 l -61.11402707664495 15.299532492043943" fill="#4dd2ff" stroke="none" /><path d="M 120.6074358757038 95.95851677861258 l 10.431940087689316 -2.045888245641594 a31.630664734944556,31.630664734944556 0 0,0 0.10018527462356094,0.535193743083696 l -10.465611086222737 1.866016425095335" fill="#ff810b" stroke="none" /><path d="M 120.78858239683441 97.02765380044208 l 10.533959887067127 -1.5061428931963776 a31.64108910389652,31.64108910389652 0 0,0 0.07244905515632616,0.5398296125249394 l -10.558324941281288 1.324594938606774" fill="#ff820b" stroke="none" /><path d="M 120.96714384426684 98.82574320788733 l 10.55538630593971 -0.5911503328819823 a31.57192691914232,31.57192691914232 0 0,0 0.025718178604869867,0.5428701025244107 l -10.563998092778077 0.4093691237345718" fill="#ff810b" stroke="none" /><path d="M 120.98425023603335 99.18683210126433 l 15.846285334356503 -0.6140648535527706 a36.85817879020825,36.85817879020825 0 0,0 0.019110624403630955,0.6341885861166178 l -15.85450765321578 0.34120612001115386" fill="#ffc612" stroke="none" /><line stroke="#e1ed5e" stroke-width="0.3" x1="184.98032266829074" x2="189.97916517819016" y1="98.17113171792111" y2="98.06355123074" /><path d="M 185.9800911702706 98.14961562048488 a86.0,86.0 0 0,1 -9.607161424134198,41.387399972396054" fill="none" id="id52" stroke="none" /><text fill="#e1ed5e" style="font-size:6.75px; font-family:Arial;" text-anchor="middle"><textPath startOffset="21.466115282336823" xlink:href="#id52">April</textPath></text><path d="M 120.99513854157772 99.54816195383933 l 9.906346566615282 -0.21319527224770216 a30.90864039724922,30.90864039724922 0 0,0 0.006869066892145318,0.5320168007739642 l -9.908548640625142 0.04264221341327523" fill="#ff780b" stroke="none" /><path d="M 120.9904718944345 100.63252640178507 l 10.534401549778494 0.31744341626770145 a31.539183380817853,31.539183380817853 0 0,0 -0.02102291899743945,0.5425081260832919 l -10.52737649792985 -0.4987287893649995" fill="#ff800b" stroke="none" /><path d="M 120.92983693683757 101.71520430193887 l 15.917694020395034 1.3044581925373304 a36.97105488385152,36.97105488385152 0 0,0 -0.05743788531657436,0.6338222782466102 l -15.892881538801385 -1.5782618593325113" fill="#ffc812" stroke="none" /><path d="M 120.8583938346157 102.4346265915055 l 5.330839032238147 0.6222244419119055 a26.367029722644205,26.367029722644205 0 0,0 -0.05649888300773742,0.45035168731852526 l -5.319338639983561 -0.7138938835178257" fill="#ff3805" stroke="none" /><path d="M 120.76222939487914 103.15116336523771 l 10.484789560779875 1.59131681515402 a31.604862155635526,31.604862155635526 0 0,0 -0.08626358344830173,0.5371634164775956 l -10.455844222970287 -1.7715594613248207" fill="#ff810b" stroke="none" /><path d="M 120.49622156327973 104.57218783832717 l 43.06099640481235 9.6058175142418 a65.11939643163964,65.11939643163964 0 0,0 -0.25346774339362865,1.0919324046725876 l -42.88926809548817 -10.345618576262952" fill="#35ff69" stroke="none" /><path d="M 119.79798401119884 107.00284435728193 l 43.93010253770636 15.53873720157454 a67.59727741824614,67.59727741824614 0 0,0 -0.3974582753929829,1.093634472344611 l -43.656120001308146 -16.29261947092528" fill="#38ff85" stroke="none" /><line stroke="#e1ed5e" stroke-width="0.3" x1="174.80103733775053" x2="179.2010983576182" y1="140.37084112569926" y2="142.7455964860345" /><path d="M 175.68104954172406 140.8457921977663 a86.0,86.0 0 0,1 -30.038265399797805,32.042727171017184" fill="none" id="id53" stroke="none" /><text fill="#e1ed5e" style="font-size:6.75px; font-family:Arial;" text-anchor="middle"><textPath startOffset="22.206326154141568" xlink:href="#id53">May</textPath></text><path d="M 118.48025628344425 109.97397251340804 l 40.28313715080957 21.741197553410725 a66.7756573930661,66.7756573930661 0 0,0 -0.554630948749259,1.006816275429157 l -39.9029297926088 -22.431384347237685" fill="#37ff7c" stroke="none" /><path d="M 117.55443506779139 111.5257021239791 l 18.59124241546283 12.206437938208719 a43.240310737259165,43.240310737259165 0 0,0 -0.41386515139354985,0.6186722473722224 l -18.37837415865856 -12.524647099786748" fill="#e9ff1a" stroke="none" /><path d="M 116.93607887273984 112.41649034213515 l 14.421192927167887 10.572730798417691 a38.88165098581244,38.88165098581244 0 0,0 -0.4003675694274099,0.5363577863811338 l -14.237064091045385 -10.81940146430814" fill="#ffe015" stroke="none" /><path d="M 116.0416608686014 113.55231037782055 l 37.88603489988675 32.00686687954972 a70.59628179491537,70.59628179491537 0 0,0 -0.7922163143535178,0.9215265501920197 l -37.329476075962454 -32.65427052890327" fill="#3cffa6" stroke="none" /><line stroke="#e1ed5e" stroke-width="0.3" x1="143.8653032363475" x2="146.44561519142675" y1="172.8068346515853" y2="177.08958963109032" /><path d="M 144.38136562736335 173.6633856474863 a86.0,86.0 0 0,1 -40.68145358897372,12.25698825130547" fill="none" id="id54" stroke="none" /><text fill="#e1ed5e" style="font-size:6.75px; font-family:Arial;" text-anchor="middle"><textPath startOffset="21.466115282336833" xlink:href="#id54">June</textPath></text><path d="M 110.5260780823613 118.17145234162733 l 6.620833967534594 11.429724153812597 a34.20886205007483,34.20886205007483 0 0,0 -0.5120760936982676,0.29077017036698255 l -6.423109106915128 -11.541997489974209" fill="#ffa40f" stroke="none" /><path d="M 104.48393922423573 120.51570834832081 l 4.616912946533315 21.124113138890404 a42.62276673001189,42.62276673001189 0 0,0 -0.7181094669800969,0.1504868208532448 l -4.25261201812384 -21.20045594047019" fill="#f0ff19" stroke="none" /><path d="M 103.7750983002368 120.6578951692458 l 1.748337657576005 9.567161747386626 a30.725598617337457,30.725598617337457 0 0,0 -0.5210930261762712,0.09059870200850202 l -1.583395659927684 -9.595839027916133" fill="#ff750a" stroke="none" /><path d="M 103.06178313531738 120.77559828337769 l 3.458282395512139 23.466027025519463 a44.7194886430867,44.7194886430867 0 0,0 -0.7625128714206948,0.10567733594580009 l -3.0538409329046137 -23.522078926957864" fill="#d7ff1c" stroke="none" /><line stroke="#e1ed5e" stroke-width="0.3" x1="102.19456741930631" x2="102.32365962044197" y1="184.97166512339345" y2="189.96999836594603" /><path d="M 102.22038585953345 185.97133177190398 a86.0,86.0 0 0,1 -42.740103519485714,-10.115201625700543" fill="none" id="id55" stroke="none" /><text fill="#e1ed5e" style="font-size:6.75px; font-family:Arial;" text-anchor="middle"><textPath startOffset="22.20632615414155" xlink:href="#id55">July</textPath></text><path d="M 100.18074693466247 120.99922214144158 l 0.07277190217674748 8.454657017108138 a29.45497019667617,29.45497019667617 0 0,0 -0.5070376736784,0.0 l 0.07277190217674165 -8.454657017108138" fill="#ff6409" stroke="none" /><path d="M 99.45781275523022 120.99299961872073 l -0.5452234807567089 21.110559929352917 a42.11759951260487,42.11759951260487 0 0,0 -0.7245824542962911,-0.024956084787828407 l 0.908526286727643 -21.098047046138994" fill="#f6ff19" stroke="none" /><path d="M 98.73552117531835 120.96189622390904 l -0.7727134134323672 12.809655699271811 a33.832940627665394,33.832940627665394 0 0,0 -0.5810199191757914,-0.04007053539487012 l 0.9930960933870887 -12.794456819360656" fill="#ff9f0e" stroke="none" /><path d="M 98.01472825383883 120.90594882070398 l -1.9116938312092324 20.131134930719483 a41.22170039593895,41.22170039593895 0 0,0 -0.7058085607080931,-0.07315994319447916 l 2.2579349885229187 -20.095245619069242" fill="#fffd17" stroke="none" /><path d="M 96.58105272829116 120.7198165907248 l -0.23859725624397496 1.4459688891178457 a22.465521981747067,22.465521981747067 0 0,0 -0.38100565524840424,-0.06624271692273145 l 0.2634518829644291 -1.441647593674108" fill="#ff0000" stroke="none" /><path d="M 95.51606077576429 120.51570834832081 l -3.482534812662784 15.933906539877736 a37.31004066037135,37.31004066037135 0 0,0 -0.6262398837197102,-0.14253015867258625 l 3.7562948457753564 -15.871599647627463" fill="#ffcc13" stroke="none" /><path d="M 94.81253420990036 120.34920634021253 l -5.255293992855393 20.6152804020785 a42.27458345086136,42.27458345086136 0 0,0 -0.7035890924875856,-0.1858242741477214 l 5.609373528154467 -20.521764778627198" fill="#f4ff19" stroke="none" /><path d="M 94.46302465271185 120.25689768951611 l -2.802215031096192 10.251839610725597 a31.627917222322715,31.627917222322715 0 0,0 -0.5239222199720651,-0.1480656526817099 l 2.9782684191728714 -10.202085164705364" fill="#ff810b" stroke="none" /><path d="M 93.08242187328487 119.8279376855182 l -17.309818520426017 49.61534176898641 a73.54818699121228,73.54818699121228 0 0,0 -1.1917623516312732,-0.42732357842146657 l 18.161300432687018 -49.31003064952499" fill="#40ffc6" stroke="none" /><path d="M 92.06813273071674 119.44442032107085 l -2.08723960592497 5.116722561099888 a26.526067221796204,26.526067221796204 0 0,0 -0.42129526122656635,-0.17610145336076272 l 2.1750063266489987 -5.080036064719152" fill="#ff3b05" stroke="none" /><line stroke="#e1ed5e" stroke-width="0.3" x1="58.666819895761336" x2="56.23545636021788" y1="174.27360380694188" y2="178.64263932499728" /><path d="M 58.180547188652646 175.14741091055294 a86.0,86.0 0 0,1 -31.652253787137756,-30.449443065178592" fill="none" id="id56" stroke="none" /><text fill="#e1ed5e" style="font-size:6.75px; font-family:Arial;" text-anchor="middle"><textPath startOffset="22.20632615414155" xlink:href="#id56">August</textPath></text><path d="M 87.36589467227662 116.77436683061367 l -6.404193813906964 8.50288116983588 a31.644843192571408,31.644843192571408 0 0,0 -0.43228554301319955,-0.3314581207813228 l 6.549608085413651 -8.391383707227192" fill="#ff820b" stroke="none" /><path d="M 83.06392112726016 112.41649034213515 l -37.07226005878833 27.17909868275203 a66.96798745946145,66.96798745946145 0 0,0 -0.6735710578750078,-0.935531287198838 l 37.534610909038946 -26.536933790102054" fill="#38ff7e" stroke="none" /><line stroke="#e1ed5e" stroke-width="0.3" x1="26.63291911575756" x2="22.317208475507996" y1="142.92168965132927" y2="145.44649492493687" /><path d="M 25.769776987707644 143.4266507060508 a86.0,86.0 0 0,1 -11.730757126820373,-40.83630448921669" fill="none" id="id57" stroke="none" /><text fill="#e1ed5e" style="font-size:6.75px; font-family:Arial;" text-anchor="middle"><textPath startOffset="21.46611528233685" xlink:href="#id57">September</textPath></text><path d="M 81.18737489456691 109.33194174019688 l -9.603423072032106 4.7637469046669265 a31.72002888392388,31.72002888392388 0 0,0 -0.23842396473402072,-0.4912239861977242 l 9.684000293380846 -4.597733962503917" fill="#ff830c" stroke="none" /><path d="M 80.87730276802145 108.67885076344099 l -9.061946307571802 4.1127712621109955 a30.95157064667484,30.95157064667484 0 0,0 -0.21601088665903914,-0.4870475242075022 l 9.13139827896212 -3.956175401410797" fill="#ff780b" stroke="none" /><path d="M 80.45479744820244 107.68017299344265 l -10.14096533268022 3.9848329977181955 a31.895782298592692,31.895782298592692 0 0,0 -0.19639557657372042,-0.5127268772107154 l 10.208055188847451 -3.8096825536743224" fill="#ff850c" stroke="none" /><path d="M 79.58551787078972 104.9243191809786 l -6.325640006877172 1.5258516096893937 a27.507068820244392,27.507068820244392 0 0,0 -0.10706724944171658,-0.4612429083846585 l 6.3509678222494435 -1.416740043956161" fill="#ff4906" stroke="none" /><path d="M 79.0095281055655 100.63252640178507 l -5.403803527081639 0.1628380923558333 a26.40625645004212,26.40625645004212 0 0,0 -0.009780295590097389,-0.45445190513822964 l 5.4058058853567434 -0.06979637142747484" fill="#ff3905" stroke="none" /><line stroke="#e1ed5e" stroke-width="0.3" x1="15.007084014347285" x2="10.007500721073583" y1="101.09737516637583" y2="101.16192664675087" /><path d="M 14.007167355692545 101.11028546245083 a86.0,86.0 0 0,1 10.666146001902534,-42.60595125391555" fill="none" id="id58" stroke="none" /><text fill="#e1ed5e" style="font-size:6.75px; font-family:Arial;" text-anchor="middle"><textPath startOffset="22.20632615414155" xlink:href="#id58">October</textPath></text><path d="M 79.00175016825051 100.2711162175752 l -5.32327371548476 0.06873076786988053 a26.323717401254775,26.323717401254775 0 0,0 -0.0019500894529280357,-0.4531321113808847 l 5.323668102227191 0.02291082171467956" fill="#ff3805" stroke="none" /><path d="M 79.08570108090925 98.10471618934814 l -59.26365490627652 -5.370557537618256 a80.50650116680615,80.50650116680615 0 0,0 0.13694874394977746,-1.379055162241548 l 59.16242903664452 6.389888230564234" fill="#49f3ff" stroke="none" /><path d="M 80.95270993114464 91.15688171328213 l -14.873236402823299 -6.9052231756340685 a37.398026350740565,37.398026350740565 0 0,0 0.2761075024844089,-0.5815528164242648 l 14.752170706497138 7.160218407698865" fill="#ffcd13" stroke="none" /><path d="M 81.10775173730289 90.83032412892265 l -5.72309820649031 -2.777803615649086 a27.361607187515254,27.361607187515254 0 0,0 0.20930324877029802,-0.4219425776635577 l 5.6744349447666 2.875905781811605" fill="#ff4706" stroke="none" /><path d="M 81.43458229118936 90.18545643968196 l -10.563705955020975 -5.584466446167907 a32.94898108595544,32.94898108595544 0 0,0 0.2693844376886814,-0.4991284506314809 l 10.466013418113821 5.76547588013186" fill="#ff930d" stroke="none" /><line stroke="#e1ed5e" stroke-width="0.3" x1="26.266209847984243" x2="21.928928074336255" y1="57.711370442889674" y2="55.22380399835377" /><path d="M 25.398753493254645 57.213857153982495 a86.0,86.0 0 0,1 29.58750427330803,-30.492523968695096" fill="none" id="id59" stroke="none" /><text fill="#e1ed5e" style="font-size:6.75px; font-family:Arial;" text-anchor="middle"><textPath startOffset="21.46611528233685" xlink:href="#id59">November</textPath></text><path d="M 81.78341655067845 89.55222093294921 l -4.8187182297789874 -2.7636852756259285 a26.55499790105414,26.55499790105414 0 0,0 0.2308265695856314,-0.3945574309537182 l 4.7704319857230315 2.846222118933538" fill="#ff3b05" stroke="none" /><path d="M 83.84228863543731 86.58626213691792 l -8.083725368789406 -6.710911626500783 a31.506329078070646,31.506329078070646 0 0,0 0.35000438961408953,-0.4142948002356741 l 7.967010365688192 6.849065376365573" fill="#ff800b" stroke="none" /><path d="M 84.5562425177563 85.77008943001954 l -7.795664333071964 -7.182941484333905 a31.600331634495937,31.600331634495937 0 0,0 0.37203021983895956,-0.39685589946726724 l 7.670866791262548 7.316066800679223" fill="#ff810b" stroke="none" /><path d="M 85.05521093208273 85.24692304244772 l -4.0855468166667235 -4.033137324725511 a26.74089622543986,26.74089622543986 0 0,0 0.3261933468761294,-0.32479256898073905 l 4.015517669623281 4.102865744356359" fill="#ff3e05" stroke="none" /><path d="M 85.57189188830299 84.74124197986013 l -33.48863509474913 -35.41663088324599 a69.7424499141083,69.7424499141083 0 0,0 0.8793929000994282,-0.8172998609419356 l 32.87403431085484 35.98783533026258" fill="#3bff9d" stroke="none" /><path d="M 86.37877921826538 84.01681056812374 l -3.6655681596875063 -4.301190855837412 a26.651250544052548,26.651250544052548 0 0,0 0.35172348661421776,-0.2945583050134345 l 3.5909871361141783 4.363650318244659" fill="#ff3d05" stroke="none" /><path d="M 87.22198572758235 83.33499621200491 l -27.34080968835925 -35.65770763043229 a65.93319472141357,65.93319472141357 0 0,0 0.9065935033716757,-0.682827431085125 l 26.722970031229185 36.123051651023275" fill="#36ff72" stroke="none" /><line stroke="#e1ed5e" stroke-width="0.3" x1="56.762969772571076" x2="54.21961505331055" y1="26.818313649435495" y2="22.513508569990535" /><path d="M 56.25429882871897 25.957352633546506 a86.0,86.0 0 0,1 42.265352541879196,-11.944610805530505" fill="none" id="id60" stroke="none" /><text fill="#e1ed5e" style="font-size:6.75px; font-family:Arial;" text-anchor="middle"><textPath startOffset="22.20632615414155" xlink:href="#id60">December</textPath></text><path d="M 89.3179101791058 81.91981866633112 l -22.678525168473417 -38.38498405285351 a65.58388166764868,65.58388166764868 0 0,0 0.9768977372975379,-0.565882223828621 l 22.01443069871056 38.769670434072175" fill="#36ff6e" stroke="none" /><path d="M 90.26544431104013 81.39251694778311 l -20.813549099580094 -39.78484221587539 a65.90030619341846,65.90030619341846 0 0,0 1.0096539229724586,-0.5171839545176176 l 20.125634689018874 40.13721869570551" fill="#36ff72" stroke="none" /><path d="M 91.90106846888425 80.62456947434976 l -17.96639989301061 -42.98180958632202 a67.58570038574514,67.58570038574514 0 0,0 1.0772392430607483,-0.4394329351110439 l 17.22387678036148 43.28470340761664" fill="#38ff85" stroke="none" /><path d="M 95.33964822691252 79.52364482259891 l -2.3561449334316773 -10.35227872389096 a31.617019060191105,31.617019060191105 0 0,0 0.5317038248420617,-0.11620986199487675 l 2.1775983844360947 10.391302083981705" fill="#ff810b" stroke="none" /><path d="M 99.63851952072746 79.00311137660856 l -0.7982656613063039 -46.3679123588005 a67.37478328336883,67.37478328336883 0 0,0 1.1597461405788283,-0.009982301176885566 l 1.1358545981825964e-14 46.37478328336883" fill="#38ff83" stroke="none" /></svg>