<?xml version="1.0" encoding="utf-8" ?>
<svg baseProfile="full" height="200mm" version="1.1" viewBox="0,0,200,200" width="200mm" xmlns="http://www.w3.org/2000/svg" xmlns:ev="http://www.w3.org/2001/xml-events" xmlns:xlink="http://www.w3.org/1999/xlink"><defs /><rect fill="#1a1a1a" height="200" width="200" x="0" y="0" /><text alignment-baseline="middle" fill="#e1ed5e" style="dominant-baseline: central; font-size:9.0px; font-family:Arial;" text-anchor="middle" x="100.0" y="100.0">2017</text><line stroke="#e1ed5e" stroke-width="0.3" x1="100.0" x2="100.0" y1="15.0" y2="10.0" /><path d="M 100.0 14.0 a86.0,86.0 0 0,1 42.46469731375804,11.215312516191453" fill="none" id="id37" stroke="none" /><text fill="#e1ed5e" style="font-size:6.75px; font-family:Arial;" text-anchor="middle"><textPath startOffset="22.20632615414155" xlink:href="#id37">January</textPath></text><path d="M 100.36148047927253 79.00311137660856 l 1.0486693653875752 -60.91281585140599 a81.92184207971061,81.92184207971061 0 0,0 1.4097319868276044,0.03640921810527274 l -2.0970279874100477 60.885739841158355" fill="#4ae5ff" stroke="none" /><path d="M 101.80526077348638 79.07773832637324 l 0.20278534820320088 -2.3502023535864014 a23.358934717250342,23.358934717250342 0 0,0 0.40029969822274997,0.03801327974607286 l -0.24321017351619506 2.34636352932515" fill="#ff0c01" stroke="none" /><path d="M 107.4271985657038 80.35727306442388 l 5.107997887952819 -13.50913225396566 a35.442586218488216,35.442586218488216 0 0,0 0.5687975348372056,0.22068460671693754 l -5.3397785877896915 13.419204943358174" fill="#ffb310" stroke="none" /><path d="M 107.76421540070413 80.48803036053334 l 2.7553100500168397 -6.924270292445817 a28.45233202122473,28.45233202122473 0 0,0 0.4534978321586074,0.18499315238993308 l -2.8740917517638347 6.875816253872305" fill="#ff5507" stroke="none" /><line stroke="#e1ed5e" stroke-width="0.3" x1="143.23703022742887" x2="145.7803849466894" y1="26.81831364943548" y2="22.513508569990506" /><path d="M 143.74570117128098 25.957352633546492 a86.0,86.0 0 0,1 28.547481713284135,27.462654790039103" fill="none" id="id38" stroke="none" /><text fill="#e1ed5e" style="font-size:6.75px; font-family:Arial;" text-anchor="middle"><textPath startOffset="19.985693538727396" xlink:href="#id38">February</textPath></text><path d="M 113.06298171725822 83.55741782278167 l 13.104150979379716 -16.494402580114073 a42.06618355007029,42.06618355007029 0 0,0 0.5630791062517652,0.4553041443951879 l -13.386133484195971 16.266392338454754" fill="#f7ff18" stroke="none" /><path d="M 113.89432698308785 84.25364557470407 l 23.22162254501381 -26.316920522261064 a56.097351173530164,56.097351173530164 0 0,0 0.7185510043166099,0.6451221863725881 l -23.671184536926408 25.91329932711918" fill="#5aff2a" stroke="none" /><path d="M 115.68641384162765 86.03803664274999 l 45.14296369207574 -40.18027391536864 a81.43460583819606,81.43460583819606 0 0,0 0.9229570845629299,1.0550994969198932 l -45.82791264021652 39.39725886224579" fill="#4aeaff" stroke="none" /><path d="M 117.2510076193507 88.02491185347247 l 51.75302285805209 -35.92526443958259 a84.0,84.0 0 0,0 0.8143021373250665,1.1948879069183742 l -52.36374946104589 35.02909850939381" fill="#4dd2ff" stroke="none" /><line stroke="#e1ed5e" stroke-width="0.3" x1="172.23445277983987" x2="176.4835382374775" y1="55.19839476539836" y2="52.563006222186495" /><path d="M 173.08426987136738 54.67131705675599 a86.0,86.0 0 0,1 12.851231095245387,41.99856678651699" fill="none" id="id39" stroke="none" /><text fill="#e1ed5e" style="font-size:6.75px; font-family:Arial;" text-anchor="middle"><textPath startOffset="22.20632615414155" xlink:href="#id39">March</textPath></text><path d="M 118.3937258080291 89.86733742301442 l 12.019302618878003 -6.6211456623218865 a34.72236150689274,34.72236150689274 0 0,0 0.2838832498448583,0.5259925475689335 l -12.131493967941326 6.413272131420494" fill="#ffaa0f" stroke="none" /><path d="M 118.56541770881063 90.18545643968196 l 12.011894495551863 -6.350046285928185 a34.58707831749341,34.58707831749341 0 0,0 0.27371648337712756,0.5287331236777696 l -12.119420412089108 6.14234043999007" fill="#ffa80f" stroke="none" /><path d="M 119.47837535516314 92.15188598940014 l 3.849282782645881 -1.5509306903892404 a25.149983608059827,25.149983608059827 0 0,0 0.15833285968357205,0.40293985770411617 l -3.8754091922111535 1.4844418277893399" fill="#ff2603" stroke="none" /><path d="M 120.83666639777658 97.38593545837742 l 29.47943052295069 -3.6983427466830623 a50.71051266857272,50.71051266857272 0 0,0 0.10120284214032929,0.8670441479241865 l -29.53872371809461 3.190354860434023" fill="#93ff23" stroke="none" /><path d="M 120.87857604477298 97.74499172005257 l 5.04515589628925 -0.5449063334281403 a26.074497111051723,26.074497111051723 0 0,0 0.04435504681891392,0.4466492683534202 l -5.053788068790393 0.45798153437028516" fill="#ff3304" stroke="none" /><path d="M 120.94382443527127 98.46500227214037 l 30.776113098574086 -2.2556178230325417 a51.85866084618394,51.85866084618394 0 0,0 0.05758634867787937,0.8908353257255656 l -30.81038003825638 1.7255234330539406" fill="#87ff25" stroke="none" /><path d="M 120.96714384426684 98.82574320788733 l 33.197411904491304 -1.8592082306942341 a54.24943326436621,54.24943326436621 0 0,0 0.04419105040623984,0.9328032297028296 l -33.22449656313104 1.287493894368405" fill="#6dff28" stroke="none" /><line stroke="#e1ed5e" stroke-width="0.3" x1="184.98032266829074" x2="189.97916517819016" y1="98.17113171792111" y2="98.06355123074" /><path d="M 185.9800911702706 98.14961562048488 a86.0,86.0 0 0,1 -9.607161424134198,41.387399972396054" fill="none" id="id40" stroke="none" /><text fill="#e1ed5e" style="font-size:6.75px; font-family:Arial;" text-anchor="middle"><textPath startOffset="21.466115282336823" xlink:href="#id40">April</textPath></text><path d="M 120.99513854157772 99.54816195383933 l 2.849059314013634 -0.06131483206412006 a23.849719018324244,23.849719018324244 0 0,0 0.0053003080430001565,0.4105146990747633 l -2.84969262917435 0.012263874928894063" fill="#ff1302" stroke="none" /><path d="M 120.99980553446 99.90962569577887 l 16.32450881210139 -0.07025379940897186 a37.324659982759435,37.324659982759435 0 0,0 -0.00276505117635987,0.6425005149065598 l -16.323299463635525 -0.2107561937012727" fill="#ffcc13" stroke="none" /><path d="M 120.9904718944345 100.63252640178507 l 6.323062732506246 0.19053902830616665 a27.325932930447273,27.325932930447273 0 0,0 -0.018214513279872984,0.47003565338318043 l -6.31884608637517 -0.29935192870335325" fill="#ff4506" stroke="none" /><path d="M 120.89721153311464 102.0752229133903 l 14.023788791264689 1.3926493391743415 a35.092768508845374,35.092768508845374 0 0,0 -0.0648676432128448,0.6005938132059329 l -13.997738846550792 -1.633839474265066" fill="#ffaf10" stroke="none" /><path d="M 120.8583938346157 102.4346265915055 l 14.005870850241063 1.6347886553277848 a35.10095572013545,35.10095572013545 0 0,0 -0.0752138110190147,0.5995280773503283 l -13.9756555299752 -1.8756344869655082" fill="#ffaf10" stroke="none" /><path d="M 120.76222939487914 103.15116336523771 l 15.344037960590342 2.3288236237364037 a36.51975903184422,36.51975903184422 0 0,0 -0.09967850089780012,0.6206981202411607 l -15.301677705331253 -2.5926009736707694" fill="#ffc112" stroke="none" /><path d="M 120.70491114924044 103.5080841355445 l 13.841591117618 2.345214903865487 a35.03886311681378,35.03886311681378 0 0,0 -0.10587335815009605,0.5937940180428308 l -13.799171317128714 -2.583127672641536" fill="#ffae10" stroke="none" /><path d="M 120.49622156327973 104.57218783832717 l 7.689976507029102 1.7154389629282436 a28.878989117532264,28.878989117532264 0 0,0 -0.11240724890308623,0.48424748630346753 l -7.659308692195463 -1.847555106580276" fill="#ff5b08" stroke="none" /><path d="M 119.67450827220406 107.3425965602758 l 12.704251678110051 4.7412719739662785 a34.56015009621502,34.56015009621502 0 0,0 -0.21280119550226761,0.5555567713900689 l -12.620756203014277 -4.959252312189491" fill="#ffa80f" stroke="none" /><path d="M 118.97047184881838 109.00673069616215 l 28.142175571523133 13.36123838124828 a52.152925014819644,52.152925014819644 0 0,0 -0.39200806531458493,0.8076527235016285 l -27.908014249593833 -13.843680060715185" fill="#83ff25" stroke="none" /><path d="M 118.81262510543309 109.33194174019688 l 13.970476375239143 6.930009548687449 a36.594846664716336,36.594846664716336 0 0,0 -0.28477992956740283,0.5618978181154042 l -13.849117775885471 -7.1694615785055475" fill="#ffc212" stroke="none" /><line stroke="#e1ed5e" stroke-width="0.3" x1="174.80103733775053" x2="179.2010983576182" y1="140.37084112569926" y2="142.7455964860345" /><path d="M 175.68104954172406 140.8457921977663 a86.0,86.0 0 0,1 -30.038265399797805,32.042727171017184" fill="none" id="id41" stroke="none" /><text fill="#e1ed5e" style="font-size:6.75px; font-family:Arial;" text-anchor="middle"><textPath startOffset="22.206326154141568" xlink:href="#id41">May</textPath></text><path d="M 118.48025628344425 109.97397251340804 l 2.583697838940346 1.3944466371729323 a23.935979554913132,23.935979554913132 0 0,0 -0.1988094998696765,0.3608969903863277 l -2.5593119296191595 -1.438714145957065" fill="#ff1502" stroke="none" /><path d="M 117.35343817320211 111.8261652097733 l 50.690424738903616 34.5449317612221 a82.3422486594512,82.3422486594512 0 0,0 -0.808283640042337,1.164392868123486 l -50.08828019169914 -35.41236589153261" fill="#4be1ff" stroke="none" /><path d="M 116.93607887273984 112.41649034213515 l 3.8640232403847117 2.832863947229652 a25.79122048602929,25.79122048602929 0 0,0 -0.2655743261088841,0.35578020935896143 l -3.814687647580736 -2.898957036097929" fill="#ff2f04" stroke="none" /><path d="M 111.7513745106137 117.40417183066458 l 23.937130211665337 35.451676479252896 a63.77625004555489,63.77625004555489 0 0,0 -0.9151141789624859,0.606487778165343 l -23.323341333962887 -35.85846227850956" fill="#34ff59" stroke="none" /><path d="M 111.45004920935366 117.60387380957326 l 7.51888057166943 11.559900080149282 a34.790027371766286,34.790027371766286 0 0,0 -0.5048168784505993,0.32219801641110907 l -7.3187818911719 -11.6876125253842" fill="#ffab0f" stroke="none" /><line stroke="#e1ed5e" stroke-width="0.3" x1="143.8653032363475" x2="146.44561519142675" y1="172.8068346515853" y2="177.08958963109032" /><path d="M 144.38136562736335 173.6633856474863 a86.0,86.0 0 0,1 -40.68145358897372,12.25698825130547" fill="none" id="id42" stroke="none" /><text fill="#e1ed5e" style="font-size:6.75px; font-family:Arial;" text-anchor="middle"><textPath startOffset="21.466115282336833" xlink:href="#id42">June</textPath></text><path d="M 110.8373102113329 117.98757091392108 l 5.246374009550182 8.707836418583941 a31.166162272012997,31.166162272012997 0 0,0 -0.4619005255139772,0.27289897212868713 l -5.095705613007823 -8.79685396300638" fill="#ff7a0b" stroke="none" /><path d="M 106.57524785965236 119.94407469862006 l 9.013534552170643 27.33989809117075 a49.78739016928725,49.78739016928725 0 0,0 -0.816225510424512,0.2613296328858592 l -8.541587696655192 -27.491000570716317" fill="#9dff22" stroke="none" /><path d="M 103.06178313531738 120.77559828337769 l 1.0236421878769442 6.945880208150262 a28.02090415792546,28.02090415792546 0 0,0 -0.47778498228796046,0.06621664495843763 l -0.9039286144021533 -6.962471418601303" fill="#ff4f07" stroke="none" /><path d="M 102.70371172650421 120.8252237178851 l 3.219936917422656 24.801426130405083 a46.00957280431078,46.00957280431078 0 0,0 -0.7862654265041972,0.095205793323038 l -2.7925440678670785 -24.853177452453473" fill="#c8ff1d" stroke="none" /><path d="M 102.34483914955558 120.86867818915974 l 3.035351422842957 27.014122502314578 a48.18411618629919,48.18411618629919 0 0,0 -0.8250208353315025,0.08551678288878499 l -2.5698979909058517 -27.062368653659124" fill="#afff20" stroke="none" /><path d="M 101.98527174616119 120.90594882070398 l 0.9289295590618771 9.782113636250749 a30.82612117359753,30.82612117359753 0 0,0 -0.5286763191742346,0.045616417372289005 l -0.7604089221461009 -9.7966543059017" fill="#ff760a" stroke="none" /><path d="M 101.26447882468166 120.96189622390904 l 0.9188957667885285 15.232993489519034 a36.26068347361779,36.26068347361779 0 0,0 -0.6233590181646751,0.03222054097868287 l -0.6565486802103738 -15.246553837259917" fill="#ffbe11" stroke="none" /><line stroke="#e1ed5e" stroke-width="0.3" x1="102.19456741930631" x2="102.32365962044197" y1="184.97166512339345" y2="189.96999836594603" /><path d="M 102.22038585953345 185.97133177190398 a86.0,86.0 0 0,1 -42.740103519485714,-10.115201625700543" fill="none" id="id43" stroke="none" /><text fill="#e1ed5e" style="font-size:6.75px; font-family:Arial;" text-anchor="middle"><textPath startOffset="22.20632615414155" xlink:href="#id43">July</textPath></text><path d="M 100.54218724476979 120.99299961872073 l 0.3941629461214645 15.261632687716686 a36.26672187219239,36.26672187219239 0 0,0 -0.6242026285743609,0.010746214326672117 l -0.1314006276544356 -15.266156379322517" fill="#ffbe11" stroke="none" /><path d="M 100.18074693466247 120.99922214144158 l 0.19172814034601748 22.27502124675121 a43.27584636378646,43.27584636378646 0 0,0 -0.7449501500169305,0.0 l 0.19172814034600213 -22.27502124675121" fill="#e9ff1a" stroke="none" /><path d="M 99.45781275523022 120.99299961872073 l -0.3675859315473835 14.232594726749712 a35.23734076550025,35.23734076550025 0 0,0 -0.6062159085562235,-0.020879301622549636 l 0.6125221917782501 -14.224158626701067" fill="#ffb110" stroke="none" /><path d="M 99.09653310690486 120.98055641714683 l -0.22921129827433326 5.322807743864635 a26.327740618442487,26.327740618442487 0 0,0 -0.4526013569034556,-0.023394320354988715 l 0.3208007235912778 -5.318073616747444" fill="#ff3705" stroke="none" /><path d="M 98.01472825383883 120.90594882070398 l -1.2350904413794448 13.006147700609585 a34.06465944479453,34.06465944479453 0 0,0 -0.5832638640037866,-0.06045768432604414 l 1.4587869019888249 -12.982960647827781" fill="#ffa10e" stroke="none" /><path d="M 97.65516085044442 120.86867818915974 l -1.5571266570163214 13.858168101293655 a34.94537437825546,34.94537437825546 0 0,0 -0.5971874550265948,-0.07231108414770672 l 1.7954415350943054 -13.8293114884206" fill="#ffad10" stroke="none" /><path d="M 94.11515582081647 120.15858648285463 l -3.681213060427472 12.610028333959523 a34.136367236779115,34.136367236779115 0 0,0 -0.5626405229689203,-0.1695189741599482 l 3.897728557836638 -12.544793990693849" fill="#ffa20f" stroke="none" /><path d="M 92.7421414339146 119.70592522655815 l -20.820562858155952 56.5302356227876 a81.24253793872157,81.24253793872157 0 0,0 -1.308120067528298,-0.4946190781544663 l 21.79055314644453 -56.1634682945265" fill="#4aecff" stroke="none" /><line stroke="#e1ed5e" stroke-width="0.3" x1="58.666819895761336" x2="56.23545636021788" y1="174.27360380694188" y2="178.64263932499728" /><path d="M 58.180547188652646 175.14741091055294 a86.0,86.0 0 0,1 -31.652253787137756,-30.449443065178592" fill="none" id="id44" stroke="none" /><text fill="#e1ed5e" style="font-size:6.75px; font-family:Arial;" text-anchor="middle"><textPath startOffset="22.20632615414155" xlink:href="#id44">August</textPath></text><path d="M 88.54995079064634 117.60387380957326 l -32.262639106498334 49.60218224482717 a80.17139820525794,80.17139820525794 0 0,0 -1.1503652722208493,-0.7623993749269492 l 33.111679077459144 -49.0394848488089" fill="#48f6ff" stroke="none" /><path d="M 88.24862548938628 117.40417183066458 l -32.85970743260316 48.666306562339685 a79.72111857735598,79.72111857735598 0 0,0 -1.1306850627822707,-0.7776954963184913 l 33.692549380008316 -48.09347027665609" fill="#48faff" stroke="none" /><path d="M 86.24171649860922 115.8653595955263 l -5.159295725850273 5.949439982247936 a28.87490752257747,28.87490752257747 0 0,0 -0.37270307110046286,-0.3288671268031325 l 5.260941149857324 -5.859749713672515" fill="#ff5b08" stroke="none" /><path d="M 84.67929136418377 114.36230785411682 l -1.1192827001733145 1.0492649588084693 a22.534193832829022,22.534193832829022 0 0,0 -0.26284912963199814,-0.2852708168819469 l 1.1371782378010415 -1.0298428871251784" fill="#ff0000" stroke="none" /><path d="M 82.85270091963577 112.12312394758628 l -9.857672134526817 6.9693647122761675 a33.0725202176077,33.0725202176077 0 0,0 -0.324644729310459,-0.4676749457197758 l 9.97617777099941 -6.798648504369379" fill="#ff940d" stroke="none" /><line stroke="#e1ed5e" stroke-width="0.3" x1="26.63291911575756" x2="22.317208475507996" y1="142.92168965132927" y2="145.44649492493687" /><path d="M 25.769776987707644 143.4266507060508 a86.0,86.0 0 0,1 -11.730757126820373,-40.83630448921669" fill="none" id="id45" stroke="none" /><text fill="#e1ed5e" style="font-size:6.75px; font-family:Arial;" text-anchor="middle"><textPath startOffset="21.46611528233685" xlink:href="#id45">September</textPath></text><path d="M 79.76711848015287 105.62410040840567 l -13.189025123712149 3.6661313670017797 a34.68907969565612,34.68907969565612 0 0,0 -0.15496425219918944,-0.5766796305499937 l 13.250177452253114 -3.438560803276247" fill="#ffa90f" stroke="none" /><path d="M 79.67330655649465 105.27499134158121 l -59.70757930525445 15.494746587159446 a82.68534832756916,82.68534832756916 0 0,0 -0.34565895508250366,-1.3807357022956157 l 59.96544957463201 -14.464683045466437" fill="#4bdeff" stroke="none" /><path d="M 79.18660465613746 102.79330883721812 l -60.89064024939765 8.171966212262772 a82.43656160427543,82.43656160427543 0 0,0 -0.17664385024150583,-1.4080252878593282 l 61.022285608886 -7.122623170116035" fill="#4be0ff" stroke="none" /><path d="M 79.1416061653843 102.43462659150553 l -7.54141737925123 0.8802468413793513 a28.592615530226116,28.592615530226116 0 0,0 -0.05285235852136471,-0.4893471994522651 l 7.5554520392736455 -0.7503033200423042" fill="#ff5708" stroke="none" /><path d="M 79.07016306316243 101.71520430193888 l -19.566740104194803 1.6034982452522584 a40.632333659746934,40.632333659746934 0 0,0 -0.05112600403759407,-0.6975737052936029 l 19.591442666896736 -1.2664514034618948" fill="#fff517" stroke="none" /><line stroke="#e1ed5e" stroke-width="0.3" x1="15.007084014347285" x2="10.007500721073583" y1="101.09737516637583" y2="101.16192664675087" /><path d="M 14.007167355692545 101.11028546245083 a86.0,86.0 0 0,1 10.666146001902534,-42.60595125391555" fill="none" id="id46" stroke="none" /><text fill="#e1ed5e" style="font-size:6.75px; font-family:Arial;" text-anchor="middle"><textPath startOffset="22.20632615414155" xlink:href="#id46">October</textPath></text><path d="M 79.00175016825051 100.2711162175752 l -60.57949322216554 0.7821643802038647 a81.58454241943286,81.58454241943286 0 0,0 -0.006043871132217529,-1.4043828004626269 l 60.58398139058726 0.2607278984624376" fill="#4ae8ff" stroke="none" /><path d="M 79.08570108090925 98.10471618934814 l -24.860432289106402 -2.252888085114851 a45.96230354605313,45.96230354605313 0 0,0 0.07818598061575767,-0.7873221547955164 l 24.817969182808415 2.6804857706147978" fill="#c9ff1d" stroke="none" /><path d="M 79.12142395522702 97.74499172005258 l -19.84301311533959 -2.143161429124303 a40.958414526380224,40.958414526380224 0 0,0 0.08174060449206054,-0.7003035811420363 l 19.803182157843942 2.4844087485912008" fill="#fff917" stroke="none" /><path d="M 81.26839172434947 90.50648371742162 l -12.850244163578092 -6.512735073614478 a35.406404589718456,35.406404589718456 0 0,0 0.2802004975489357,-0.5412581752374513 l 12.736234232869041 6.732965971112265" fill="#ffb310" stroke="none" /><path d="M 81.43458229118936 90.18545643968196 l -11.118302015380253 -5.877651726356554 a33.57630428709288,33.57630428709288 0 0,0 0.2745133097271405,-0.5086314715780794 l 11.015480606434641 6.0681641812671065" fill="#ff9b0e" stroke="none" /><line stroke="#e1ed5e" stroke-width="0.3" x1="26.266209847984243" x2="21.928928074336255" y1="57.711370442889674" y2="55.22380399835377" /><path d="M 25.398753493254645 57.213857153982495 a86.0,86.0 0 0,1 29.58750427330803,-30.492523968695096" fill="none" id="id47" stroke="none" /><text fill="#e1ed5e" style="font-size:6.75px; font-family:Arial;" text-anchor="middle"><textPath startOffset="21.46611528233685" xlink:href="#id47">November</textPath></text><path d="M 84.31358615837235 86.03803664274999 l -2.4714513632152895 -2.1997579383546997 a24.308626123951335,24.308626123951335 0 0,0 0.28088774842208253,-0.3101632673913912 l 2.4332199741771623 2.2419739930156473" fill="#ff1a02" stroke="none" /><path d="M 85.31137513191541 84.99185889309783 l -9.77858420067867 -9.991294135939574 a34.980224157023486,34.980224157023486 0 0,0 0.43394926357609354,-0.4174588477426466 l 9.60515169349015 10.158136070444534" fill="#ffad10" stroke="none" /><path d="M 85.83668400450813 84.49514656593479 l -9.406291572080141 -10.29724763816657 a34.94674263262619,34.94674263262619 0 0,0 0.44763284702323247,-0.40188918981257754 l 9.227647737460938 10.457635836748427" fill="#ffad10" stroke="none" /><path d="M 86.10567301691215 84.25364557470407 l -9.322000794383626 -10.564565569813094 a35.08934861834887,35.08934861834887 0 0,0 0.45633898614839746,-0.39573267194884654 l 9.138768009588457 10.723463235181622" fill="#ffaf10" stroke="none" /><path d="M 86.65592168130627 83.78471172551755 l -10.727541403987846 -13.03575804845376 a37.88227272828219,37.88227272828219 0 0,0 0.5070751485034681,-0.41001950537693854 l 10.501562856919877 13.218483651094832" fill="#ffd313" stroke="none" /><path d="M 87.22198572758235 83.33499621200491 l -8.745928387083012 -11.406383385788432 a35.37347714700847,35.37347714700847 0 0,0 0.48639178957801865,-0.366340211950863 l 8.548290443746604 11.555240187245149" fill="#ffb210" stroke="none" /><path d="M 88.09926311788651 82.69761687909137 l -11.064607694562289 -16.086741796771086 a40.52456926722198,40.52456926722198 0 0,0 0.5781414625550821,-0.3903636962850765 l 10.786061537600668 16.27481740535483" fill="#fff417" stroke="none" /><path d="M 88.39885842347998 82.49532879139004 l -2.4995197991819493 -3.7714626595579754 a25.52454747117794,25.52454747117794 0 0,0 0.36832283503339064,-0.2395674174719139 l 2.434229938364272 3.813929001189424" fill="#ff2c04" stroke="none" /><line stroke="#e1ed5e" stroke-width="0.3" x1="56.762969772571076" x2="54.21961505331055" y1="26.818313649435495" y2="22.513508569990535" /><path d="M 56.25429882871897 25.957352633546506 a86.0,86.0 0 0,1 42.265352541879196,-11.944610805530505" fill="none" id="id48" stroke="none" /><text fill="#e1ed5e" style="font-size:6.75px; font-family:Arial;" text-anchor="middle"><textPath startOffset="22.20632615414155" xlink:href="#id48">December</textPath></text><path d="M 89.3179101791058 81.91981866633112 l -7.103819270600625 -12.023709098836152 a34.965451253818905,34.965451253818905 0 0,0 0.5208241620485297,-0.3016949715320451 l 6.895798376086776 12.144208227758243" fill="#ffad10" stroke="none" /><path d="M 90.26544431104013 81.39251694778311 l -6.569957535994567 -12.558392741381077 a35.173128457455846,35.173128457455846 0 0,0 0.5388850095180773,-0.2760378322824837 l 6.352812038887726 12.669623098976066" fill="#ffb010" stroke="none" /><path d="M 90.58718382345135 81.22770947309562 l -1.524399782245348 -3.040160888593083 a24.400937065668924,24.400937065668924 0 0,0 0.3770859614133271,-0.18503444359916893 l 1.4718425538215947 3.0659504923270817" fill="#ff1b02" stroke="none" /><path d="M 90.91171255644093 81.06846463323043 l -6.657055521924541 -13.86711003965661 a36.382234202934605,36.382234202934605 0 0,0 0.5669076072762298,-0.2661707230172937 l 6.417369703348703 13.979645745313913" fill="#ffc011" stroke="none" /><path d="M 91.23893434514133 80.91482961587045 l -1.1153937880990432 -2.4297820984213736 a23.67356397872557,23.67356397872557 0 0,0 0.37180784380021653,-0.1668193415746484 l 1.0734038258320524 2.448621770512551" fill="#ff1101" stroke="none" /><path d="M 91.56875222667455 80.76684994638697 l -5.654856244887448 -12.899715630896898 a35.08474573815049,35.08474573815049 0 0,0 0.555201469646889,-0.23770829452046086 l 5.43197101745025 12.995143453380145" fill="#ffaf10" stroke="none" /><path d="M 91.90106846888425 80.62456947434976 l -5.061118986752064 -12.107937810452684 a34.12315066665974,34.12315066665974 0 0,0 0.5438842356474772,-0.22186403584047645 l 4.851950881516205 12.193262732476738" fill="#ffa20f" stroke="none" /><path d="M 93.59665428221793 80.00007090966166 l -4.2838959066596685 -13.380132533787375 a35.04918897163857,35.04918897163857 0 0,0 0.5761663194112118,-0.17901768007499225 l 4.052944214537728 13.451890348744893" fill="#ffae10" stroke="none" /><path d="M 94.28887869178378 79.79150937346287 l -0.437101190207589 -1.5466586732189669 a22.607236915306622,22.607236915306622 0 0,0 0.37539005862794284,-0.10260828346463488 l 0.41041324235592364 1.5539534975098976" fill="#ff0100" stroke="none" /><path d="M 95.692805502759 79.44645832069477 l -2.855320537341421 -13.625330759875204 a34.921296408271935,34.921296408271935 0 0,0 0.5893943081926769,-0.11822695348967843 l 2.6203598196816076 13.672461669442093" fill="#ffad10" stroke="none" /><path d="M 96.04723909329186 79.375362276772 l -0.5137785077315903 -2.6807833415782065 a23.729572801646828,23.729572801646828 0 0,0 0.4018262791623665,-0.07343118410798483 l 0.46755710746633045 2.6892300070369277" fill="#ff1201" stroke="none" /><path d="M 96.75951476605007 79.25152402106235 l -5.873437501778691 -37.60698417715119 a59.06287596842625,59.06287596842625 0 0,0 1.005843645304978,-0.1482352068977436 l 5.225224876045064 37.702513868209905" fill="#3cff2e" stroke="none" /><path d="M 97.47563105711357 79.15227682838746 l -1.6892141547970037 -13.95052382339573 a35.05242183425684,35.05242183425684 0 0,0 0.5996189069280011,-0.06737417075648346 l 1.4488285443592845 13.977533947622812" fill="#ffae10" stroke="none" /><path d="M 97.83486435360386 79.11191278185805 l -0.16050312500821626 -1.5484495299573258 a22.556745708188227,22.556745708188227 0 0,0 0.386552666428195,-0.036707833432708135 l 0.1338253314897849 1.5509829079052144" fill="#ff0000" stroke="none" /><path d="M 98.19473922651362 79.07773832637324 l -1.2077361444410915 -13.997186455170176 a35.04919411409028,35.04919411409028 0 0,0 0.6015273054124795,-0.04669009599273189 l 0.9666186496662778 14.01590181335137" fill="#ffae10" stroke="none" /></svg>